SplineFontDB: 3.0
FontName: InconsolataLGC-oldstyle-Italic
FullName: Inconsolata LGC-oldstyle Italic
FamilyName: Inconsolata LGC-oldstyle
Weight: Medium-Italic
Copyright: Created by Raph Levien using his own tools and FontForge. Copyright 2006 Raph Levien. Released under the SIL Open Font License, http://scripts.sil.org/OFL.\n\nHellenisation of the Roman font, by Dimosthenis Kaponis, using FontForge. Hellenic glyphs Copyright 2010-2012 Dimosthenis Kaponis. Released under the SIL Open Font License, http://scripts.sil.org/OFL.\n\nCyrillic glyphs added by MihailJP, using FontForge. Cyrillic glyphs Copyright 2012 MihailJP. Released under the SIL Open Font License, http://scripts.sil.org/OFL.\n\nItalic changes by MihailJP.
Version: 1.1.0
ItalicAngle: -10
UnderlinePosition: -100
UnderlineWidth: 50
Ascent: 820
Descent: 180
InvalidEm: 0
sfntRevision: 0x00011999
LayerCount: 2
Layer: 0 0 "Back" 1
Layer: 1 0 "Fore" 0
XUID: [1021 886 -890085229 138619]
StyleMap: 0x0001
FSType: 8
OS2Version: 3
OS2_WeightWidthSlopeOnly: 0
OS2_UseTypoMetrics: 0
CreationTime: 1161020814
ModificationTime: 1482053130
PfmFamily: 17
TTFWeight: 500
TTFWidth: 5
LineGap: 200
VLineGap: 0
Panose: 2 11 6 9 3 0 3 0 0 0
OS2TypoAscent: 820
OS2TypoAOffset: 0
OS2TypoDescent: -180
OS2TypoDOffset: 0
OS2TypoLinegap: 0
OS2WinAscent: 1049
OS2WinAOffset: 0
OS2WinDescent: 205
OS2WinDOffset: 0
HheadAscent: 1049
HheadAOffset: 0
HheadDescent: -205
HheadDOffset: 0
OS2SubXSize: 650
OS2SubYSize: 699
OS2SubXOff: 24
OS2SubYOff: 140
OS2SupXSize: 650
OS2SupYSize: 699
OS2SupXOff: -83
OS2SupYOff: 479
OS2StrikeYSize: 49
OS2StrikeYPos: 258
OS2CapHeight: 722
OS2XHeight: 529
OS2Vendor: 'PfEd'
OS2CodePages: 6000009f.dfd70000
OS2UnicodeRanges: a00002af.0000797b.00000000.00000000
Lookup: 1 0 0 "'locl' Localized Forms in Cyrillic lookup 0" { "'locl' Localized Forms in Cyrillic lookup 0 subtable"  } ['locl' ('cyrl' <'MKD ' 'SRB ' > ) ]
MarkAttachClasses: 1
DEI: 91125
LangName: 1033
Encoding: UnicodeBmp
UnicodeInterp: none

StartChar: exclam
Encoding: 33 33 2
Width: 600
GlyphClass: 2
Flags: W
LayerCount: 2
Fore
SplineSet
365.787109375 55.4912109375 m 0
 359.123046875 17.7001953125 323.000976562 -13.0166015625 285.18359375 -13.0166015625 c 0
 247.376953125 -13.0166015625 222.072265625 17.6865234375 228.739257812 55.4931640625 c 0
 235.403320312 93.2861328125 271.525390625 124.001953125 309.34375 124.001953125 c 0
 347.1484375 124.001953125 372.453125 93.296875 365.787109375 55.4912109375 c 0
425.749023438 774.000976562 m 0
 447.497070312 774.000976562 469.3046875 759.407226562 472.060546875 724.3203125 c 0
 472.599609375 717.475585938 472.977539062 704.489257812 468.17578125 677.25 c 0
 460.369140625 632.979492188 444.770507812 589.116210938 434.09765625 545 c 2
 356.672851562 225 l 1
 298.672851562 225 l 1
 338.09765625 545 l 2
 347.477539062 621.13671875 345.048828125 649.2734375 351.642578125 686.669921875 c 0
 355.469726562 708.377929688 360.805664062 724.01171875 368.381835938 736.817382812 c 0
 383.114257812 761.720703125 405.6796875 774.000976562 425.749023438 774.000976562 c 0
EndSplineSet
EndChar

StartChar: quotedbl
Encoding: 34 34 3
Width: 600
GlyphClass: 2
Flags: W
LayerCount: 2
Fore
SplineSet
580.486328125 706 m 2
 561.090820312 595.999023438 l 1
 544.392578125 491.999023438 l 1
 464.032226562 491.999023438 l 1
 469.568359375 541.999023438 472.849609375 541.999023438 480.024414062 591.999023438 c 1
 488.588867188 611.499023438 484.25 625.256835938 488.259765625 647.999023438 c 2
 498.486328125 705.999023438 l 2
 506.559570312 751.78125 537.341796875 772.142578125 555.663085938 772.142578125 c 0
 574.328125 772.142578125 589.732421875 758.432617188 580.486328125 706 c 2
378.486328125 705.999023438 m 2
 359.08984375 595.998046875 l 1
 342.391601562 491.998046875 l 1
 262.03125 491.998046875 l 1
 267.567382812 541.998046875 270.848632812 541.998046875 278.0234375 591.998046875 c 1
 286.587890625 611.498046875 282.249023438 625.255859375 286.258789062 647.998046875 c 2
 296.485351562 705.998046875 l 2
 304.55859375 751.780273438 335.340820312 772.141601562 353.662109375 772.141601562 c 0
 372.327148438 772.141601562 387.731445312 758.431640625 378.486328125 705.999023438 c 2
EndSplineSet
EndChar

StartChar: numbersign
Encoding: 35 35 4
Width: 600
GlyphClass: 2
Flags: W
LayerCount: 2
Fore
SplineSet
338.484375 723 m 1
 409.014648438 725.998046875 l 1
 349.9296875 527.364257812 l 1
 477.845703125 528.889648438 l 1
 533.427734375 716.999023438 l 1
 605.956054688 719.999023438 l 1
 549.166992188 529.741210938 l 1
 654.630859375 530.999023438 l 1
 638.755859375 474.999023438 l 1
 532.509765625 473.938476562 l 1
 474.298828125 278.9140625 l 1
 589.548828125 280.999023438 l 1
 574.02734375 226.999023438 l 1
 458.24609375 225.1328125 l 1
 395.822265625 15.9990234375 l 1
 325.1171875 11.9990234375 l 1
 387.756835938 223.997070312 l 1
 259.075195312 221.922851562 l 1
 197.822265625 15.9990234375 l 1
 129.29296875 12.9990234375 l 1
 190.524414062 220.819335938 l 1
 77.6162109375 218.999023438 l 1
 91.9619140625 271.999023438 l 1
 206.212890625 274.065429688 l 1
 264.313476562 471.26171875 l 1
 137.874023438 470 l 1
 151.571289062 525 l 1
 280.600585938 526.5390625 l 1
 338.484375 723 l 1
333.446289062 471.950195312 m 1
 274.953125 275.30859375 l 1
 403.604492188 277.635742188 l 1
 461.3984375 473.228515625 l 1
 333.446289062 471.950195312 l 1
EndSplineSet
EndChar

StartChar: dollar
Encoding: 36 36 5
Width: 600
GlyphClass: 2
Flags: W
LayerCount: 2
Fore
SplineSet
414.950195312 754 m 1
 489.953125 754.00390625 l 2
 490.279296875 752.765625 490.323242188 751.419921875 490.081054688 750.049804688 c 0
 488.567382812 741.465820312 480.684570312 741.131835938 478.72265625 730.00390625 c 2
 470.880859375 685.534179688 l 1
 538.1328125 678.634765625 593.67578125 647.801757812 627.271484375 597.00390625 c 1
 566.161132812 534.00390625 l 2
 563.8046875 534.650390625 561.069335938 536.86328125 561.57421875 542.03515625 c 0
 561.90234375 545.388671875 563.319335938 548.59375 562.231445312 552.135742188 c 0
 561.908203125 553.184570312 561.333984375 554.435546875 558.5 558.807617188 c 0
 539.568359375 588.018554688 507.689453125 609.609375 458.825195312 617.171875 c 1
 419.4765625 394.009765625 l 1
 444.135742188 385.215820312 469.02734375 376.235351562 491.213867188 365.908203125 c 0
 513.767578125 355.41015625 598.529296875 316.116210938 579.873046875 210.30859375 c 0
 565.21875 127.203125 487.537109375 35.8984375 353.314453125 18.7919921875 c 1
 340.48046875 -53.998046875 l 1
 272.48046875 -53.998046875 l 1
 284.938476562 16.6533203125 l 1
 205.947265625 21.640625 139.931640625 53.06640625 98.2216796875 109.001953125 c 1
 160.387695312 178.001953125 l 1
 165.657226562 175.388671875 163.9296875 168.720703125 163.595703125 167.270507812 c 0
 162.431640625 162.203125 161.274414062 159.079101562 164.884765625 154.3515625 c 0
 191.3125 119.733398438 236.98828125 90.2119140625 296.713867188 83.443359375 c 1
 341.624023438 338.141601562 l 1
 321.720703125 345.221679688 301.571289062 353.278320312 282.453125 363.137695312 c 0
 193.158203125 409.184570312 185.49609375 474.448242188 192.9375 516.64453125 c 0
 207.645507812 600.059570312 293.490234375 670.81640625 402.7109375 684.5859375 c 1
 414.950195312 754 l 1
405.872070312 316.852539062 m 1
 365.140625 85.8466796875 l 1
 441.9921875 100.225585938 494.03125 152.564453125 503.260742188 204.90625 c 0
 507.456054688 228.698242188 505.372070312 267.25 461.389648438 293.708007812 c 0
 447.002929688 302.36328125 427.705078125 309.565429688 405.872070312 316.852539062 c 1
355.725585938 418.099609375 m 1
 391.08203125 618.62109375 l 1
 316.709960938 610.107421875 278.330078125 566.681640625 271.267578125 526.618164062 c 0
 266.809570312 501.338867188 272.62890625 466.612304688 318.513671875 437.19921875 c 0
 329.279296875 430.296875 341.930664062 424.02734375 355.725585938 418.099609375 c 1
EndSplineSet
EndChar

StartChar: percent
Encoding: 37 37 6
Width: 600
GlyphClass: 2
Flags: W
LayerCount: 2
Fore
SplineSet
590.30859375 722 m 1
 668.30859375 722 l 1
 137 0 l 1
 63 0 l 1
 590.30859375 722 l 1
301.522460938 735.106445312 m 0
 372.092773438 735.106445312 420.396484375 670.55078125 404.815429688 582.188476562 c 0
 389.640625 496.123046875 319.698242188 431.982421875 249.122070312 431.982421875 c 0
 178.009765625 431.982421875 130.470703125 496.911132812 145.728515625 583.448242188 c 0
 161.436523438 672.526367188 232.66015625 735.106445312 301.522460938 735.106445312 c 0
289.17578125 674.005859375 m 0
 266.326171875 674.005859375 228.671875 656.125 216.559570312 587.430664062 c 0
 202.721679688 508.954101562 238.352539062 493.912109375 259.240234375 493.912109375 c 0
 282.29296875 493.912109375 319.396484375 512.142578125 331.211914062 579.149414062 c 0
 345.762695312 661.66796875 307.943359375 674.005859375 289.17578125 674.005859375 c 0
593.458007812 138.59375 m 0
 578.143554688 51.74609375 507.848632812 -12.123046875 437.560546875 -12.123046875 c 0
 366.913085938 -12.123046875 319.16015625 52.0537109375 334.361328125 138.262695312 c 0
 349.670898438 225.08984375 420.1796875 289.001953125 490.549804688 289.001953125 c 0
 561.087890625 289.001953125 608.670898438 224.872070312 593.458007812 138.59375 c 0
479.703125 229.005859375 m 0
 454.818359375 229.005859375 415.838867188 208.94140625 403.389648438 138.340820312 c 0
 391.319335938 69.8916015625 421.3984375 46.7705078125 448.552734375 46.7705078125 c 0
 473.362304688 46.7705078125 511.7890625 66.794921875 523.975585938 135.904296875 c 0
 537.098632812 210.331054688 503.540039062 229.005859375 479.703125 229.005859375 c 0
EndSplineSet
EndChar

StartChar: ampersand
Encoding: 38 38 7
Width: 600
GlyphClass: 2
Flags: W
LayerCount: 2
Fore
SplineSet
403.78125 729.11328125 m 0
 490.65234375 729.11328125 547.147460938 664.09375 531.41015625 574.842773438 c 0
 518.043945312 499.041992188 455.229492188 423.322265625 372.356445312 382.000976562 c 1
 470.44140625 201.000976562 l 1
 503.604492188 232.96484375 525.40625 266.73828125 538.887695312 294.094726562 c 0
 540.23828125 296.840820312 541.465820312 299.922851562 542.033203125 303.139648438 c 0
 542.838867188 307.708007812 542.032226562 312.211914062 542.866210938 316.939453125 c 0
 543.86328125 322.59765625 546.830078125 326.512695312 550.012695312 329.001953125 c 2
 615.84375 277.001953125 l 1
 581.47265625 230.0625 544.124023438 184.948242188 504.0390625 142.000976562 c 1
 566.525390625 37.0009765625 l 1
 489.532226562 -13.9990234375 l 1
 443.518554688 88.0009765625 l 1
 387.47265625 30.9912109375 308.529296875 -12.0302734375 230.499023438 -12.0302734375 c 0
 126.216796875 -12.0302734375 63.4189453125 66.2744140625 81.6083984375 169.432617188 c 0
 97.353515625 258.731445312 170.375976562 348.3125 268.002929688 397.000976562 c 1
 234.265625 448.798828125 206.524414062 513.45703125 217.744140625 577.0859375 c 0
 232.9921875 663.5625 315.67578125 729.11328125 403.78125 729.11328125 c 0
297.396484375 575.61328125 m 0
 292.022460938 545.141601562 297.360351562 503.947265625 342.174804688 432.000976562 c 1
 401.171875 461.715820312 445.2421875 516.513671875 454.55078125 569.305664062 c 0
 464.227539062 624.184570312 432.88671875 660.403320312 390.18359375 660.403320312 c 0
 349.095703125 660.403320312 306.35546875 626.428710938 297.396484375 575.61328125 c 0
298.481445312 343.000976562 m 1
 229.873046875 303.1015625 181.234375 237.44921875 170.655273438 177.451171875 c 0
 158.7890625 110.153320312 197.09765625 62.8271484375 256.252929688 62.8271484375 c 0
 333.485351562 62.8271484375 411.216796875 143.000976562 411.216796875 143.000976562 c 1
 298.481445312 343.000976562 l 1
EndSplineSet
EndChar

StartChar: quotesingle
Encoding: 39 39 8
Width: 600
GlyphClass: 2
Flags: W
LayerCount: 2
Fore
SplineSet
496.487304688 706 m 2
 477.090820312 595.998046875 l 1
 460.752929688 491.998046875 l 1
 362.752929688 491.998046875 l 1
 367.569335938 541.998046875 371.569335938 541.998046875 378.38671875 591.998046875 c 1
 388.075195312 611.498046875 382.250976562 625.255859375 386.260742188 647.998046875 c 2
 396.486328125 705.998046875 l 2
 404.560546875 751.780273438 441.3125 772.142578125 463.654296875 772.142578125 c 0
 486.416015625 772.142578125 505.732421875 758.432617188 496.487304688 706 c 2
EndSplineSet
EndChar

StartChar: parenleft
Encoding: 40 40 9
Width: 600
GlyphClass: 2
Flags: W
LayerCount: 2
Fore
SplineSet
600.124023438 772 m 1
 622.60546875 701.001953125 l 1
 618.28515625 698.764648438 614.512695312 698.612304688 612.852539062 698.612304688 c 0
 608.256835938 698.612304688 604.811523438 699.93359375 600.739257812 699.93359375 c 0
 596.1328125 699.93359375 593.02734375 698.141601562 589.612304688 696.31640625 c 0
 440.150390625 616.46875 333.943359375 468.860351562 304.759765625 303.346679688 c 0
 273.015625 123.315429688 336.34765625 -46.9677734375 478.48828125 -138.999023438 c 1
 429.732421875 -199.999023438 l 1
 263.177734375 -103.657226562 186.37109375 88.9931640625 223.482421875 299.462890625 c 0
 260.8828125 511.567382812 406.893554688 693.118164062 600.124023438 772 c 1
EndSplineSet
EndChar

StartChar: parenright
Encoding: 41 41 10
Width: 600
GlyphClass: 2
Flags: W
LayerCount: 2
Fore
SplineSet
223.252929688 699 m 1
 257.948242188 771.000976562 l 1
 430.936523438 684.352539062 519.5703125 496.633789062 483.186523438 290.290039062 c 0
 446.478515625 82.10546875 288.705078125 -110.3828125 80.3818359375 -201.999023438 c 1
 70.724609375 -131.999023438 l 1
 241.93359375 -49.1162109375 369.881835938 112.59765625 400.629882812 286.978515625 c 0
 430.954101562 458.955078125 362.047851562 617.580078125 223.252929688 699 c 1
EndSplineSet
EndChar

StartChar: asterisk
Encoding: 42 42 11
Width: 600
GlyphClass: 2
Flags: W
LayerCount: 2
Fore
SplineSet
362.97265625 601 m 1
 456.971679688 601 l 1
 452.577148438 587.216796875 448.53515625 584.40625 444.505859375 570 c 2
 395.82421875 396 l 1
 594.63671875 480 l 1
 613.118164062 409 l 1
 403.538085938 349 l 1
 518.680664062 174 l 1
 446.86328125 124 l 1
 355.719726562 316 l 1
 191.6875 123 l 1
 137.680664062 174 l 1
 319.360351562 348 l 1
 130.1171875 409 l 1
 173.340820312 484 l 1
 344.82421875 396 l 1
 362.97265625 601 l 1
EndSplineSet
EndChar

StartChar: plus
Encoding: 43 43 12
Width: 600
GlyphClass: 2
Flags: W
LayerCount: 2
Fore
SplineSet
373.853515625 606 m 1
 446.853515625 606 l 1
 411.940429688 408 l 1
 609.940429688 408 l 1
 597.421875 337 l 1
 399.421875 337 l 1
 361.159179688 120 l 1
 288.159179688 120 l 1
 326.421875 337 l 1
 121.421875 337 l 1
 133.940429688 408 l 1
 338.940429688 408 l 1
 373.853515625 606 l 1
EndSplineSet
EndChar

StartChar: comma
Encoding: 44 44 13
Width: 600
GlyphClass: 2
Flags: W
LayerCount: 2
Fore
SplineSet
368.178710938 22.8349609375 m 0
 357.541015625 -37.494140625 301.770507812 -113.057617188 206.615234375 -195.000976562 c 1
 172.787109375 -160.000976562 l 1
 204.725585938 -134.7265625 229.166992188 -106.529296875 243.764648438 -87.93359375 c 0
 251.061523438 -78.6376953125 266.052734375 -58.833984375 269.434570312 -39.658203125 c 0
 273.640625 -15.802734375 258.4453125 -5.1328125 249.559570312 1.5625 c 0
 240.522460938 8.37109375 220.797851562 21.6943359375 226.291992188 52.8525390625 c 0
 232.462890625 87.849609375 266.506835938 118.9296875 304.642578125 118.9296875 c 0
 345.856445312 118.9296875 378.634765625 82.1328125 368.178710938 22.8349609375 c 0
EndSplineSet
EndChar

StartChar: hyphen
Encoding: 45 45 14
Width: 600
GlyphClass: 2
Flags: W
LayerCount: 2
Fore
SplineSet
163.059570312 403 m 1
 580.059570312 403 l 1
 566.481445312 326 l 1
 149.481445312 326 l 1
 163.059570312 403 l 1
EndSplineSet
EndChar

StartChar: period
Encoding: 46 46 15
Width: 600
GlyphClass: 2
Flags: W
LayerCount: 2
Fore
SplineSet
364.434570312 53.4931640625 m 0
 358.000976562 17.0087890625 322.250976562 -13.0458984375 284.139648438 -13.0458984375 c 0
 246.112304688 -13.0458984375 220.944335938 16.98046875 227.385742188 53.5087890625 c 0
 233.8125 89.962890625 269.541992188 120.001953125 307.620117188 120.001953125 c 0
 345.71484375 120.001953125 370.86328125 89.9609375 364.434570312 53.4931640625 c 0
EndSplineSet
EndChar

StartChar: slash
Encoding: 47 47 16
Width: 600
GlyphClass: 2
Flags: W
LayerCount: 2
Fore
SplineSet
81.35546875 -15 m 1
 582.771484375 770 l 1
 645.6015625 735 l 1
 143.360351562 -49 l 1
 81.35546875 -15 l 1
EndSplineSet
EndChar

StartChar: zero
Encoding: 48 48 17
Width: 600
GlyphClass: 2
Flags: HW
HStem: -13.7402 73.3398<234.059 369.069> 466.764 74.4395<227.828 374.5>
VStem: 71 66.6484<172.249 366.938> 465.604 69.3965<172.302 366.381>
LayerCount: 2
Fore
SplineSet
110.401367188 263.731445312 m 4
 130.506835938 416.8203125 250.841796875 541.203125 378.841796875 541.203125 c 4
 506.841796875 541.203125 594.506835938 416.8203125 574.401367188 263.731445312 c 4
 554.296875 110.643554688 433.9609375 -13.740234375 305.9609375 -13.740234375 c 4
 177.9609375 -13.740234375 90.296875 110.643554688 110.401367188 263.731445312 c 4
451.3671875 436.439453125 m 5
 428.524414062 455.639648438 399.9140625 466.763671875 367.69140625 466.763671875 c 4
 277.220703125 466.763671875 192.198242188 379.073242188 178.0234375 271.145507812 c 4
 172.29296875 227.510742188 178.670898438 184.580078125 194.280273438 148.916992188 c 5
 451.3671875 436.439453125 l 5
488.716796875 388.186523438 m 5
 228.510742188 97.171875 l 5
 251.41796875 73.8037109375 280.72265625 59.599609375 314.219726562 59.599609375 c 4
 404.690429688 59.599609375 491.805664062 163.21875 505.978515625 271.145507812 c 4
 511.740234375 315.01171875 504.91796875 355.53515625 488.716796875 388.186523438 c 5
EndSplineSet
EndChar

StartChar: one
Encoding: 49 49 18
Width: 600
GlyphClass: 2
Flags: HW
LayerCount: 2
Fore
SplineSet
456.005859375 560 m 1
 356.82421875 -1 l 1
 275.82421875 -1 l 1
 357.198242188 459 l 1
 204.616210938 416 l 1
 193.549804688 461 l 1
 400.005859375 560 l 1
 456.005859375 560 l 1
EndSplineSet
EndChar

StartChar: two
Encoding: 50 50 19
Width: 600
GlyphClass: 2
Flags: HW
HStem: 0.00292969 81<274.591 518.998> 0.00292969 72.999<213.997 518.647> 475.45 71.5596<210.654 379.057>
VStem: 431.225 80.3066<302.111 426.812>
LayerCount: 2
Fore
SplineSet
163.418945312 445 m 5x70
 215.204101562 504.719726562 299.362304688 547.009765625 381.293945312 547.009765625 c 4
 499.162109375 547.009765625 578.150390625 465.693359375 560.755859375 353.1953125 c 4
 544.390625 247.357421875 426.21875 194.250976562 376.744140625 169 c 4
 336.813476562 148.619140625 278.168945312 120 219.8984375 73.001953125 c 5x70
 496.58984375 71.001953125 l 6
 501.874023438 71.001953125 504.396484375 71.7431640625 509.723632812 75.7958984375 c 4
 512.453125 77.873046875 519.000976562 83.498046875 526.13671875 81.0029296875 c 5
 513.61328125 0.0029296875 l 5xb0
 89.61328125 0.0029296875 l 5
 97.4990234375 51.0029296875 l 5
 155.241210938 114 234.334960938 170.0546875 291.846679688 202 c 4
 364.83984375 242.543945312 469.17578125 280.280273438 481.229492188 358.24609375 c 4
 493.228515625 435.848632812 437.606445312 475.450195312 360.680664062 475.450195312 c 4
 295.1328125 475.450195312 225.78515625 430.225585938 198.151367188 398 c 5
 163.418945312 445 l 5x70
EndSplineSet
EndChar

StartChar: three
Encoding: 51 51 20
Width: 600
GlyphClass: 2
Flags: HW
LayerCount: 2
Fore
SplineSet
552.494140625 362.353515625 m 0
 540.1171875 292.158203125 485.92578125 230.130859375 416.883789062 205.999023438 c 1
 486.963867188 178.626953125 523.1953125 105.532226562 508.046875 19.6240234375 c 0
 488.266601562 -92.5556640625 386.889648438 -191.19140625 248.5703125 -191.19140625 c 0
 176.262695312 -191.19140625 112.271484375 -162.8359375 73.3408203125 -109.000976562 c 1
 147.212890625 -36.0009765625 l 1
 155.646484375 -46.537109375 148.509765625 -57.767578125 156.393554688 -68.8544921875 c 0
 160.505859375 -74.634765625 193.534179688 -117.740234375 260.796875 -117.740234375 c 0
 345.325195312 -117.740234375 418.07421875 -49.8466796875 432.057617188 29.447265625 c 0
 447.23046875 115.504882812 384.389648438 166.577148438 286.622070312 166.577148438 c 0
 274.352539062 166.577148438 261.939453125 165.708984375 249.479492188 163.998046875 c 1
 260.940429688 228.998046875 l 1
 329.46875 229.1484375 364.53515625 241.74609375 378.211914062 247.321289062 c 0
 432.061523438 269.272460938 467.490234375 316.944335938 475.24609375 360.928710938 c 0
 486 421.916015625 443.666015625 473.423828125 369.572265625 473.423828125 c 0
 324.926757812 473.423828125 275.30859375 454.090820312 235.267578125 417.999023438 c 1
 199.083984375 467.999023438 l 1
 253.126953125 517.502929688 321.076171875 545.2890625 386.204101562 545.2890625 c 0
 500.3984375 545.2890625 569.873046875 460.911132812 552.494140625 362.353515625 c 0
EndSplineSet
EndChar

StartChar: four
Encoding: 52 52 21
Width: 600
GlyphClass: 2
Flags: HW
LayerCount: 2
Fore
SplineSet
460.484375 536 m 5
 528.485351562 536 l 5
 448.78515625 84 l 5
 541.78515625 84 l 5
 529.08984375 12 l 5
 436.08984375 12 l 5
 401.000976562 -187 l 5
 317.000976562 -187 l 5
 352.266601562 13 l 5
 61.2666015625 13 l 5
 71.845703125 73 l 5
 460.484375 536 l 5
422.739257812 407 m 5
 153.78515625 84 l 5
 365.78515625 84 l 5
 422.739257812 407 l 5
EndSplineSet
EndChar

StartChar: five
Encoding: 53 53 22
Width: 600
GlyphClass: 2
Flags: HW
LayerCount: 2
Fore
SplineSet
221.307617188 542 m 5
 587.307617188 541.999023438 l 5
 574.435546875 468.999023438 l 5
 276.435546875 468.999023438 l 5
 228.758789062 260.999023438 l 5
 269.458984375 279.66015625 311.4375 289.012695312 351.310546875 289.012695312 c 4
 472.201171875 289.012695312 554.546875 202.828125 527.293945312 48.2666015625 c 4
 499.69921875 -108.229492188 381.501953125 -193.016601562 256.690429688 -193.016601562 c 4
 170.890625 -193.016601562 97.6962890625 -152.67578125 62.2783203125 -82 c 5
 143.80078125 -28 l 5
 152.46875 -35.072265625 144.509765625 -46.484375 147.62109375 -55.3125 c 4
 150.297851562 -62.90625 190.249023438 -122.013671875 268.213867188 -122.013671875 c 4
 345.723632812 -122.013671875 424.97265625 -61.236328125 444.551757812 49.806640625 c 4
 464.840820312 164.869140625 403.17578125 222.107421875 327.163085938 222.107421875 c 4
 277.858398438 222.107421875 222.475585938 197.881835938 179.893554688 154 c 5
 131.595703125 175 l 5
 221.307617188 542 l 5
EndSplineSet
EndChar

StartChar: six
Encoding: 54 54 23
Width: 600
GlyphClass: 2
Flags: W
LayerCount: 2
Fore
SplineSet
471.71875 730 m 0
 529.71875 730 583.485351562 706 618.080078125 664 c 1
 551.147460938 602 l 1
 541.559570312 610 544.499023438 621 538.733398438 628 c 0
 534.615234375 633 507.0234375 658 459.0234375 658 c 0
 407.0234375 658 282.381835938 626 234.829101562 379 c 1
 276.3515625 433 340.169921875 466 403.169921875 466 c 0
 505.169921875 466 586.005859375 380 559.556640625 230 c 0
 533.283203125 81 420.884765625 -12 310.884765625 -12 c 0
 246.884765625 -12 187.526367188 20 156.8125 84 c 0
 123.154296875 154 131.0234375 244 146.012695312 329 c 0
 158.178710938 398 178.989257812 482 216.15625 551 c 0
 282.373046875 677 385.71875 730 471.71875 730 c 0
382.6484375 395 m 0
 329.6484375 395 267.94921875 357 224.545898438 298 c 0
 221.958984375 289 220.37109375 280 218.784179688 271 c 0
 197.44921875 150 244.580078125 60 326.580078125 60 c 0
 388.580078125 60 459.924804688 113 479.673828125 225 c 0
 501.71484375 350 440.6484375 395 382.6484375 395 c 0
EndSplineSet
EndChar

StartChar: seven
Encoding: 55 55 24
Width: 600
GlyphClass: 2
Flags: HW
LayerCount: 2
Fore
SplineSet
188.307617188 538 m 1
 597.30859375 537.999023438 l 1
 589.372070312 492.999023438 l 1
 520.819335938 381.326171875 455.19140625 268.265625 392.598632812 154 c 0
 331.477539062 42.4248046875 273.247070312 -70.2998046875 217.999023438 -184 c 1
 126.999023438 -184 l 1
 192.67578125 -54.2158203125 261.390625 74.5029296875 333.060546875 202 c 0
 381.920898438 288.91796875 432.153320312 375.267578125 483.729492188 461 c 1
 174.729492188 461 l 1
 188.307617188 538 l 1
EndSplineSet
EndChar

StartChar: eight
Encoding: 56 56 25
Width: 600
GlyphClass: 2
Flags: W
LayerCount: 2
Fore
SplineSet
438.127929688 731.060546875 m 0
 544.080078125 731.060546875 612.732421875 655.220703125 595.956054688 560.080078125 c 0
 583.690429688 490.518554688 526.530273438 422.755859375 450.060546875 386 c 1
 524.837890625 348.44921875 569.215820312 271.387695312 554.2265625 186.380859375 c 0
 534.830078125 76.380859375 423.796875 -12.0625 296.993164062 -12.0625 c 0
 172.647460938 -12.0625 92.8896484375 73.990234375 111.856445312 181.557617188 c 0
 126.547851562 264.874023438 198.916015625 343.716796875 291.708984375 384.000976562 c 1
 232.407226562 417.287109375 198.951171875 482.052734375 211.473632812 553.06640625 c 0
 228.625 650.3359375 327.622070312 731.060546875 438.127929688 731.060546875 c 0
346.888671875 350.999023438 m 1
 273.140625 322.470703125 208.9296875 260.53515625 196.897460938 192.303710938 c 0
 184.088867188 119.654296875 235.030273438 60.994140625 313.577148438 60.994140625 c 0
 390.762695312 60.994140625 459.98828125 117.608398438 472.264648438 187.22265625 c 0
 484.705078125 257.77734375 434.614257812 321.690429688 346.888671875 350.999023438 c 1
419.90625 663.015625 m 0
 356.892578125 663.015625 300.69140625 616.893554688 290.65625 559.981445312 c 0
 273.83203125 464.567382812 392.172851562 414.999023438 392.172851562 414.999023438 c 1
 453.754882812 445.250976562 506.01171875 499.153320312 515.80859375 554.723632812 c 0
 526.439453125 615.014648438 484.444335938 663.015625 419.90625 663.015625 c 0
EndSplineSet
EndChar

StartChar: nine
Encoding: 57 57 26
Width: 600
GlyphClass: 2
Flags: HWO
LayerCount: 2
Fore
SplineSet
228.883789062 -192 m 4
 168.883789062 -192 116.1171875 -168 80.5224609375 -126 c 5
 147.455078125 -64 l 5
 158.043945312 -72 152.928710938 -84 161.517578125 -92 c 5
 161.517578125 -92 191.93359375 -118 243.93359375 -118 c 4
 295.93359375 -118 360.517578125 -92 404.389648438 -19 c 4
 414.5625 -1 442.202148438 48 464.951171875 160 c 5
 422.3125 111 362.197265625 82 302.197265625 82 c 4
 197.197265625 82 119.891601562 171 144.400390625 310 c 4
 169.0859375 450 280.541992188 549 393.541992188 549 c 4
 468.541992188 549 543.431640625 503 561.858398438 392 c 4
 570.21875 343 567.287109375 281 551.241210938 190 c 4
 530.435546875 72 500.326171875 9 482.506835938 -24 c 4
 418.228515625 -139 316.883789062 -192 228.883789062 -192 c 4
322.717773438 153 m 4
 374.717773438 153 433.7109375 187 475.232421875 241 c 5
 478.349609375 253 481.465820312 265 483.405273438 276 c 4
 505.446289062 401 453.84765625 477 378.84765625 477 c 4
 312.84765625 477 242.443359375 418 223.930664062 313 c 4
 205.0625 206 258.717773438 153 322.717773438 153 c 4
EndSplineSet
EndChar

StartChar: colon
Encoding: 58 58 27
Width: 600
GlyphClass: 2
Flags: W
LayerCount: 2
Fore
SplineSet
429.67578125 423.493164062 m 0
 423.2421875 387.008789062 387.493164062 356.954101562 349.381835938 356.954101562 c 0
 311.35546875 356.954101562 286.1875 386.98046875 292.627929688 423.508789062 c 0
 299.0546875 459.962890625 334.784179688 490.001953125 372.862304688 490.001953125 c 0
 410.95703125 490.001953125 436.10546875 459.9609375 429.67578125 423.493164062 c 0
364.434570312 53.4931640625 m 0
 358.000976562 17.0087890625 322.251953125 -13.0458984375 284.140625 -13.0458984375 c 0
 246.114257812 -13.0458984375 220.946289062 16.98046875 227.38671875 53.5087890625 c 0
 233.814453125 89.962890625 269.54296875 120.001953125 307.62109375 120.001953125 c 0
 345.715820312 120.001953125 370.864257812 89.9609375 364.434570312 53.4931640625 c 0
EndSplineSet
EndChar

StartChar: semicolon
Encoding: 59 59 28
Width: 600
GlyphClass: 2
Flags: W
LayerCount: 2
Fore
SplineSet
368.178710938 22.8349609375 m 0
 357.541015625 -37.494140625 301.771484375 -113.056640625 206.616210938 -195 c 1
 172.788085938 -160 l 1
 204.725585938 -134.725585938 229.166992188 -106.529296875 243.764648438 -87.93359375 c 0
 251.061523438 -78.6376953125 266.052734375 -58.833984375 269.434570312 -39.658203125 c 0
 273.640625 -15.802734375 258.446289062 -5.1328125 249.559570312 1.5625 c 0
 240.5234375 8.37109375 220.797851562 21.6943359375 226.291992188 52.8525390625 c 0
 232.462890625 87.849609375 266.506835938 118.9296875 304.642578125 118.9296875 c 0
 345.857421875 118.9296875 378.634765625 82.1328125 368.178710938 22.8349609375 c 0
429.67578125 423.493164062 m 0
 423.2421875 387.008789062 387.493164062 356.954101562 349.381835938 356.954101562 c 0
 311.35546875 356.954101562 286.1875 386.98046875 292.627929688 423.508789062 c 0
 299.0546875 459.962890625 334.784179688 490.001953125 372.862304688 490.001953125 c 0
 410.95703125 490.001953125 436.10546875 459.9609375 429.67578125 423.493164062 c 0
EndSplineSet
EndChar

StartChar: less
Encoding: 60 60 29
Width: 600
GlyphClass: 2
Flags: W
LayerCount: 2
Fore
SplineSet
642.387695312 575 m 1
 204.240234375 370 l 1
 569.037109375 142 l 1
 553.697265625 55 l 1
 110.479492188 343 l 1
 120.353515625 399 l 1
 656.846679688 657 l 1
 642.387695312 575 l 1
EndSplineSet
EndChar

StartChar: equal
Encoding: 61 61 30
Width: 600
GlyphClass: 2
Flags: W
LayerCount: 2
Fore
SplineSet
151.57421875 508 m 1
 627.57421875 508 l 1
 615.0546875 437 l 1
 139.0546875 437 l 1
 151.57421875 508 l 1
109.255859375 268 m 1
 585.255859375 268 l 1
 572.736328125 197 l 1
 96.736328125 197 l 1
 109.255859375 268 l 1
EndSplineSet
EndChar

StartChar: greater
Encoding: 62 62 31
Width: 600
GlyphClass: 2
Flags: W
LayerCount: 2
Fore
SplineSet
160.387695312 575 m 1
 174.846679688 657 l 1
 620.353515625 399 l 1
 610.479492188 343 l 1
 65.697265625 55 l 1
 81.037109375 142 l 1
 526.240234375 370 l 1
 160.387695312 575 l 1
EndSplineSet
EndChar

StartChar: question
Encoding: 63 63 32
Width: 600
GlyphClass: 2
Flags: W
LayerCount: 2
Fore
SplineSet
390.08203125 51.4931640625 m 0
 383.6484375 15.0087890625 347.899414062 -15.0458984375 309.788085938 -15.0458984375 c 0
 271.76171875 -15.0458984375 246.59375 14.98046875 253.034179688 51.5087890625 c 0
 259.461914062 87.962890625 295.188476562 118.001953125 333.268554688 118.001953125 c 0
 371.362304688 118.001953125 396.51171875 87.9609375 390.08203125 51.4931640625 c 0
198.612304688 650 m 1
 262.736328125 727.69140625 356.598632812 771.060546875 443.362304688 771.060546875 c 0
 574.659179688 771.060546875 632.198242188 674.633789062 613.155273438 566.639648438 c 0
 593.95703125 457.756835938 509.588867188 413.666992188 465.353515625 379.676757812 c 0
 410.163085938 337.26953125 401.399414062 302.8359375 394.198242188 262.000976562 c 2
 385.735351562 214.000976562 l 1
 309.735351562 214.000976562 l 1
 318.198242188 262.000976562 l 2
 327.370117188 314.014648438 337.823242188 354.806640625 398.922851562 411.013671875 c 0
 440.725585938 449.46875 509.17578125 496.796875 522.561523438 572.709960938 c 0
 534.634765625 641.182617188 491.522460938 695.153320312 422.208007812 695.153320312 c 0
 363.620117188 695.153320312 295.232421875 656.112304688 247.9140625 595 c 1
 198.612304688 650 l 1
EndSplineSet
EndChar

StartChar: at
Encoding: 64 64 33
Width: 600
GlyphClass: 2
Flags: W
LayerCount: 2
Fore
SplineSet
520.171875 35 m 1
 465.705078125 4 406.708007812 -13 349.708007812 -13 c 0
 204.708007812 -13 62.7509765625 95 110.182617188 364 c 0
 156.556640625 627 327.248046875 733 453.248046875 733 c 0
 537.248046875 733 607.13671875 687 629.677734375 605 c 0
 644.803710938 549 635.9296875 493 626.23046875 438 c 2
 584.793945312 203 l 1
 514.793945312 203 l 1
 522.552734375 247 l 1
 487.557617188 213 442.030273438 193 397.030273438 193 c 0
 314.030273438 193 258.844726562 260 273.655273438 344 c 0
 284.587890625 406 333.51953125 468 410.633789062 497 c 0
 459.807617188 515 505.807617188 515 549.807617188 515 c 2
 566.807617188 515 l 1
 581.971679688 601 526.313476562 671 439.313476562 671 c 0
 339.313476562 671 214.5625 576 177.7109375 367 c 0
 137.861328125 141 255.345703125 53 367.345703125 53 c 0
 412.345703125 53 457.637695312 66 499.045898438 91 c 1
 520.171875 35 l 1
559.581054688 457 m 1
 540.58203125 457 l 2
 499.58203125 457 450.58203125 457 406.821289062 430 c 0
 371.942382812 408 351.477539062 377 346.1875 347 c 0
 337.370117188 297 371.317382812 257 422.317382812 257 c 0
 455.317382812 257 492.491210938 275 516.662109375 310 c 0
 538.3046875 342 546.004882812 380 553.233398438 421 c 0
 554.115234375 426 554.8203125 430 555.702148438 435 c 2
 559.581054688 457 l 1
EndSplineSet
EndChar

StartChar: A
Encoding: 65 65 34
Width: 600
GlyphClass: 2
Flags: W
LayerCount: 2
Fore
SplineSet
26.8232421875 -1 m 1
 411.600585938 735 l 1
 420.600585938 735 l 1
 570 0 l 1
 486 0 l 1
 443.205078125 211 l 1
 214.205078125 211 l 1
 106.823242188 -1 l 1
 26.8232421875 -1 l 1
436.3125 274 m 1
 382.803710938 549 l 1
 241.3125 274 l 1
 436.3125 274 l 1
EndSplineSet
EndChar

StartChar: B
Encoding: 66 66 35
Width: 600
GlyphClass: 2
Flags: W
LayerCount: 2
Fore
SplineSet
193.307617188 722 m 1
 398.309570312 721.999023438 l 2
 442.708984375 721.999023438 487.92578125 721.499023438 529.63671875 701.85546875 c 0
 592.279296875 672.353515625 618.647460938 610.489257812 607.20703125 545.609375 c 0
 595.001953125 476.390625 541.688476562 413.432617188 472.23828125 387 c 1
 548.325195312 359.735351562 589.196289062 283.98046875 574.37109375 199.903320312 c 0
 561.25 125.489257812 506.072265625 54.7900390625 422.55078125 21.7724609375 c 0
 368.918945312 0.5703125 319.110351562 0 270 0 c 2
 66 0 l 1
 193.307617188 722 l 1
261.143554688 652.999023438 m 1
 220.586914062 422.999023438 l 1
 333.586914062 422.999023438 l 2
 365.731445312 422.999023438 400.337890625 423.130859375 436.109375 437.513671875 c 0
 485.040039062 457.1875 516.791992188 496.92578125 524.05859375 538.13671875 c 0
 531.383789062 579.682617188 513.225585938 620.584960938 468.759765625 639.923828125 c 0
 438.956054688 652.885742188 405.977539062 652.999023438 375.143554688 652.999023438 c 2
 261.143554688 652.999023438 l 1
208.596679688 354.999023438 m 1
 158.520507812 70.9990234375 l 1
 296.520507812 70.9990234375 l 2
 327.724609375 70.9990234375 358.420898438 71.5458984375 392.079101562 85.595703125 c 0
 445.935546875 108.077148438 481.922851562 156.377929688 491.025390625 208.008789062 c 0
 500.233398438 260.225585938 480.899414062 311.752929688 431.79296875 337.188476562 c 0
 398.76953125 354.294921875 363.069335938 354.999023438 326.596679688 354.999023438 c 2
 208.596679688 354.999023438 l 1
EndSplineSet
EndChar

StartChar: C
Encoding: 67 67 36
Width: 600
GlyphClass: 2
Flags: W
LayerCount: 2
Fore
SplineSet
459.984375 728 m 0
 555.908203125 728 632.676757812 672.041015625 656.15234375 584.999023438 c 1
 572.452148438 546.999023438 l 1
 567.780273438 550.735351562 568.935546875 557.018554688 569.174804688 558.375 c 0
 569.682617188 561.256835938 570.682617188 564.141601562 571.189453125 567.015625 c 0
 572.138671875 572.40234375 570.975585938 575.395507812 569.375976562 579.3671875 c 0
 549.109375 629.698242188 502.333007812 663.166992188 445.818359375 663.166992188 c 0
 343.751953125 663.166992188 233.987304688 555.778320312 200.166015625 363.96875 c 0
 165.759765625 168.838867188 239.645507812 57.994140625 345.8828125 57.994140625 c 0
 402.544921875 57.994140625 465.729492188 90.884765625 508.745117188 146 c 1
 561.868164062 107 l 1
 503.509765625 32.978515625 415.1015625 -12.001953125 328.993164062 -12.001953125 c 0
 210.0625 -12.001953125 70.6943359375 77.8505859375 119.881835938 356.806640625 c 0
 170.846679688 645.837890625 347.693359375 728 459.984375 728 c 0
EndSplineSet
EndChar

StartChar: D
Encoding: 68 68 37
Width: 600
GlyphClass: 2
Flags: W
LayerCount: 2
Fore
SplineSet
199.307617188 722 m 1
 368.307617188 722 l 2
 431.984375 722 483.147460938 717.43359375 529.587890625 683.299804688 c 0
 611.795898438 622.875976562 631.55859375 501.212890625 607.046875 362.19921875 c 0
 579.1875 204.202148438 501.016601562 81.193359375 388.125 27.978515625 c 0
 332.611328125 1.810546875 284.21484375 -1 226.823242188 -1 c 2
 71.8232421875 -1 l 1
 199.307617188 722 l 1
264.141601562 653 m 1
 160.107421875 63 l 1
 234.107421875 63 l 2
 279.505859375 63 324.202148438 65.01953125 374.853515625 95.5625 c 0
 439.404296875 134.48828125 499.032226562 213.696289062 523.30078125 351.331054688 c 0
 541.583984375 455.016601562 537.2890625 557.73828125 480.000976562 613.3515625 c 0
 441.846679688 650.389648438 396.6328125 653 351.141601562 653 c 2
 264.141601562 653 l 1
EndSplineSet
EndChar

StartChar: E
Encoding: 69 69 38
Width: 600
GlyphClass: 2
Flags: W
LayerCount: 2
Fore
SplineSet
205.484375 723 m 1
 648.484375 723 l 1
 635.7890625 651 l 1
 269.7890625 651 l 1
 227.999023438 414 l 1
 529.999023438 414 l 1
 516.951171875 340 l 1
 214.951171875 340 l 1
 167.6953125 72 l 1
 530.6953125 72 l 1
 518 0 l 1
 78 0 l 1
 205.484375 723 l 1
EndSplineSet
EndChar

StartChar: F
Encoding: 70 70 39
Width: 600
GlyphClass: 2
Flags: W
LayerCount: 2
Fore
SplineSet
227.484375 723 m 1
 643.483398438 723 l 1
 630.96484375 652 l 1
 296.96484375 652 l 1
 256.938476562 425 l 1
 526.938476562 425 l 1
 514.595703125 355 l 1
 244.595703125 355 l 1
 182 0 l 1
 100 0 l 1
 227.484375 723 l 1
EndSplineSet
EndChar

StartChar: G
Encoding: 71 71 40
Width: 600
GlyphClass: 2
Flags: W
LayerCount: 2
Fore
SplineSet
459.801757812 729.021484375 m 0
 548.756835938 729.021484375 620.122070312 682.819335938 648.208007812 607.999023438 c 1
 580.98046875 549.999023438 l 1
 572.940429688 555.814453125 571.748046875 564.987304688 569.565429688 572.77734375 c 0
 556.014648438 621.162109375 511.228515625 658.067382812 446.7890625 658.067382812 c 0
 385.966796875 658.067382812 315.721679688 624.732421875 266.109375 554.633789062 c 0
 228.490234375 501.478515625 208.997070312 436.709960938 197.141601562 369.474609375 c 0
 183.693359375 293.212890625 174.305664062 191.911132812 222.470703125 123.215820312 c 0
 253.84765625 78.4619140625 301.9140625 59.9970703125 348.625 59.9970703125 c 0
 391.6484375 59.9970703125 440.732421875 75.1279296875 486.338867188 104 c 1
 516.666992188 276 l 1
 385.666992188 276 l 1
 398.009765625 346 l 1
 604.009765625 346 l 1
 554.286132812 64 l 1
 477.383789062 13.8818359375 395.814453125 -11.048828125 328.936523438 -11.048828125 c 0
 202.942382812 -11.048828125 65.8359375 79.109375 114.01953125 352.37109375 c 0
 169.87890625 669.165039062 363.78125 729.021484375 459.801757812 729.021484375 c 0
EndSplineSet
EndChar

StartChar: H
Encoding: 72 72 41
Width: 600
GlyphClass: 2
Flags: W
LayerCount: 2
Fore
SplineSet
200.307617188 722 m 1
 290.307617188 722 l 2
 290.83984375 720.356445312 290.948242188 718.529296875 290.619140625 716.663085938 c 0
 289.01171875 707.548828125 281.553710938 706.379882812 279.37109375 694 c 2
 229.823242188 413 l 1
 512.823242188 413 l 1
 567.309570312 722 l 1
 655.309570312 722 l 2
 655.924804688 720.544921875 656.092773438 718.865234375 655.788085938 717.137695312 c 0
 654.240234375 708.364257812 645.841796875 708.005859375 643.724609375 696 c 2
 520.823242188 -1 l 1
 438.823242188 -1 l 1
 499.65625 344 l 1
 217.65625 344 l 1
 157 0 l 1
 73 0 l 1
 200.307617188 722 l 1
EndSplineSet
EndChar

StartChar: I
Encoding: 73 73 42
Width: 600
GlyphClass: 2
Flags: W
LayerCount: 2
Fore
SplineSet
239.307617188 722 m 1
 597.30859375 722 l 1
 585.317382812 654 l 1
 442.31640625 654 l 1
 338.637695312 66 l 1
 488.637695312 66 l 1
 476.822265625 -1 l 1
 103.822265625 -1 l 1
 115.8125 67 l 1
 257.8125 67 l 1
 361.31640625 654 l 1
 227.31640625 654 l 1
 239.307617188 722 l 1
EndSplineSet
EndChar

StartChar: J
Encoding: 74 74 43
Width: 600
GlyphClass: 2
Flags: W
LayerCount: 2
Fore
SplineSet
336.307617188 722 m 1
 666.30859375 722 l 1
 654.317382812 654 l 1
 543.317382812 654 l 1
 470.669921875 242 l 2
 461.500976562 190 451.802734375 135 414.633789062 83 c 0
 369.702148438 21 301.70703125 -13 232.70703125 -13 c 0
 169.70703125 -13 112.8203125 16 78.8125 67 c 1
 144.450195312 133 l 1
 150.393554688 127 143.981445312 119 147.748046875 112 c 0
 150.21875 109 186.401367188 59 247.401367188 59 c 0
 281.401367188 59 316.3984375 76 340.513671875 105 c 0
 372.217773438 142.241210938 381.333007812 189.018554688 388.842773438 231.610351562 c 2
 390.494140625 241 l 1
 463.31640625 654 l 1
 324.31640625 654 l 1
 336.307617188 722 l 1
EndSplineSet
EndChar

StartChar: K
Encoding: 75 75 44
Width: 600
GlyphClass: 2
Flags: W
LayerCount: 2
Fore
SplineSet
186.484375 723 m 1
 283.481445312 723 l 1
 283.071289062 715 277.189453125 710 273.484375 706 c 0
 268.602539062 701 268.073242188 698 267.19140625 693 c 2
 213.588867188 389 l 1
 575.364257812 728 l 1
 594.482421875 723 614.307617188 722 634.307617188 722 c 2
 664.307617188 722 l 1
 336.29296875 410 l 1
 555.822265625 -1 l 1
 498.822265625 -1 452.1171875 -5 452.1171875 -5 c 1
 265.653320312 361 l 1
 197.721679688 299 l 1
 145 0 l 1
 59 0 l 1
 186.484375 723 l 1
EndSplineSet
EndChar

StartChar: L
Encoding: 76 76 45
Width: 600
GlyphClass: 2
Flags: W
LayerCount: 2
Fore
SplineSet
214.307617188 722 m 1
 308.306640625 721.999023438 l 1
 308.10546875 713.76171875 303.33984375 707.036132812 301.05078125 703.775390625 c 0
 296.491210938 697.27734375 293.276367188 693.46875 291.431640625 683 c 2
 183.166992188 69 l 1
 531.166992188 69 l 1
 518.823242188 -1 l 1
 86.8232421875 -1 l 1
 214.307617188 722 l 1
EndSplineSet
EndChar

StartChar: M
Encoding: 77 77 46
Width: 600
GlyphClass: 2
Flags: W
LayerCount: 2
Fore
SplineSet
184.307617188 722 m 1
 248.30859375 722 l 1
 365.064453125 369 l 1
 609.484375 723 l 1
 670.484375 723 l 1
 542.823242188 -1 l 1
 465.823242188 -1 l 1
 562.099609375 545 l 1
 354.787109375 254 l 1
 323.787109375 254 l 1
 228.393554688 541 l 1
 132.823242188 -1 l 1
 56.8232421875 -1 l 1
 184.307617188 722 l 1
EndSplineSet
EndChar

StartChar: N
Encoding: 78 78 47
Width: 600
GlyphClass: 2
Flags: W
LayerCount: 2
Fore
SplineSet
68 0 m 1
 195.307617188 722 l 1
 274.307617188 722 l 1
 482.97265625 187 l 1
 577.483398438 723 l 1
 663.483398438 723 l 1
 663.224609375 716.254882812 659.228515625 710.682617188 657.499023438 708.219726562 c 0
 653.791015625 702.9375 651.439453125 700.057617188 650.01953125 692 c 2
 527.823242188 -1 l 1
 463.823242188 -1 l 1
 246.153320312 568 l 1
 146 0 l 1
 68 0 l 1
EndSplineSet
EndChar

StartChar: O
Encoding: 79 79 48
Width: 600
GlyphClass: 2
Flags: W
LayerCount: 2
Fore
SplineSet
619.3984375 359.50390625 m 0
 608.21875 296.094726562 587.80078125 206.2734375 535.75390625 128.645507812 c 0
 471.26171875 32.45703125 380.483398438 -11.0146484375 302.54296875 -11.0146484375 c 0
 192.034179688 -11.0146484375 57.8232421875 78.3984375 107.849609375 362.11328125 c 0
 157.88671875 645.883789062 324.799804688 730 432.478515625 730 c 0
 511.0703125 730 585.520507812 686.669921875 616.512695312 593.90234375 c 0
 642.2890625 516.748046875 631.309570312 427.049804688 619.3984375 359.50390625 c 0
415.681640625 654.010742188 m 0
 339.815429688 654.010742188 227.635742188 587.911132812 189.680664062 372.659179688 c 0
 149.194335938 143.052734375 235.606445312 67.9873046875 316.821289062 67.9873046875 c 0
 365.40234375 67.9873046875 426.184570312 95.4453125 471.984375 165.716796875 c 0
 512.548828125 227.951171875 528.267578125 301.614257812 536.603515625 348.897460938 c 0
 547.380859375 410.010742188 555.874023438 479.154296875 542.173828125 539.849609375 c 0
 523.282226562 623.543945312 466.91015625 654.010742188 415.681640625 654.010742188 c 0
EndSplineSet
EndChar

StartChar: P
Encoding: 80 80 49
Width: 600
GlyphClass: 2
Flags: W
LayerCount: 2
Fore
SplineSet
275.907226562 646 m 1
 229.768554688 390 l 1
 375.768554688 390 l 2
 403.768554688 390 431.943359375 391 462.412109375 405 c 0
 508.115234375 426 537.697265625 469 545.809570312 515 c 0
 554.096679688 562 539.208007812 608 498.086914062 630 c 0
 470.73046875 645 441.907226562 646 411.907226562 646 c 2
 275.907226562 646 l 1
205.30859375 722 m 1
 425.30859375 722 l 2
 472.30859375 722 516.1328125 721 557.900390625 697 c 0
 619.729492188 662 642.38671875 592 629.514648438 519 c 0
 616.642578125 446 569.299804688 376 496.3046875 342 c 0
 448.42578125 320 405.249023438 319 360.249023438 319 c 2
 218.249023438 319 l 1
 162.000976562 0 l 1
 78.0009765625 0 l 1
 205.30859375 722 l 1
EndSplineSet
EndChar

StartChar: Q
Encoding: 81 81 50
Width: 600
GlyphClass: 2
Flags: W
LayerCount: 2
Fore
SplineSet
415.670898438 656 m 0
 337.670898438 656 226.327148438 586 188.946289062 374 c 0
 148.567382812 145 232.28515625 64 316.28515625 64 c 0
 377.28515625 64 497.04296875 108 539.361328125 348 c 0
 550.118164062 409 558.4609375 479 544.392578125 541 c 0
 524.380859375 626 466.670898438 656 415.670898438 656 c 0
619.125 358 m 0
 607.83984375 294 587.1484375 205 535.571289062 128 c 0
 481.46484375 48 409.706054688 4 341.590820312 -8 c 1
 335.537109375 -48 338.25 -95 411.25 -95 c 0
 437.25 -95 468.955078125 -91 506.307617188 -89 c 1
 490.377929688 -168 l 1
 467.377929688 -168 l 1
 424.377929688 -168 l 2
 377.377929688 -168 343.729492188 -166 314.551757812 -150 c 0
 267.959960938 -125 258.423828125 -77 269.708984375 -13 c 0
 270.061523438 -11 270.236328125 -10 270.590820312 -8 c 1
 168.411132812 8 62.515625 105 107.831054688 362 c 0
 157.908203125 646 324.719726562 730 432.719726562 730 c 0
 511.719726562 730 586.9609375 686 617.38671875 592 c 0
 641.809570312 515 631.115234375 426 619.125 358 c 0
EndSplineSet
EndChar

StartChar: R
Encoding: 82 82 51
Width: 600
GlyphClass: 2
Flags: W
LayerCount: 2
Fore
SplineSet
202.307617188 722 m 1
 415.309570312 722.000976562 l 2
 461.9765625 722.000976562 507.372070312 720.951171875 549.015625 697.719726562 c 0
 609.5234375 663.965820312 633.318359375 596.481445312 620.534179688 523.979492188 c 0
 603.681640625 428.39453125 529.491210938 345.903320312 437.77734375 322 c 1
 548 0 l 1
 457 0 l 1
 353.248046875 319 l 1
 213.248046875 319 l 1
 157 0 l 1
 75 0 l 1
 202.307617188 722 l 1
270.908203125 646.000976562 m 1
 225.770507812 390.001953125 l 1
 365.770507812 390.001953125 l 2
 394.235351562 390.001953125 421.8828125 390.6796875 452.204101562 404.764648438 c 0
 497.764648438 425.927734375 527.692382812 468.9453125 535.811523438 514.987304688 c 0
 544.098632812 561.986328125 528.82421875 607.921875 487.794921875 630.500976562 c 0
 460.96875 645.263671875 432.073242188 646.000976562 401.908203125 646.000976562 c 2
 270.908203125 646.000976562 l 1
EndSplineSet
EndChar

StartChar: S
Encoding: 83 83 52
Width: 600
GlyphClass: 2
Flags: W
LayerCount: 2
Fore
SplineSet
626.143554688 636 m 1
 562.9765625 566.998046875 l 2
 560.578125 567.767578125 557.64453125 570.056640625 558.544921875 576.4765625 c 0
 559.142578125 580.736328125 560.150390625 583.15234375 557.87109375 587.624023438 c 0
 537.09765625 628.399414062 490.8046875 659.13671875 423.543945312 659.13671875 c 0
 340.888671875 659.13671875 284.249023438 608.65625 274.48828125 553.30078125 c 0
 269.284179688 523.78515625 275.08203125 480.956054688 329.274414062 445.618164062 c 0
 388.52734375 406.979492188 486.63671875 386.475585938 539.012695312 327.333007812 c 0
 576.704101562 284.774414062 578.711914062 234.350585938 572.048828125 196.565429688 c 0
 556.025390625 105.696289062 470.349609375 -12.0703125 294.61328125 -12.0703125 c 0
 205.516601562 -12.0703125 130.157226562 19.1650390625 84.2802734375 80.998046875 c 1
 146.916015625 163.998046875 l 1
 151.959960938 161.186523438 150.581054688 154.810546875 150.216796875 152.897460938 c 0
 149.30859375 148.116210938 148.491210938 145.186523438 151.30859375 140.596679688 c 0
 176.380859375 99.7109375 230.586914062 60.94921875 309.844726562 60.94921875 c 0
 414.666015625 60.94921875 479.526367188 129.107421875 490.603515625 191.928710938 c 0
 496.297851562 224.217773438 489.725585938 261.930664062 447.603515625 291.611328125 c 0
 399.065429688 325.811523438 299.254882812 350.796875 241.083984375 400.176757812 c 0
 188.721679688 444.626953125 181.76953125 498.90625 189.19140625 541.00390625 c 0
 206.603515625 639.749023438 311.376953125 726.0078125 441.774414062 726.0078125 c 0
 520.479492188 726.0078125 587.489257812 694.098632812 626.143554688 636 c 1
EndSplineSet
EndChar

StartChar: T
Encoding: 84 84 53
Width: 600
GlyphClass: 2
Flags: W
LayerCount: 2
Fore
SplineSet
173.484375 723 m 1
 673.484375 723 l 1
 660.612304688 650 l 1
 447.612304688 650 l 1
 332.823242188 -1 l 1
 250.823242188 -1 l 1
 365.612304688 650 l 1
 160.612304688 650 l 1
 173.484375 723 l 1
EndSplineSet
EndChar

StartChar: U
Encoding: 85 85 54
Width: 600
GlyphClass: 2
Flags: W
LayerCount: 2
Fore
SplineSet
195.307617188 722 m 1
 286.30859375 721.998046875 l 2
 286.775390625 720.161132812 286.833007812 718.169921875 286.4765625 716.1484375 c 0
 285.256835938 709.233398438 279.852539062 704.49609375 276.033203125 700.193359375 c 0
 270.698242188 694.180664062 269.711914062 690.264648438 268.783203125 684.999023438 c 2
 191.728515625 247.999023438 l 2
 185.405273438 212.140625 179.9375 177.153320312 190.299804688 141.576171875 c 0
 206.47265625 86.05078125 255.665039062 55.9189453125 312.927734375 55.9189453125 c 0
 369.2734375 55.9189453125 428.830078125 85.341796875 465.249023438 140.546875 c 0
 489.484375 177.286132812 496.6796875 213.69140625 503.2578125 250.998046875 c 2
 586.30859375 721.998046875 l 1
 663.30859375 721.998046875 l 1
 580.609375 252.998046875 l 2
 571.298828125 200.190429688 560.887695312 150.171875 524.684570312 99.8125 c 0
 470.270507812 24.1240234375 382.603515625 -13.07421875 299.155273438 -13.07421875 c 0
 213.958984375 -13.07421875 140.55859375 24.9765625 113.634765625 99.2158203125 c 0
 95.6484375 148.813476562 102.904296875 197.959960938 111.904296875 249 c 2
 195.307617188 722 l 1
EndSplineSet
EndChar

StartChar: V
Encoding: 86 86 55
Width: 600
GlyphClass: 2
Flags: W
LayerCount: 2
Fore
SplineSet
166.484375 723 m 1
 251.484375 723 l 1
 338.623046875 168 l 1
 611.309570312 722 l 1
 691.309570312 722 l 1
 321.118164062 -5 l 1
 284.118164062 -5 l 1
 166.484375 723 l 1
EndSplineSet
EndChar

StartChar: W
Encoding: 87 87 56
Width: 600
GlyphClass: 2
Flags: W
LayerCount: 2
Fore
SplineSet
157.307617188 722 m 1
 232.306640625 722 l 1
 224.259765625 234 l 1
 416.961914062 669 l 1
 441.961914062 669 l 1
 481.907226562 232 l 1
 634.30859375 722 l 1
 702.30859375 722 l 1
 460.1171875 -5 l 1
 428.1171875 -5 l 1
 388.2265625 472 l 1
 178.1171875 -5 l 1
 145.1171875 -5 l 1
 157.307617188 722 l 1
EndSplineSet
EndChar

StartChar: X
Encoding: 88 88 57
Width: 600
GlyphClass: 2
Flags: W
LayerCount: 2
Fore
SplineSet
576.484375 723 m 1
 657.483398438 723 l 1
 412.547851562 370.083984375 l 1
 552 0 l 1
 461 0 l 1
 350.930664062 286.15625 l 1
 146 0 l 1
 57 0 l 1
 319.365234375 368.201171875 l 1
 188.484375 723 l 1
 275.484375 723 l 1
 379.247070312 448.564453125 l 1
 576.484375 723 l 1
EndSplineSet
EndChar

StartChar: Y
Encoding: 89 89 58
Width: 600
GlyphClass: 2
Flags: W
LayerCount: 2
Fore
SplineSet
170.484375 723 m 1
 262.483398438 723 l 1
 377.59375 372 l 1
 599.30859375 722 l 1
 685.30859375 722 l 1
 403.252929688 285 l 1
 353 0 l 1
 265 0 l 1
 315.252929688 285 l 1
 170.484375 723 l 1
EndSplineSet
EndChar

StartChar: Z
Encoding: 90 90 59
Width: 600
GlyphClass: 2
Flags: W
LayerCount: 2
Fore
SplineSet
209.307617188 722 m 1
 655.307617188 722 l 1
 644.256835938 665 l 1
 182.518554688 71 l 1
 523.518554688 71 l 2
 537.518554688 71 544.752929688 78 555.752929688 78 c 2
 559.752929688 78 l 1
 545.822265625 -1 l 1
 67.822265625 -1 l 1
 77.873046875 56 l 1
 546.436523438 649 l 1
 196.436523438 649 l 1
 209.307617188 722 l 1
EndSplineSet
EndChar

StartChar: bracketleft
Encoding: 91 91 60
Width: 600
GlyphClass: 2
Flags: W
LayerCount: 2
Fore
SplineSet
298.830078125 776 m 1
 629.829101562 776 l 1
 617.662109375 707 l 1
 360.662109375 707 l 1
 229.475585938 -37 l 1
 487.475585938 -37 l 1
 475.837890625 -103 l 1
 143.837890625 -103 l 1
 298.830078125 776 l 1
EndSplineSet
EndChar

StartChar: backslash
Encoding: 92 92 61
Width: 600
GlyphClass: 2
Flags: W
LayerCount: 2
Fore
SplineSet
513.35546875 -15 m 1
 439.360351562 -49 l 1
 213.6015625 735 l 1
 288.771484375 770 l 1
 513.35546875 -15 l 1
EndSplineSet
EndChar

StartChar: bracketright
Encoding: 93 93 62
Width: 600
GlyphClass: 2
Flags: W
LayerCount: 2
Fore
SplineSet
574.830078125 776 m 1
 419.838867188 -103 l 1
 87.8388671875 -103 l 1
 99.4765625 -37 l 1
 357.4765625 -37 l 1
 488.663085938 707 l 1
 231.663085938 707 l 1
 243.830078125 776 l 1
 574.830078125 776 l 1
EndSplineSet
EndChar

StartChar: asciicircum
Encoding: 94 94 63
Width: 600
GlyphClass: 2
Flags: W
LayerCount: 2
Fore
SplineSet
192.939453125 425 m 1
 422.309570312 722 l 1
 447.309570312 722 l 1
 552.116210938 426 l 1
 485.002929688 397 l 1
 408.796875 600 l 1
 246.002929688 397 l 1
 192.939453125 425 l 1
EndSplineSet
EndChar

StartChar: underscore
Encoding: 95 95 64
Width: 600
GlyphClass: 2
Flags: W
LayerCount: 2
Fore
SplineSet
46.12109375 -22 m 1
 546.120117188 -22 l 1
 533.6015625 -93 l 1
 33.6015625 -93 l 1
 46.12109375 -22 l 1
EndSplineSet
EndChar

StartChar: grave
Encoding: 96 96 65
Width: 600
GlyphClass: 2
Flags: W
LayerCount: 2
Fore
SplineSet
293.08984375 353.122070312 m 2
 229.977539062 463.064453125 l 1
 170.353515625 563.322265625 l 1
 168.000976562 744 l 1
 196.592773438 701.400390625 196.688476562 694.026367188 225.328125 647.740234375 c 1
 236.666992188 616.728515625 244.362304688 618.1875 257.411132812 595.45703125 c 2
 290.689453125 537.487304688 l 2
 316.95703125 491.729492188 329.435546875 410.240234375 329.971679688 369.046875 c 0
 330.518554688 327.08203125 323.173828125 300.716796875 293.08984375 353.122070312 c 2
EndSplineSet
EndChar

StartChar: a
Encoding: 97 97 66
Width: 600
GlyphClass: 2
Flags: W
LayerCount: 2
Fore
SplineSet
87.5869140625 145.12890625 m 0
 131.31640625 393.12890625 351.10546875 529.999023438 452.047851562 529.999023438 c 0
 601.10546875 529.999023438 551.370117188 503.768554688 614.872070312 486.999023438 c 1
 609.620117188 480.616210938 597.965820312 453.499023438 592.764648438 423.999023438 c 0
 570.83984375 299.658203125 568.26953125 281.318359375 546.522460938 156.978515625 c 1
 546.684570312 156.978515625 l 1
 529.403320312 58.9775390625 566 -0.0009765625 566 -0.0009765625 c 1
 461.618164062 -5.0009765625 l 1
 461.618164062 -5.0009765625 447.80078125 68.443359375 468.720703125 191.602539062 c 1
 391.708984375 -0.28515625 281.5859375 -11.7421875 202.841796875 -11.7421875 c 0
 118.599609375 -11.7421875 67.1328125 29.12890625 87.5869140625 145.12890625 c 0
170.58203125 157.127929688 m 0
 159.649414062 95.1279296875 194.55078125 61.80859375 220.55078125 61.80859375 c 0
 318.55078125 61.80859375 415.594726562 147.127929688 465.580078125 249.127929688 c 0
 478.70703125 275.915039062 497.560546875 331.202148438 511.4375 405.127929688 c 2
 519.296875 446.999023438 l 1
 519.296875 446.999023438 510.18359375 468.053710938 456.182617188 468.053710938 c 0
 378.18359375 468.053710938 202.321289062 337.127929688 170.58203125 157.127929688 c 0
EndSplineSet
EndChar

StartChar: b
Encoding: 98 98 67
Width: 600
GlyphClass: 2
Flags: W
LayerCount: 2
Fore
SplineSet
84.9951171875 34 m 1
 135.676757812 321.4296875 214.948242188 771 214.948242188 771 c 1
 312.948242188 771 l 1
 313.713867188 764 307.008789062 760 304.65625 758 c 0
 297.950195312 754 296.421875 751 295.36328125 745 c 2
 242.994140625 448 l 1
 287.221679688 506 355.568359375 542 422.568359375 542 c 0
 526.568359375 542 620.404296875 456 587.783203125 271 c 0
 559.5546875 110.900390625 440.5 0 307.080078125 0 c 0
 173.66015625 0 144.08203125 20.740234375 84.9951171875 34 c 1
180.928710938 96 m 1
 180.928710938 96 186.12890625 62 273.780273438 62 c 0
 361.432617188 62 474.170898438 122.900390625 497.787109375 254 c 0
 531.474609375 440.999023438 430.875 470 380.875 470 c 0
 328.875 470 275.760742188 441 247.297851562 393 c 0
 230.18359375 364 222.188476562 330 213.725585938 282 c 2
 180.928710938 96 l 1
EndSplineSet
EndChar

StartChar: c
Encoding: 99 99 68
Width: 600
GlyphClass: 2
Flags: W
LayerCount: 2
Fore
SplineSet
121.639648438 264.508789062 m 0
 149.65234375 423.379882812 280.698242188 540.026367188 436.2734375 540.026367188 c 0
 521.40234375 540.026367188 586.026367188 503.1015625 616.938476562 441.999023438 c 1
 545.771484375 372.999023438 l 1
 537.81640625 379.922851562 546.037109375 390.807617188 543.19140625 399.751953125 c 0
 541.217773438 405.958984375 508.875976562 469.073242188 418.4921875 469.073242188 c 0
 321.216796875 469.073242188 230.40234375 393.767578125 209.129882812 273.125976562 c 0
 187.315429688 149.419921875 250.705078125 62.978515625 353.861328125 62.978515625 c 0
 406.916015625 62.978515625 492.451171875 86.443359375 535.395507812 127 c 1
 573.520507812 71 l 1
 513.439453125 16.5810546875 407.395507812 -13.0009765625 333.48828125 -13.0009765625 c 0
 183.755859375 -13.0009765625 93.4951171875 104.891601562 121.639648438 264.508789062 c 0
EndSplineSet
EndChar

StartChar: d
Encoding: 100 100 69
Width: 600
GlyphClass: 2
Flags: W
LayerCount: 2
Fore
SplineSet
109.446289062 269.087890625 m 0
 147.99609375 487.71484375 381.948242188 530 434.168945312 530 c 0
 486.389648438 530 529.747070312 509 529.747070312 509 c 1
 575.947265625 771 l 1
 664.947265625 771 l 1
 663.985351562 763.115234375 658.575195312 757.358398438 655.534179688 753.665039062 c 0
 650.280273438 747.282226562 649.185546875 744.040039062 648.12890625 738 c 0
 626.384765625 613.659179688 568.266601562 281.319335938 546.521484375 156.979492188 c 1
 546.68359375 156.979492188 l 1
 529.40234375 58.978515625 565.999023438 0 565.999023438 0 c 1
 461.6171875 -5 l 1
 461.6171875 -5 458.68359375 36.89453125 460.59375 95.9609375 c 1
 416.200195312 38.2314453125 336.588867188 -11.7421875 270.431640625 -11.7421875 c 0
 168.1015625 -11.7421875 74.9892578125 73.6728515625 109.446289062 269.087890625 c 0
192.7265625 282.73046875 m 0
 161.979492188 108.362304688 242.833984375 61.80859375 302.768554688 61.80859375 c 0
 357.978515625 61.80859375 419.276367188 98.716796875 450.861328125 162.212890625 c 0
 464.158203125 188.94140625 478.421875 218.48046875 485.583984375 258.524414062 c 2
 519.293945312 446.998046875 l 1
 519.293945312 446.998046875 478.366210938 468.022460938 423.18359375 468.053710938 c 0
 368.000976562 468.083984375 219.299804688 433.438476562 192.7265625 282.73046875 c 0
EndSplineSet
EndChar

StartChar: e
Encoding: 101 101 70
Width: 600
GlyphClass: 2
Flags: W
LayerCount: 2
Fore
SplineSet
111.668945312 259 m 0
 145.700195312 452 278.568359375 542 385.318359375 542 c 0
 492.068359375 542 520.646484375 526.1015625 546.606445312 502.516601562 c 0
 577.71484375 474.25390625 590.440429688 433.518554688 582.942382812 391 c 0
 572.540039062 332 528.720703125 299 440.254882812 268 c 0
 373.209960938 244.8515625 297.236328125 244 224.431640625 244 c 2
 207.022460938 244 l 1
 192.41015625 244 l 1
 181.330078125 86.2255859375 270.572265625 55 336.697265625 55 c 0
 389.697265625 55 472.399414062 76 514.276367188 115 c 1
 552.342773438 70 l 1
 497.8203125 16 393.883789062 -12 317.883789062 -12 c 0
 174.883789062 -12 80.458984375 82 111.668945312 259 c 0
204.307617188 308 m 1
 217.306640625 308 l 2
 236.71875 308 258.05859375 307.625976562 279.740234375 307.625976562 c 0
 319.493164062 307.625976562 360.40234375 308.881835938 392.717773438 316 c 0
 461.5390625 332 491.184570312 347 498.060546875 386 c 0
 506.348632812 433 474.782226562 478 403.032226562 478 c 0
 331.282226562 478 226.52734375 434.01953125 204.307617188 308 c 1
EndSplineSet
EndChar

StartChar: f
Encoding: 102 102 71
Width: 600
GlyphClass: 2
Flags: W
LayerCount: 2
Fore
SplineSet
159.172851562 432 m 1
 170.811523438 498 l 1
 285.811523438 498 l 1
 294.979492188 550 l 2
 303.268554688 597 313.025390625 641 347.784179688 685 c 0
 395.36328125 745 471.005859375 777 545.005859375 777 c 0
 612.005859375 777 664.421875 751 694.310546875 705 c 1
 642.732421875 628 l 2
 638.732421875 628 634.0859375 630 635.49609375 638 c 0
 635.377929688 643 636.907226562 646 633.7890625 651 c 0
 617.784179688 685 580.544921875 712 529.544921875 712 c 0
 485.544921875 712 441.018554688 692 412.141601562 653 c 0
 388.349609375 621.181640625 381.038085938 584.404296875 374.87109375 549.430664062 c 0
 374.254882812 545.93359375 373.6484375 542.455078125 373.0390625 539 c 2
 365.810546875 498 l 1
 538.810546875 498 l 1
 527.172851562 432 l 1
 354.172851562 432 l 1
 248.376953125 -168 l 1
 168.376953125 -168 l 1
 274.172851562 432 l 1
 159.172851562 432 l 1
EndSplineSet
EndChar

StartChar: g
Encoding: 103 103 72
Width: 600
GlyphClass: 2
Flags: W
LayerCount: 2
Fore
SplineSet
43.4296875 -128 m 1
 110.12890625 -56 l 1
 116.284179688 -61.947265625 113.109375 -69.4814453125 116.4921875 -77.248046875 c 0
 119.530273438 -84.22265625 172.2734375 -136 241.0234375 -136 c 0
 329.2734375 -136 334.375 -134 375.490234375 -113.5 c 0
 416.60546875 -93 427.365234375 -66 431.420898438 -43 c 2
 453.991210938 85 l 1
 410.587890625 26 341.88671875 -12 274.903320312 -12.0029296875 c 0
 172.573242188 -12.0029296875 72.1533203125 74.5849609375 106.610351562 270 c 0
 145.16015625 488.626953125 381.951171875 530 452.26171875 530 c 0
 522.235351562 530 553.89453125 503.76953125 618.87109375 487 c 1
 613.619140625 480.6171875 601.96484375 453.5 596.763671875 424 c 2
 596.763671875 424 547.0703125 142.1796875 515.299804688 -38 c 0
 502.780273438 -109 422.911132812 -199 270.161132812 -199 c 0
 117.411132812 -199 73.0400390625 -175.02734375 43.4296875 -128 c 1
192.73046875 282.731445312 m 0
 161.982421875 108.36328125 242.836914062 61.810546875 302.771484375 61.810546875 c 0
 357.981445312 61.810546875 421.803710938 98.71875 453.388671875 162.21484375 c 0
 466.685546875 188.943359375 477.42578125 218.481445312 484.587890625 258.526367188 c 2
 517.821289062 447 l 1
 517.821289062 447 479.319335938 468.0234375 423.662109375 468.0546875 c 0
 368.00390625 468.0859375 219.302734375 433.439453125 192.73046875 282.731445312 c 0
EndSplineSet
EndChar

StartChar: h
Encoding: 104 104 73
Width: 600
GlyphClass: 2
Flags: W
LayerCount: 2
Fore
SplineSet
91 0 m 1
 226.770507812 770 l 1
 322.770507812 770 l 2
 322.953125 768.885742188 322.939453125 767.711914062 322.73046875 766.526367188 c 0
 321.665039062 760.484375 316.330078125 756.916015625 313.174804688 754.110351562 c 0
 308.506835938 749.956054688 307.703125 746.930664062 307.009765625 743 c 2
 252.877929688 436 l 1
 302.15234375 495.001953125 375.688476562 542.002929688 447.525390625 542.002929688 c 0
 507.850585938 542.002929688 556.140625 508.12890625 571.994140625 448.568359375 c 0
 583.3203125 406.014648438 575.890625 362.334960938 568.6015625 321.000976562 c 2
 539.684570312 157.000976562 l 2
 522.403320312 59.0009765625 551 0.0009765625 551 0.0009765625 c 1
 446.618164062 -4.9990234375 l 1
 446.618164062 -4.9990234375 440.93359375 62.0009765625 455.744140625 146.000976562 c 2
 486.248046875 319.000976562 l 2
 492.841796875 356.393554688 500.614257812 401.823242188 477.999023438 436.061523438 c 0
 462.9921875 458.78125 438.708007812 469.580078125 412.140625 469.580078125 c 0
 356.162109375 469.580078125 297.0390625 422.787109375 272.114257812 395.893554688 c 0
 244.919921875 366.55078125 236.06640625 340.651367188 229.779296875 305 c 2
 176 0 l 1
 91 0 l 1
EndSplineSet
EndChar

StartChar: i
Encoding: 105 105 74
Width: 600
GlyphClass: 2
Flags: W
LayerCount: 2
Fore
SplineSet
214.462890625 462 m 1
 226.453125 530 l 1
 438.455078125 530 l 1
 373.213867188 160 l 2
 367.161132812 120 361.805664062 73 407.805664062 73 c 0
 432.805664062 73 453.68359375 77 483.357421875 79 c 1
 467.84375 0 l 1
 449.616210938 0 l 1
 413.954101562 0 l 2
 376.70703125 0 341.396484375 2 318.857421875 18 c 0
 282.849609375 43 277.048828125 91 288.333984375 155 c 0
 288.686523438 157 288.861328125 158 289.213867188 160 c 2
 342.46484375 462 l 1
 214.462890625 462 l 1
368.495117188 700.486328125 m 0
 374.275390625 733.264648438 405.817382812 760 438.998046875 760 c 0
 472.166015625 760 494.314453125 733.2734375 488.533203125 700.486328125 c 0
 482.755859375 667.720703125 451.206054688 640.993164062 418.013671875 640.993164062 c 0
 384.841796875 640.993164062 362.717773438 667.716796875 368.495117188 700.486328125 c 0
EndSplineSet
EndChar

StartChar: j
Encoding: 106 106 75
Width: 600
GlyphClass: 2
Flags: W
LayerCount: 2
Fore
SplineSet
249.453125 530 m 1
 530.451171875 530 l 1
 443.522460938 37 l 2
 435.467773438 -8.6845703125 426.583007812 -52.10546875 396.166992188 -96.380859375 c 0
 347.889648438 -166.657226562 267.586914062 -202.181640625 192.047851562 -202.181640625 c 0
 126.366210938 -202.181640625 73.0390625 -175.02734375 43.4287109375 -128 c 1
 110.125 -56 l 1
 116.280273438 -61.947265625 113.10546875 -69.4814453125 116.48828125 -77.248046875 c 0
 119.526367188 -84.22265625 146.083007812 -130.015625 210.08984375 -130.015625 c 0
 254.864257812 -130.015625 300.762695312 -106.297851562 328.30859375 -63.240234375 c 0
 346.307617188 -35.1015625 351.716796875 -7.275390625 356.703125 21 c 2
 434.287109375 461 l 1
 237.287109375 461 l 1
 249.453125 530 l 1
530.009765625 760 m 0
 563.177734375 760 585.314453125 733.279296875 579.533203125 700.4921875 c 0
 573.754882812 667.7265625 542.204101562 640.991210938 509.01171875 640.991210938 c 0
 475.83984375 640.991210938 453.715820312 667.71484375 459.493164062 700.485351562 c 0
 465.2734375 733.263671875 496.828125 760 530.009765625 760 c 0
EndSplineSet
EndChar

StartChar: k
Encoding: 107 107 76
Width: 600
GlyphClass: 2
Flags: W
LayerCount: 2
Fore
SplineSet
222.771484375 770 m 1
 317.772460938 770 l 1
 317.6796875 762.17578125 311.607421875 756.8515625 308.305664062 753.358398438 c 0
 303.330078125 748.09375 302.368164062 745.014648438 301.484375 740 c 2
 221.432617188 286 l 1
 529.80859375 532 l 1
 549.447265625 526.94921875 570.454101562 526 590.75 526 c 2
 620.75 526 l 1
 360.721679688 316 l 1
 564.82421875 -1 l 2
 562.126953125 -0.982421875 559.426757812 -0.9736328125 556.725585938 -0.9736328125 c 0
 501.229492188 -0.9736328125 456.118164062 -5 456.118164062 -5 c 1
 287.727539062 265 l 1
 206.266601562 200 l 1
 170.823242188 -1 l 1
 86.8232421875 -1 l 1
 222.771484375 770 l 1
EndSplineSet
EndChar

StartChar: l
Encoding: 108 108 77
Width: 600
GlyphClass: 2
Flags: W
LayerCount: 2
Fore
SplineSet
231.958007812 703 m 1
 243.770507812 770 l 1
 477.770507812 770 l 1
 370.211914062 160 l 2
 364.159179688 120 358.803710938 73 404.803710938 73 c 0
 429.803710938 73 450.681640625 77 480.35546875 79 c 1
 464.841796875 0 l 1
 446.614257812 0 l 1
 410.952148438 0 l 2
 373.705078125 0 338.395507812 2 315.85546875 18 c 0
 279.84765625 43 274.046875 91 285.33203125 155 c 0
 285.684570312 157 285.859375 158 286.211914062 160 c 2
 381.958007812 703 l 1
 231.958007812 703 l 1
EndSplineSet
EndChar

StartChar: m
Encoding: 109 109 78
Width: 600
GlyphClass: 2
Flags: W
LayerCount: 2
Fore
SplineSet
54 0 m 1
 119.595703125 372 l 2
 132.908203125 447.5 126.37109375 504 113.279296875 529 c 1
 203.579101562 541 l 1
 205.163085938 536.104492188 207.447265625 510.046875 205.7578125 467.05859375 c 1
 237.065429688 505.119140625 279.349609375 541.999023438 333.5703125 541.999023438 c 0
 381.5703125 541.999023438 413.750976562 508.999023438 413.993164062 464.999023438 c 1
 443.280273438 511.999023438 495.5703125 541.999023438 546.5703125 541.999023438 c 0
 575.5703125 541.999023438 606.630859375 530.999023438 621.1640625 499.999023438 c 0
 636.4453125 469.999023438 631.330078125 432.65234375 624.670898438 394.885742188 c 0
 623.561523438 388.591796875 622.407226562 382.286132812 621.298828125 376 c 2
 582.68359375 157 l 2
 565.40234375 59 593.999023438 0 593.999023438 0 c 1
 492.6171875 -5 l 1
 492.6171875 -5 486.932617188 62 501.743164062 146 c 2
 542.122070312 375 l 2
 543.708984375 384 545.866210938 393.84375 547.629882812 403.845703125 c 0
 550.569335938 420.515625 552.4140625 437.625 548.69921875 452 c 0
 543.048828125 471 528.811523438 481 511.811523438 481 c 0
 479.811523438 481 452.9921875 448 441.348632812 433 c 0
 416.706054688 401 409.650390625 378 404.71484375 350 c 2
 343 0 l 1
 265 0 l 1
 329.888671875 368 l 2
 331.298828125 376 333.043945312 384.397460938 334.551757812 392.950195312 c 0
 337.189453125 407.916992188 339.104492188 423.364257812 337.23046875 438 c 0
 333.344726562 467 314.284179688 478 295.284179688 478 c 0
 274.284179688 478 247.815429688 464 222.645507812 429 c 0
 202.70703125 401 196.651367188 378 192.243164062 353 c 2
 130 0 l 1
 54 0 l 1
EndSplineSet
EndChar

StartChar: n
Encoding: 110 110 79
Width: 600
GlyphClass: 2
Flags: W
LayerCount: 2
Fore
SplineSet
89 0 m 1
 154.59375 372 l 2
 167.905273438 447.5 161.368164062 504 148.276367188 529 c 1
 246.569335938 541 l 1
 248.524414062 534.958007812 253.865234375 500.59765625 247.375 432.673828125 c 1
 296.046875 487.137695312 363.75 541.083007812 445.524414062 542.002929688 c 0
 505.966796875 542.682617188 554.140625 508.12890625 569.994140625 448.568359375 c 0
 581.3203125 406.014648438 573.891601562 362.334960938 566.6015625 321.000976562 c 2
 566.6015625 321.000976562 555.5625 258.401367188 537.685546875 157.000976562 c 0
 520.403320312 59.0009765625 549 0.0009765625 549 0.0009765625 c 1
 444.618164062 -4.9990234375 l 1
 444.618164062 -4.9990234375 438.934570312 62.0009765625 453.744140625 146.000976562 c 0
 465.641601562 213.470703125 484.249023438 319.000976562 484.249023438 319.000976562 c 2
 490.842773438 356.393554688 498.615234375 401.823242188 475.999023438 436.061523438 c 0
 460.993164062 458.78125 436.708984375 469.580078125 410.142578125 469.580078125 c 0
 354.162109375 469.580078125 295.0390625 422.787109375 270.114257812 395.893554688 c 0
 242.919921875 366.55078125 234.06640625 340.651367188 227.778320312 305 c 2
 174 0 l 1
 89 0 l 1
EndSplineSet
EndChar

StartChar: o
Encoding: 111 111 80
Width: 600
GlyphClass: 2
Flags: W
LayerCount: 2
Fore
SplineSet
589.364257812 262.303710938 m 0
 558.418945312 86.8046875 427.857421875 -14 302.5 -14 c 0
 169.079101562 -14 74.41796875 99.5322265625 102.814453125 260.578125 c 0
 131.655273438 424.139648438 267.923828125 541.004882812 402.833984375 541.004882812 c 0
 523.14453125 541.004882812 621.59375 445.083984375 589.364257812 262.303710938 c 0
384.650390625 470.102539062 m 0
 303.688476562 470.102539062 215.08984375 397.573242188 192.208007812 267.8046875 c 0
 169.18359375 137.223632812 231.4765625 57.9921875 315.841796875 57.9921875 c 0
 393.110351562 57.9921875 481.314453125 125.598632812 504.810546875 258.842773438 c 0
 530.439453125 404.201171875 461.021484375 470.102539062 384.650390625 470.102539062 c 0
EndSplineSet
EndChar

StartChar: p
Encoding: 112 112 81
Width: 600
GlyphClass: 2
Flags: W
LayerCount: 2
Fore
SplineSet
45.96875 -193 m 1
 149.849609375 400.80078125 l 2
 157.0703125 461.829101562 150.645507812 507.291015625 139.276367188 529 c 1
 229.576171875 541 l 1
 231.15234375 536.12890625 239.5546875 497.369140625 233.3203125 438.8359375 c 1
 278.444335938 491.875 338.961914062 541 426.391601562 541 c 0
 530.391601562 541 626.756835938 458 593.782226562 271 c 0
 559.576171875 77 431.999023438 0 347.078125 0 c 0
 262.15625 0 217.686523438 9.0712890625 168.358398438 19.0498046875 c 1
 130.96875 -193 l 1
 45.96875 -193 l 1
180.928710938 96 m 1
 180.928710938 96 255.712890625 60 308.145507812 60 c 0
 360.579101562 60 474.340820312 87 503.607421875 253 c 0
 537.640625 446 429.873046875 470 383.873046875 470 c 0
 329.873046875 470 275.758789062 441 247.295898438 393 c 0
 230.53515625 366 222.89453125 334 214.958984375 289 c 0
 201.380859375 212 180.928710938 96 180.928710938 96 c 1
EndSplineSet
EndChar

StartChar: q
Encoding: 113 113 82
Width: 600
GlyphClass: 2
Flags: W
LayerCount: 2
Fore
SplineSet
106.608398438 270 m 0
 145.158203125 488.626953125 381.951171875 530 452.26171875 530 c 0
 522.572265625 530 554.10546875 503.76953125 618.87109375 487 c 1
 613.619140625 480.6171875 601.96484375 453.5 596.763671875 424 c 2
 596.763671875 424 547.286132812 143.400390625 515.653320312 -36 c 0
 498.373046875 -134 526.969726562 -193 526.969726562 -193 c 1
 422.587890625 -198 l 1
 422.587890625 -198 415.197265625 -135 430.008789062 -51 c 2
 453.989257812 85 l 1
 410.5859375 26 341.884765625 -12 274.901367188 -12.0029296875 c 0
 172.571289062 -12.0029296875 72.1513671875 74.5849609375 106.608398438 270 c 0
192.729492188 282.731445312 m 0
 161.982421875 108.36328125 242.836914062 61.810546875 302.771484375 61.810546875 c 0
 357.981445312 61.810546875 421.803710938 98.71875 453.388671875 162.21484375 c 0
 466.685546875 188.943359375 477.42578125 218.481445312 484.587890625 258.526367188 c 2
 517.821289062 447 l 1
 517.821289062 447 479.319335938 468.0234375 423.662109375 468.0546875 c 0
 368.00390625 468.0859375 219.302734375 433.439453125 192.729492188 282.731445312 c 0
EndSplineSet
EndChar

StartChar: r
Encoding: 114 114 83
Width: 600
GlyphClass: 2
Flags: W
LayerCount: 2
Fore
SplineSet
125 0 m 1
 190.591796875 372.000976562 l 2
 203.903320312 447.500976562 197.366210938 504.000976562 184.274414062 529.000976562 c 1
 282.56640625 541.000976562 l 1
 284.436523438 535.224609375 291.849609375 513.520507812 286.668945312 450.8515625 c 1
 335.78515625 511.450195312 406.3515625 541.116210938 480.461914062 541.690429688 c 0
 554.572265625 542.265625 599.0546875 518.114257812 626.341796875 484 c 1
 573.236328125 404 l 1
 565.842773438 412.504882812 563.66015625 421.66796875 558.272460938 430.553710938 c 0
 546.7578125 449.541992188 522.397460938 470.205078125 447.654296875 470.205078125 c 0
 372.911132812 470.205078125 331.040039062 422.787109375 306.115234375 395.893554688 c 0
 278.920898438 366.55078125 270.065429688 340.651367188 263.778320312 305 c 2
 209.999023438 0 l 1
 125 0 l 1
EndSplineSet
EndChar

StartChar: s
Encoding: 115 115 84
Width: 600
GlyphClass: 2
Flags: W
LayerCount: 2
Fore
SplineSet
88.6953125 72 m 1
 151.33203125 154.999023438 l 1
 156.5703125 152.330078125 154.89453125 145.693359375 154.541015625 144.103515625 c 0
 153.51171875 139.469726562 152.419921875 136.208007812 155.577148438 131.719726562 c 0
 168.969726562 112.680664062 217.455078125 58 314.388671875 58 c 0
 411.322265625 58 480.3203125 92.16796875 489.063476562 141.756835938 c 0
 492.439453125 160.88671875 488.204101562 188.764648438 448.134765625 209.208007812 c 0
 412.306640625 227.486328125 326.33203125 241.548828125 284.4140625 257.732421875 c 0
 257.51171875 268.119140625 163.212890625 301.798828125 179.51171875 394.23046875 c 0
 193.453125 473.299804688 286.119140625 542.00390625 409.067382812 542.00390625 c 0
 487.37109375 542.00390625 552.522460938 512.905273438 591.935546875 459 c 1
 530.063476562 386 l 2
 528.104492188 386.487304688 524.405273438 388.387695312 525.672851562 395.318359375 c 0
 526.41796875 399.389648438 527.66796875 402.170898438 525.146484375 406.383789062 c 0
 509.583984375 432.38671875 466.479492188 479.075195312 391.013671875 479.075195312 c 0
 331.162109375 479.075195312 274.240234375 449.38671875 266.729492188 406.787109375 c 0
 263.592773438 389.000976562 268.268554688 363.328125 307.826171875 342.4296875 c 0
 353.08984375 318.517578125 466.23046875 306.5625 520.130859375 272.983398438 c 0
 576.5703125 237.822265625 584.734375 189.620117188 576.73046875 153.28515625 c 0
 553.31640625 47.001953125 473.31640625 -12 345.125 -12 c 0
 216.93359375 -12 140.649414062 14.2177734375 88.6953125 72 c 1
EndSplineSet
EndChar

StartChar: t
Encoding: 116 116 85
Width: 600
GlyphClass: 2
Flags: W
LayerCount: 2
Fore
SplineSet
346.315429688 671 m 1
 439.958007812 686 l 2
 440.60546875 684 440.25390625 682 439.901367188 680 c 0
 438.314453125 671 431.2578125 665 427.494140625 655 c 0
 417.204101562 625 392.453125 530 392.453125 530 c 1
 565.453125 530 l 1
 553.287109375 461 l 1
 379.287109375 461 l 1
 360.120117188 392 344.953125 323 332.787109375 254 c 0
 319.209960938 177 318.68359375 157 317.801757812 152 c 0
 315.692382812 89 352.8125 67 391.8125 67 c 0
 424.8125 67 468.458984375 82 519.27734375 115 c 1
 533.640625 49 l 1
 482.821289062 16 417.236328125 -10 354.236328125 -10 c 0
 300.236328125 -10 261.939453125 11 243.111328125 46 c 0
 219.869140625 90 229.21484375 143 237.501953125 190 c 0
 253.37109375 280 273.241210938 370 296.287109375 461 c 1
 172.287109375 461 l 1
 185.27734375 529 l 1
 311.27734375 529 l 1
 346.315429688 671 l 1
EndSplineSet
EndChar

StartChar: u
Encoding: 117 117 86
Width: 600
GlyphClass: 2
Flags: W
LayerCount: 2
Fore
SplineSet
119.750976562 95 m 0
 106.862304688 141 115.012695312 187.998046875 123.26171875 234 c 2
 153.172851562 400.80078125 l 2
 164.135742188 461.931640625 153.96875 507.291015625 142.600585938 529 c 1
 240.635742188 541 l 1
 242.211914062 536.12890625 254.725585938 497.51171875 244.379882812 438.8359375 c 2
 208.26171875 234 l 2
 201.913085938 197.998046875 194.686523438 157 207.16015625 120 c 0
 220.754882812 78 254.69921875 55 296.69921875 55 c 0
 347.69921875 55 400.694335938 89 432.452148438 133 c 0
 456.272460938 166 464.737304688 197 471.967773438 238 c 2
 523.278320312 529 l 1
 607.278320312 529 l 1
 541.686523438 157 l 2
 524.404296875 59 561.000976562 0 561.000976562 0 c 1
 456.619140625 -5 l 1
 456.619140625 -5 449.500976562 21.5 451.423828125 79.318359375 c 1
 404.482421875 28.1201171875 325.86328125 -13 265.708007812 -13 c 0
 196.708007812 -13 138.408203125 25 119.750976562 95 c 0
EndSplineSet
EndChar

StartChar: v
Encoding: 118 118 87
Width: 600
GlyphClass: 2
Flags: W
LayerCount: 2
Fore
SplineSet
149.453125 530 m 1
 249.453125 530 l 1
 249.783203125 520.530273438 242.991210938 514.36328125 241.748046875 507.31640625 c 0
 241.256835938 504.529296875 241.627929688 502.450195312 242.163085938 500 c 2
 326.924804688 113 l 1
 446.661132812 310 l 2
 488.875 379.454101562 529.841796875 452.86328125 557.453125 530 c 1
 632.453125 530 l 1
 600.612304688 449.311523438 557.279296875 372.126953125 512.544921875 298 c 2
 330.294921875 -4 l 1
 265.294921875 -4 l 1
 149.453125 530 l 1
EndSplineSet
EndChar

StartChar: w
Encoding: 119 119 88
Width: 600
GlyphClass: 2
Flags: W
LayerCount: 2
Fore
SplineSet
121.453125 530 m 1
 206.454101562 530 l 1
 207.8671875 521 203.45703125 513 200.3984375 507 c 0
 195.8125 498 195.106445312 494 195.696289062 486 c 2
 205.338867188 104 l 1
 362.637695312 480 l 1
 413.637695312 480 l 1
 459.515625 105 l 1
 547.467773438 372.2109375 569.479492188 448.705078125 579.810546875 507.287109375 c 0
 581.115234375 514.694335938 582.235351562 521.81640625 583.27734375 529 c 1
 660.27734375 529 l 1
 605.891601562 351 545.857421875 175 478.823242188 -1 c 1
 400.823242188 -1 l 1
 363.3046875 342 l 1
 209.823242188 -1 l 1
 134.823242188 -1 l 1
 121.453125 530 l 1
EndSplineSet
EndChar

StartChar: x
Encoding: 120 120 89
Width: 600
GlyphClass: 2
Flags: W
LayerCount: 2
Fore
SplineSet
523.453125 530 m 1
 608.453125 530 l 1
 391.442382812 272.196289062 l 1
 538 0 l 1
 443 -0 l 1
 333.353515625 205.834960938 l 1
 159 0 l 1
 65 -0 l 1
 298.296875 269.048828125 l 1
 161.453125 530 l 1
 252.453125 530 l 1
 356.616210938 333.91796875 l 1
 523.453125 530 l 1
EndSplineSet
EndChar

StartChar: y
Encoding: 121 121 90
Width: 600
GlyphClass: 2
Flags: W
LayerCount: 2
Fore
SplineSet
156.27734375 529 m 1
 260.276367188 529 l 1
 259.090820312 518.579101562 252.245117188 512.754882812 250.741210938 504.225585938 c 0
 250.146484375 500.852539062 250.556640625 498.286132812 251.282226562 494.999023438 c 2
 337.515625 104.999023438 l 1
 488.591796875 388.999023438 l 2
 512.837890625 434.577148438 536.163085938 481.53125 553.454101562 529.999023438 c 1
 640.454101562 529.999023438 l 1
 615.76171875 478.2421875 588.399414062 427.411132812 560.4765625 376.999023438 c 2
 318.420898438 -60.0009765625 l 2
 301.822265625 -89.9677734375 285.720703125 -117.887695312 258.008789062 -143.905273438 c 0
 215.735351562 -183.59375 163.03515625 -201.180664062 115.224609375 -201.180664062 c 0
 71.7001953125 -201.180664062 33.7099609375 -186.251953125 8.318359375 -157.000976562 c 1
 64.54296875 -82.0009765625 l 1
 70.435546875 -87.357421875 68.4833984375 -95.0849609375 70.4658203125 -100.8203125 c 0
 72.4169921875 -106.465820312 87.80078125 -132.772460938 127.038085938 -132.772460938 c 0
 151.83203125 -132.772460938 180.934570312 -121.950195312 207.110351562 -98.482421875 c 0
 227.032226562 -80.62109375 241.5859375 -58.0556640625 254.4765625 -37 c 2
 278.353515625 2 l 1
 156.27734375 529 l 1
EndSplineSet
EndChar

StartChar: z
Encoding: 122 122 91
Width: 600
GlyphClass: 2
Flags: W
LayerCount: 2
Fore
SplineSet
185.453125 530 m 1
 597.451171875 530 l 1
 587.400390625 473 l 1
 193.518554688 71 l 1
 508.518554688 71 l 2
 522.91796875 71 529.693359375 78.2900390625 540.853515625 78.2900390625 c 0
 542.094726562 78.2900390625 543.388671875 78.2001953125 544.75390625 78 c 2
 530.823242188 -1 l 1
 67.8232421875 -1 l 1
 77.8740234375 56 l 1
 476.581054688 457 l 1
 172.581054688 457 l 1
 185.453125 530 l 1
EndSplineSet
EndChar

StartChar: braceleft
Encoding: 123 123 92
Width: 600
GlyphClass: 2
Flags: W
LayerCount: 2
Fore
SplineSet
129.01171875 329 m 1
 152.008789062 329 l 2
 173.008789062 329 204.008789062 329 234.592773438 355 c 0
 266.70703125 384 276.935546875 425 281.873046875 453 c 0
 286.809570312 481 288.5703125 508 293.508789062 536 c 0
 301.266601562 580 318.7265625 645 378.015625 692 c 0
 432.59765625 735 496.125976562 738 552.125976562 738 c 2
 578.125976562 738 l 1
 613.125976562 738 l 1
 601.489257812 672 l 1
 561.489257812 672 l 2
 544.489257812 672 529.665039062 673 515.665039062 673 c 0
 487.665039062 673 465.135742188 670 441.84375 657 c 0
 391.907226562 629 380.032226562 573 375.80078125 549 c 0
 371.040039062 522 370.455078125 496 365.518554688 468 c 0
 360.7578125 441 351.586914062 406 330.12109375 375 c 0
 306.94921875 340 273.012695312 312 234.368164062 297 c 1
 275.724609375 282 321.965820312 238 300.629882812 117 c 0
 294.282226562 81 284.81640625 50 279.526367188 20 c 0
 272.474609375 -20 269.48046875 -71 306.3671875 -100 c 0
 329.193359375 -118 359.018554688 -119 396.018554688 -119 c 2
 418.018554688 -119 l 1
 461.018554688 -119 l 1
 449.556640625 -184 l 1
 407.556640625 -184 l 1
 371.556640625 -184 l 2
 315.556640625 -184 268.0859375 -181 232.728515625 -149 c 0
 180.015625 -102 189.944335938 -23 197.3515625 19 c 0
 205.28515625 64 216.456054688 99 222.803710938 135 c 0
 231.620117188 185 229.615234375 219 210.495117188 241 c 0
 190.55078125 264 161.55078125 264 141.55078125 264 c 2
 117.55078125 264 l 1
 129.01171875 329 l 1
EndSplineSet
EndChar

StartChar: bar
Encoding: 124 124 93
Width: 600
GlyphClass: 2
Flags: W
LayerCount: 2
Fore
SplineSet
394.302734375 756 m 1
 472.302734375 756 l 1
 308.142578125 -175 l 1
 230.142578125 -175 l 1
 394.302734375 756 l 1
EndSplineSet
EndChar

StartChar: braceright
Encoding: 125 125 94
Width: 600
GlyphClass: 2
Flags: W
LayerCount: 2
Fore
SplineSet
587.01171875 329 m 1
 575.553710938 264 l 1
 551.553710938 264 l 2
 531.553710938 264 502.553710938 264 474.498046875 241 c 0
 447.618164062 219 433.623046875 185 424.806640625 135 c 0
 418.458984375 99 417.288085938 64 409.354492188 19 c 0
 401.947265625 -23 384.018554688 -102 314.731445312 -149 c 0
 268.088867188 -181 219.559570312 -184 163.559570312 -184 c 2
 127.559570312 -184 l 1
 85.5595703125 -184 l 1
 97.021484375 -119 l 1
 140.021484375 -119 l 1
 162.021484375 -119 l 2
 199.021484375 -119 229.196289062 -118 258.370117188 -100 c 0
 305.483398438 -71 320.477539062 -20 327.529296875 20 c 0
 332.819335938 50 334.28515625 81 340.6328125 117 c 0
 361.96875 238 423.727539062 282 470.37109375 297 c 1
 437.015625 312 412.952148438 340 402.124023438 375 c 0
 391.58984375 406 394.760742188 441 399.521484375 468 c 0
 404.458007812 496 413.04296875 522 417.803710938 549 c 0
 422.03515625 573 429.91015625 629 389.846679688 657 c 0
 371.138671875 670 349.66796875 673 321.66796875 673 c 0
 307.66796875 673 292.4921875 672 275.4921875 672 c 2
 235.4921875 672 l 1
 247.12890625 738 l 1
 282.12890625 738 l 1
 308.12890625 738 l 2
 364.12890625 738 426.600585938 735 466.018554688 692 c 0
 508.729492188 645 503.26953125 580 495.51171875 536 c 0
 490.57421875 508 482.813476562 481 477.876953125 453 c 0
 472.939453125 425 468.709960938 384 490.595703125 355 c 0
 512.01171875 329 543.01171875 329 564.01171875 329 c 2
 587.01171875 329 l 1
EndSplineSet
EndChar

StartChar: asciitilde
Encoding: 126 126 95
Width: 600
GlyphClass: 2
Flags: W
LayerCount: 2
Fore
SplineSet
185.825195312 396 m 1
 134.526367188 434.000976562 l 1
 178.95703125 492.03515625 246.372070312 538.051757812 312.026367188 538.051757812 c 0
 407.654296875 538.051757812 422.668945312 451 488.787109375 451 c 0
 526.79296875 451 559.401367188 480.654296875 600.748046875 526.000976562 c 1
 645.989257812 482.000976562 l 1
 607.740234375 436.286132812 539.5703125 375.377929688 466.725585938 375.377929688 c 0
 372.806640625 375.377929688 365.356445312 467.595703125 294.625 467.595703125 c 0
 261.873046875 467.595703125 223.609375 443.982421875 185.825195312 396 c 1
EndSplineSet
EndChar

StartChar: exclamdown
Encoding: 161 161 97
Width: 600
GlyphClass: 2
Flags: W
LayerCount: 2
Fore
SplineSet
343.353515625 705.494140625 m 0
 350.016601562 743.28515625 386.138671875 774.001953125 423.956054688 774.001953125 c 0
 461.762695312 774.001953125 487.068359375 743.298828125 480.401367188 705.4921875 c 0
 473.737304688 667.69921875 437.615234375 636.983398438 399.796875 636.983398438 c 0
 361.9921875 636.983398438 336.6875 667.688476562 343.353515625 705.494140625 c 0
283.390625 -13.015625 m 0
 261.642578125 -13.015625 239.833007812 1.578125 237.077148438 36.6650390625 c 0
 236.538085938 43.509765625 236.16015625 56.49609375 240.961914062 83.7353515625 c 0
 248.768554688 128.005859375 264.368164062 171.869140625 275.041015625 215.985351562 c 2
 352.465820312 535.985351562 l 1
 410.465820312 535.985351562 l 1
 371.041015625 215.985351562 l 2
 361.661132812 139.84765625 364.08984375 111.7109375 357.49609375 74.3154296875 c 0
 353.668945312 52.607421875 348.333007812 36.97265625 340.756835938 24.1669921875 c 0
 326.025390625 -0.736328125 303.459960938 -13.015625 283.390625 -13.015625 c 0
EndSplineSet
EndChar

StartChar: cent
Encoding: 162 162 98
Width: 600
GlyphClass: 2
Flags: W
LayerCount: 2
Fore
SplineSet
467.484375 723 m 1
 544.075195312 714.998046875 l 1
 543.52734375 707.49609375 538.87109375 701.295898438 537.048828125 698.825195312 c 0
 533.141601562 693.524414062 530.877929688 690.932617188 528.432617188 682.999023438 c 2
 499.10546875 587.821289062 l 1
 559.873046875 575.241210938 600.19921875 541.29296875 620.811523438 497.999023438 c 1
 558.173828125 431.999023438 l 1
 553.443359375 435.756835938 554.646484375 442.014648438 554.916015625 443.547851562 c 0
 556.0703125 450.09765625 558.947265625 455.064453125 554.235351562 462.1328125 c 0
 542.41015625 479.870117188 517.639648438 504.642578125 477.444335938 517.516601562 c 1
 352.500976562 112 l 1
 353.217773438 111.999023438 l 2
 409.2109375 111.999023438 468.61328125 135.588867188 516.209960938 177 c 1
 548.3359375 121 l 1
 489.002929688 66.4248046875 413.409179688 37.98828125 338.302734375 37.98828125 c 0
 335.423828125 37.98828125 332.56640625 38.0283203125 329.732421875 38.1083984375 c 2
 289.953125 -91 l 1
 224.364257812 -83 l 1
 263.895507812 48.0537109375 l 1
 155.463867188 79.5751953125 98.142578125 182.291015625 121.690429688 315.8359375 c 0
 149.088867188 471.21484375 271.595703125 585.20703125 428.184570312 592.708984375 c 1
 467.484375 723 l 1
287.057617188 124.833984375 m 1
 407.966796875 525.682617188 l 1
 311.627929688 519.991210938 226.90234375 447.752929688 205.529296875 326.541992188 c 0
 187.73828125 225.64453125 221.944335938 152.958007812 287.057617188 124.833984375 c 1
EndSplineSet
EndChar

StartChar: sterling
Encoding: 163 163 99
Width: 600
GlyphClass: 2
Flags: W
LayerCount: 2
Fore
SplineSet
610.904296875 663 m 1
 548.623046875 599.001953125 l 1
 540.388671875 605.935546875 542.7578125 615.247070312 537.30859375 622.673828125 c 0
 533.342773438 628.079101562 505.702148438 656.12890625 457.043945312 656.12890625 c 0
 394.869140625 656.12890625 325.237304688 609.401367188 308.232421875 512.956054688 c 0
 303.862304688 488.17578125 303.427734375 463.315429688 304.40234375 438 c 1
 419.234375 438 l 1
 407.59765625 372 l 1
 308.407226562 372 l 1
 310.5078125 336.142578125 311.234375 298.8515625 304.239257812 259.181640625 c 0
 294.149414062 201.95703125 269.703125 148.5 234.33984375 104 c 1
 244.90625 105.791015625 255.456054688 106.674804688 265.875 106.674804688 c 0
 342.915039062 106.674804688 382.397460938 58.916015625 448.75 58.916015625 c 0
 480.715820312 58.916015625 512.963867188 70.8544921875 540.047851562 91 c 1
 560.467773438 31 l 1
 530.715820312 10.2529296875 481.689453125 -17.1630859375 431.115234375 -17.1630859375 c 0
 357.233398438 -17.1630859375 317.916992188 34.666015625 233.786132812 34.666015625 c 0
 210.107421875 34.666015625 164.62109375 30.265625 83.4140625 -9 c 1
 65.0517578125 57 l 1
 123.354492188 81.9052734375 138.369140625 87.453125 161.737304688 115.98046875 c 0
 194.571289062 156.0625 217.30859375 204.698242188 226.504882812 256.8515625 c 0
 233.508789062 296.572265625 231.931640625 334.482421875 229.415039062 372 c 1
 153.594726562 372 l 1
 165.231445312 438 l 1
 225.557617188 438 l 1
 224.920898438 462.328125 225.7734375 486.841796875 230.196289062 511.927734375 c 0
 253.111328125 641.883789062 363.165039062 722.005859375 470.6796875 722.005859375 c 0
 525.89453125 722.005859375 576.047851562 701.137695312 610.904296875 663 c 1
EndSplineSet
EndChar

StartChar: currency
Encoding: 164 164 100
Width: 600
GlyphClass: 2
Flags: W
LayerCount: 2
Fore
SplineSet
391.984375 516 m 0
 327.984375 516 265.815429688 464 254.53125 400 c 0
 243.24609375 336 287.077148438 284 351.077148438 284 c 0
 415.077148438 284 476.24609375 336 487.53125 400 c 0
 498.815429688 464 455.984375 516 391.984375 516 c 0
189.5078125 570 m 1
 237.73828125 611 l 1
 291.27734375 546 l 1
 324.981445312 567 364.2734375 580 403.2734375 580 c 0
 441.2734375 580 475.15625 568 501.454101562 547 c 1
 576.73828125 611 l 1
 610.508789062 570 l 1
 535.224609375 506 l 1
 551.934570312 476 558.409179688 439 551.533203125 400 c 0
 544.65625 361 525.131835938 324 499.018554688 295 c 1
 550.732421875 231 l 1
 502.50390625 190 l 1
 449.7890625 254 l 1
 416.91015625 232 378.793945312 220 339.793945312 220 c 0
 299.793945312 220 266.0859375 233 239.96484375 255 c 1
 163.50390625 190 l 1
 129.732421875 231 l 1
 206.193359375 296 l 1
 190.30859375 325 184.655273438 361 191.532226562 400 c 0
 198.408203125 439 216.755859375 475 242.870117188 504 c 1
 189.5078125 570 l 1
EndSplineSet
EndChar

StartChar: yen
Encoding: 165 165 101
Width: 600
GlyphClass: 2
Flags: W
LayerCount: 2
Fore
SplineSet
179.484375 723 m 1
 269.484375 723 l 1
 384.233398438 421 l 1
 591.309570312 722 l 1
 677.309570312 722 l 1
 408.3046875 342 l 1
 404.072265625 318 l 1
 560.072265625 318 l 1
 548.435546875 252 l 1
 392.435546875 252 l 1
 379.5625 179 l 1
 535.5625 179 l 1
 524.102539062 114 l 1
 368.102539062 114 l 1
 348.000976562 0 l 1
 269.000976562 0 l 1
 289.102539062 114 l 1
 127.102539062 114 l 1
 138.5625 179 l 1
 300.5625 179 l 1
 313.435546875 252 l 1
 151.435546875 252 l 1
 163.072265625 318 l 1
 325.072265625 318 l 1
 329.3046875 342 l 1
 179.484375 723 l 1
EndSplineSet
EndChar

StartChar: brokenbar
Encoding: 166 166 102
Width: 600
GlyphClass: 2
Flags: W
LayerCount: 2
Fore
SplineSet
394.302734375 756 m 1
 472.302734375 756 l 1
 399.303710938 342 l 1
 321.303710938 342 l 1
 394.302734375 756 l 1
308.142578125 -175 m 1
 230.142578125 -175 l 1
 301.025390625 227 l 1
 379.025390625 227 l 1
 308.142578125 -175 l 1
EndSplineSet
EndChar

StartChar: section
Encoding: 167 167 103
Width: 600
GlyphClass: 2
Flags: W
LayerCount: 2
Fore
SplineSet
607.197265625 676 m 1
 531.970703125 618 l 1
 524.604492188 624.420898438 528.532226562 633.708007812 527.047851562 641.762695312 c 0
 522.229492188 667.916992188 495.048828125 709.915039062 433.529296875 709.915039062 c 0
 372.487304688 709.915039062 320.984375 669.159179688 312.479492188 620.921875 c 0
 308.337890625 597.431640625 312.73828125 561.5234375 358.641601562 534.752929688 c 0
 388.798828125 517.1640625 430.537109375 507.397460938 473.27734375 485.112304688 c 0
 547.345703125 446.493164062 563.944335938 395.665039062 556.583984375 353.921875 c 0
 548.04296875 305.48046875 505.26171875 262.528320312 451.189453125 241.877929688 c 1
 495.8828125 207.3828125 510.778320312 156.541015625 502.092773438 107.275390625 c 0
 486.172851562 16.9892578125 391.811523438 -63.021484375 274.663085938 -63.021484375 c 0
 197.512695312 -63.021484375 128.649414062 -27.505859375 91.34765625 35.9990234375 c 1
 164.8671875 106.999023438 l 1
 173.211914062 103.319335938 169.551757812 93.220703125 170.913085938 86.7060546875 c 0
 172.8203125 77.5810546875 201.110351562 13.7587890625 288.44921875 13.7587890625 c 0
 359.368164062 13.7587890625 410.287109375 57.0380859375 418.749023438 105.025390625 c 0
 423.524414062 132.110351562 415.303710938 163.981445312 380.008789062 187.298828125 c 0
 336.986328125 215.720703125 271.932617188 219.874023438 220.157226562 254.02734375 c 0
 174.065429688 284.431640625 159.194335938 326.186523438 166.229492188 366.086914062 c 0
 175.459960938 418.4296875 222.573242188 463.115234375 281.340820312 482.822265625 c 1
 232.131835938 517.145507812 219.00390625 567.7109375 227.100585938 613.6328125 c 0
 242.678710938 701.981445312 336.610351562 778.26953125 445.166015625 778.26953125 c 0
 521.825195312 778.26953125 582.552734375 738.83203125 607.197265625 676 c 1
320.171875 461.795898438 m 1
 287.576171875 451.723632812 260.573242188 423.141601562 254.633789062 389.458007812 c 0
 250.075195312 363.602539062 257.19140625 327.8984375 302.0546875 303.875976562 c 0
 333.98828125 286.776367188 373.173828125 281.479492188 411.89453125 264.586914062 c 1
 439.482421875 277.359375 460.984375 303.587890625 466.298828125 333.720703125 c 0
 470.95703125 360.138671875 464.390625 398.166015625 415.19921875 424.75390625 c 0
 388.026367188 439.440429688 353.528320312 447.456054688 320.171875 461.795898438 c 1
EndSplineSet
EndChar

StartChar: dieresis
Encoding: 168 168 104
Width: 600
GlyphClass: 2
Flags: W
LayerCount: 2
Fore
SplineSet
382.475585938 711.498046875 m 0
 376.78125 679.2109375 345.926757812 652.981445312 313.640625 652.981445312 c 0
 281.350585938 652.981445312 259.743164062 679.208984375 265.4375 711.499023438 c 0
 271.130859375 743.7890625 301.984375 770.01953125 334.274414062 770.01953125 c 0
 366.564453125 770.01953125 388.168945312 743.7890625 382.475585938 711.498046875 c 0
588.461914062 711.51171875 m 0
 582.758789062 679.16796875 552.09765625 652.991210938 520.146484375 652.991210938 c 0
 488.202148438 652.991210938 466.751953125 679.155273438 472.458007812 711.514648438 c 0
 478.162109375 743.862304688 508.831054688 770.03515625 540.787109375 770.03515625 c 0
 572.71484375 770.03515625 594.168945312 743.876953125 588.461914062 711.51171875 c 0
EndSplineSet
EndChar

StartChar: copyright
Encoding: 169 169 105
Width: 600
GlyphClass: 2
Flags: W
LayerCount: 2
Fore
SplineSet
400.212890625 491.090820312 m 0
 473.13671875 491.090820312 521.58203125 445.505859375 525.712890625 383.999023438 c 1
 461.657226562 360.999023438 l 1
 456.560546875 368.85546875 461.85546875 377.022460938 461.330078125 384.630859375 c 0
 460.745117188 393.116210938 449.760742188 433.15234375 392.494140625 433.15234375 c 0
 337.801757812 433.15234375 278.361328125 399.046875 265.65625 326.991210938 c 0
 253.298828125 256.911132812 292.009765625 201.947265625 352.844726562 201.947265625 c 0
 389.141601562 201.947265625 425.990234375 222.045898438 448.788085938 254 c 1
 493.79296875 220 l 1
 453.184570312 171.426757812 393.932617188 140.973632812 336.987304688 140.973632812 c 0
 242.741210938 140.973632812 182.120117188 222.733398438 199.169921875 319.4296875 c 0
 216.610351562 418.337890625 306.827148438 491.090820312 400.212890625 491.090820312 c 0
310.168945312 21.88671875 m 0
 156.807617188 21.88671875 52.60546875 152.28515625 81.7158203125 317.374023438 c 0
 110.979492188 483.338867188 261.64453125 614.018554688 415.038085938 614.018554688 c 0
 568.0078125 614.018554688 672.321289062 483.765625 643.138671875 318.260742188 c 0
 613.8984375 152.430664062 463.333007812 21.88671875 310.168945312 21.88671875 c 0
134.767578125 317.797851562 m 0
 110.418945312 179.709960938 195.620117188 71.9091796875 320.510742188 71.9091796875 c 0
 445.015625 71.9091796875 568.686523438 179.645507812 593.201171875 318.68359375 c 0
 617.65234375 457.350585938 532.288085938 564.999023438 407.771484375 564.999023438 c 0
 283.06640625 564.999023438 159.321289062 457.057617188 134.767578125 317.797851562 c 0
EndSplineSet
EndChar

StartChar: ordfeminine
Encoding: 170 170 106
Width: 600
GlyphClass: 2
Flags: W
LayerCount: 2
Fore
SplineSet
267.670898438 656 m 1
 318.133789062 704 380.130859375 721 435.130859375 721 c 0
 498.130859375 721 546.72265625 696 561.728515625 645 c 0
 569.14453125 619 565.384765625 592 560.094726562 562 c 2
 515.483398438 309 l 1
 442.483398438 309 l 1
 449.359375 348 l 1
 409.71875 316 361.544921875 298 316.544921875 298 c 0
 236.544921875 298 190.594726562 355 201.879882812 419 c 0
 208.580078125 457 237.162109375 500 289.747070312 526 c 0
 336.63671875 549.05859375 387.95703125 551.092773438 436.4453125 551.092773438 c 0
 446.8359375 551.092773438 457.096679688 551 467.154296875 551 c 2
 484.154296875 551 l 1
 486.623046875 565 l 2
 490.149414062 585 493.676757812 605 484.203125 625 c 0
 474.729492188 645 453.198242188 659 417.198242188 659 c 0
 376.198242188 659 331.5546875 644 299.20703125 608 c 1
 267.670898438 656 l 1
476.575195312 491 m 1
 457.57421875 491.000976562 l 2
 444.241210938 491.000976562 429.200195312 491.395507812 413.892578125 491.395507812 c 0
 394.755859375 491.395507812 375.203125 490.778320312 358.046875 488 c 0
 305.459960938 479 281.817382812 447 277.409179688 422 c 0
 271.767578125 390 294.653320312 361 339.653320312 361 c 0
 374.653320312 361 410.650390625 378 434.000976562 397 c 0
 463.056640625 420 468.288085938 444 473.048828125 471 c 2
 476.575195312 491 l 1
140.141601562 239.000976562 m 1
 545.141601562 239.000976562 l 1
 534.03125 176.000976562 l 1
 129.03125 176.000976562 l 1
 140.141601562 239.000976562 l 1
EndSplineSet
EndChar

StartChar: guillemotleft
Encoding: 171 171 107
Width: 600
GlyphClass: 2
Flags: W
LayerCount: 2
Fore
SplineSet
349.6640625 293 m 1
 555.815429688 464 l 1
 592.3515625 416 l 1
 428.1953125 279 l 1
 547.629882812 117 l 1
 493.51953125 71 l 1
 344.903320312 266 l 1
 349.6640625 293 l 1
139.6640625 293 m 1
 345.815429688 464 l 1
 382.3515625 416 l 1
 218.1953125 279 l 1
 337.629882812 117 l 1
 283.51953125 71 l 1
 134.903320312 266 l 1
 139.6640625 293 l 1
EndSplineSet
EndChar

StartChar: logicalnot
Encoding: 172 172 108
Width: 600
GlyphClass: 2
Flags: W
LayerCount: 2
Fore
SplineSet
186.883789062 402 m 1
 560.883789062 402 l 1
 522.091796875 182 l 1
 448.091796875 182 l 1
 474.01171875 329 l 1
 174.01171875 329 l 1
 186.883789062 402 l 1
EndSplineSet
EndChar

StartChar: softhyphen
Encoding: 173 173 109
Width: 600
GlyphClass: 2
Flags: W
LayerCount: 2
Fore
SplineSet
163.059570312 403 m 1
 580.059570312 403 l 1
 566.482421875 326 l 1
 149.482421875 326 l 1
 163.059570312 403 l 1
EndSplineSet
EndChar

StartChar: registered
Encoding: 174 174 110
Width: 600
GlyphClass: 2
Flags: W
LayerCount: 2
Fore
SplineSet
309.87890625 22 m 0
 156.87890625 22 52.8017578125 152 81.8955078125 317 c 0
 111.166015625 483 261.264648438 614 415.264648438 614 c 0
 568.264648438 614 672.341796875 484 643.072265625 318 c 0
 613.801757812 152 462.87890625 22 309.87890625 22 c 0
135.072265625 318 m 0
 110.739257812 180 195.6953125 72 320.6953125 72 c 0
 444.6953125 72 568.739257812 180 593.248046875 319 c 0
 617.581054688 457 532.625 565 407.625 565 c 0
 282.625 565 159.581054688 457 135.072265625 318 c 0
217.154296875 154 m 1
 276.754882812 492 l 1
 385.754882812 492 l 2
 411.754882812 492 438.754882812 492 463.814453125 481 c 0
 499.81640625 464 514.646484375 429 508.474609375 394 c 0
 501.244140625 353 466.720703125 316 424.779296875 305 c 1
 474.211914062 160 l 1
 417.801757812 152 l 1
 371.369140625 297 l 1
 295.369140625 297 l 1
 270.154296875 154 l 1
 217.154296875 154 l 1
321.467773438 445 m 1
 303.482421875 343 l 1
 363.482421875 343 l 2
 382.482421875 343 405.482421875 343 425.598632812 355 c 0
 443.185546875 364 452.830078125 379 455.474609375 394 c 0
 458.120117188 409 452.94140625 425 436.704101562 435 c 0
 420.467773438 445 397.467773438 445 378.467773438 445 c 2
 321.467773438 445 l 1
EndSplineSet
EndChar

StartChar: macron
Encoding: 175 175 111
Width: 600
GlyphClass: 2
Flags: W
LayerCount: 2
Fore
SplineSet
279.955078125 720 m 1
 573.955078125 720 l 1
 562.494140625 655 l 1
 268.494140625 655 l 1
 279.955078125 720 l 1
EndSplineSet
EndChar

StartChar: degree
Encoding: 176 176 112
Width: 600
GlyphClass: 2
Flags: W
LayerCount: 2
Fore
SplineSet
566.055664062 584.452148438 m 0
 550.942382812 498.74609375 468.583984375 428.901367188 382.065429688 428.901367188 c 0
 295.58984375 428.901367188 237.841796875 498.734375 252.959960938 584.4765625 c 0
 268.069335938 670.166992188 350.415039062 740.0078125 436.918945312 740.0078125 c 0
 523.4375 740.0078125 581.16796875 670.157226562 566.055664062 584.452148438 c 0
427.361328125 679 m 0
 380.245117188 679 333.524414062 638.291015625 324.272460938 585.821289062 c 0
 315.065429688 533.608398438 347.275390625 492.876953125 394.499023438 492.876953125 c 0
 441.470703125 492.876953125 488.162109375 533.5546875 497.43359375 586.129882812 c 0
 506.637695312 638.326171875 474.4375 679 427.361328125 679 c 0
EndSplineSet
EndChar

StartChar: plusminus
Encoding: 177 177 113
Width: 600
GlyphClass: 2
Flags: W
LayerCount: 2
Fore
SplineSet
79.3984375 93 m 1
 556.3984375 93 l 1
 543.526367188 20 l 1
 66.5263671875 20 l 1
 79.3984375 93 l 1
384.43359375 666 m 1
 457.43359375 666 l 1
 422.520507812 468 l 1
 620.520507812 468 l 1
 608.001953125 397 l 1
 410.001953125 397 l 1
 371.73828125 180 l 1
 298.73828125 180 l 1
 337.001953125 397 l 1
 132.001953125 397 l 1
 144.520507812 468 l 1
 349.520507812 468 l 1
 384.43359375 666 l 1
EndSplineSet
EndChar

StartChar: uni00B2
Encoding: 178 178 114
Width: 600
GlyphClass: 2
Flags: W
LayerCount: 2
Fore
SplineSet
252.202148438 642 m 1
 297.643554688 702.486328125 369.00390625 738.2890625 439.274414062 738.2890625 c 0
 531.513671875 738.2890625 583.684570312 678.772460938 571.3046875 608.5625 c 0
 561.630859375 553.701171875 517.284179688 516.004882812 498.149414062 500.834960938 c 0
 444.645507812 458.41796875 375.26953125 428.352539062 297.770507812 356.000976562 c 1
 508.770507812 356.000976562 l 2
 514.055664062 356.000976562 516.59375 356.7421875 522.008789062 360.794921875 c 0
 524.783203125 362.872070312 531.454101562 368.497070312 538.534179688 366.000976562 c 1
 525.663085938 293.000976562 l 1
 201.663085938 293.000976562 l 1
 210.655273438 344.000976562 l 1
 290.952148438 433.276367188 386.029296875 489.779296875 425.70703125 517.997070312 c 0
 464.150390625 545.338867188 495.203125 573.311523438 501.349609375 608.166992188 c 0
 507.833007812 644.932617188 481.987304688 678.91796875 426.586914062 678.91796875 c 0
 382.083984375 678.91796875 340.1796875 655.762695312 315.256835938 629.982421875 c 0
 307.612304688 622.076171875 307.521484375 616.904296875 299.854492188 606 c 1
 252.202148438 642 l 1
EndSplineSet
EndChar

StartChar: uni00B3
Encoding: 179 179 115
Width: 600
GlyphClass: 2
Flags: W
LayerCount: 2
Fore
SplineSet
438.870117188 739.110351562 m 0
 525.208984375 739.110351562 580.333007812 681.24609375 568.572265625 614.548828125 c 0
 561.09765625 572.149414062 527.982421875 536.233398438 487.3984375 523.998046875 c 1
 534.930664062 515.326171875 563.481445312 473.420898438 554.884765625 424.666992188 c 0
 541.532226562 348.94140625 448.624023438 290.98828125 356.215820312 290.98828125 c 0
 293.01171875 290.98828125 237.756835938 318.469726562 204.5390625 365.999023438 c 1
 269.118164062 425.999023438 l 1
 277.41796875 415.15234375 270.643554688 404.24609375 279.578125 393.712890625 c 0
 284.630859375 387.755859375 313.997070312 355.986328125 368.852539062 355.986328125 c 0
 425.662109375 355.986328125 477.18359375 389.768554688 484.454101562 431.008789062 c 0
 488.212890625 452.32421875 482.627929688 495.1015625 393.938476562 495.1015625 c 0
 381.928710938 495.1015625 370.35546875 494.368164062 358.931640625 493 c 1
 369.157226562 551 l 1
 376.6640625 550.270507812 384.262695312 549.89453125 391.934570312 549.89453125 c 0
 467.8515625 549.89453125 494.3203125 582.896484375 499.012695312 609.502929688 c 0
 505.125976562 644.172851562 476.716796875 678.0390625 424.598632812 678.0390625 c 0
 385.40625 678.0390625 340.987304688 658.778320312 307.028320312 624.000976562 c 1
 272.610351562 667.000976562 l 1
 319.654296875 713.015625 380.541015625 739.110351562 438.870117188 739.110351562 c 0
EndSplineSet
EndChar

StartChar: acute
Encoding: 180 180 116
Width: 600
GlyphClass: 2
Flags: W
LayerCount: 2
Fore
SplineSet
490.825195312 810 m 1
 555.185546875 761 l 1
 410.678710938 605 l 1
 358.850585938 640 l 1
 490.825195312 810 l 1
EndSplineSet
EndChar

StartChar: micro
Encoding: 181 181 117
Width: 600
GlyphClass: 2
Flags: W
LayerCount: 2
Fore
SplineSet
3.96875 -193 m 1
 28.5966796875 -59 76.3427734375 87 102.262695312 234 c 2
 154.278320312 529 l 1
 230.278320312 529 l 1
 174.911132812 215 l 2
 168.740234375 180 163.920898438 147 174.278320312 115 c 0
 187.873046875 73 220.817382812 50 257.817382812 50 c 0
 299.817382812 50 345.931640625 79 374.21875 126 c 0
 392.508789062 156 399.798828125 186 406.146484375 222 c 2
 460.278320312 529 l 1
 534.278320312 529 l 1
 464.62890625 134 l 2
 461.455078125 116 457.751953125 95 464.754882812 78 c 0
 469.93359375 62 482.698242188 55 496.698242188 55 c 0
 536.698242188 55 570.572265625 111 570.572265625 111 c 1
 591.168945312 52 l 1
 563.173828125 18 520.883789062 -12 477.883789062 -12 c 0
 428.883789062 -12 395.9375 28 398.75390625 78 c 1
 362.055664062 23 300.708007812 -13 240.708007812 -13 c 0
 184.708007812 -13 138.350585938 19 123.342773438 70 c 1
 107.826171875 -18 92.3095703125 -106 75.96875 -193 c 1
 3.96875 -193 l 1
EndSplineSet
EndChar

StartChar: paragraph
Encoding: 182 182 118
Width: 600
GlyphClass: 2
Flags: W
LayerCount: 2
Fore
SplineSet
650.948242188 771 m 1
 501.0703125 -79.001953125 l 1
 434.0703125 -79.001953125 l 1
 572.311523438 704.998046875 l 1
 484.311523438 704.998046875 l 1
 346.0703125 -79.001953125 l 1
 277.0703125 -79.001953125 l 1
 356.770507812 372.998046875 l 1
 240.682617188 380.689453125 166.842773438 470.14453125 185.250976562 574.543945312 c 0
 197.7890625 645.649414062 251.7578125 713.3828125 334.540039062 746.68359375 c 0
 394.413085938 770.76953125 452.1796875 771 505.948242188 771 c 2
 650.948242188 771 l 1
EndSplineSet
EndChar

StartChar: periodcentered
Encoding: 183 183 119
Width: 600
GlyphClass: 2
Flags: W
LayerCount: 2
Fore
SplineSet
422.623046875 383.493164062 m 0
 416.188476562 347.008789062 380.439453125 316.954101562 342.329101562 316.954101562 c 0
 304.301757812 316.954101562 279.133789062 346.98046875 285.575195312 383.508789062 c 0
 292.001953125 419.962890625 327.73046875 450.001953125 365.80859375 450.001953125 c 0
 403.904296875 450.001953125 429.051757812 419.9609375 422.623046875 383.493164062 c 0
EndSplineSet
EndChar

StartChar: cedilla
Encoding: 184 184 120
Width: 600
GlyphClass: 2
Flags: W
LayerCount: 2
Fore
SplineSet
313 0 m 1
 363.000976562 0 l 1
 347.302734375 -55 l 1
 366.126953125 -56 l 2
 380.950195312 -57 395.774414062 -58 409.540039062 -65 c 0
 429.600585938 -76 438.072265625 -96 434.018554688 -119 c 0
 426.788085938 -160 377.853515625 -205 292.853515625 -205 c 0
 248.853515625 -205 201.146484375 -192 163.435546875 -162 c 1
 200.8984375 -114 l 1
 231.78515625 -143 273.668945312 -155 308.668945312 -155 c 0
 353.668945312 -155 364.842773438 -137 366.60546875 -127 c 0
 367.840820312 -120 365.250976562 -112 357.1328125 -107 c 0
 346.543945312 -99 329.543945312 -99 316.543945312 -99 c 2
 282.543945312 -99 l 1
 313 0 l 1
EndSplineSet
EndChar

StartChar: uni00B9
Encoding: 185 185 121
Width: 600
GlyphClass: 2
Flags: W
LayerCount: 2
Fore
SplineSet
485.248046875 733 m 1
 407.6640625 293 l 1
 333.6640625 293 l 1
 395.025390625 641 l 1
 277.912109375 612 l 1
 265.259765625 648 l 1
 435.248046875 733 l 1
 485.248046875 733 l 1
EndSplineSet
EndChar

StartChar: ordmasculine
Encoding: 186 186 122
Width: 600
GlyphClass: 2
Flags: W
LayerCount: 2
Fore
SplineSet
428.959960938 721.010742188 m 0
 512.356445312 721.010742188 585.391601562 653.806640625 560.873046875 514.754882812 c 0
 534.430664062 364.791992188 431.723632812 296.939453125 346.95703125 296.939453125 c 0
 255.18359375 296.939453125 186.852539062 374.4453125 209.14453125 500.868164062 c 0
 232.579101562 633.778320312 332.635742188 721.010742188 428.959960938 721.010742188 c 0
280.245117188 506.212890625 m 0
 263.138671875 409.1953125 309.069335938 363.923828125 360.563476562 363.923828125 c 0
 410.100585938 363.923828125 472.672851562 406.471679688 490.258789062 506.206054688 c 0
 507.768554688 605.5078125 465.215820312 655.999023438 411.875976562 655.999023438 c 0
 359.004882812 655.999023438 297.8515625 606.055664062 280.245117188 506.212890625 c 0
140.14453125 238.999023438 m 1
 545.14453125 238.999023438 l 1
 534.034179688 175.999023438 l 1
 129.034179688 175.999023438 l 1
 140.14453125 238.999023438 l 1
EndSplineSet
EndChar

StartChar: guillemotright
Encoding: 187 187 123
Width: 600
GlyphClass: 2
Flags: W
LayerCount: 2
Fore
SplineSet
368.6640625 293 m 1
 363.90234375 266 l 1
 146.51953125 71 l 1
 108.629882812 117 l 1
 285.1953125 279 l 1
 169.352539062 416 l 1
 222.815429688 464 l 1
 368.6640625 293 l 1
578.663085938 293 m 1
 573.901367188 266 l 1
 356.518554688 71 l 1
 318.62890625 117 l 1
 495.194335938 279 l 1
 379.3515625 416 l 1
 432.814453125 464 l 1
 578.663085938 293 l 1
EndSplineSet
EndChar

StartChar: onequarter
Encoding: 188 188 124
Width: 600
GlyphClass: 2
Flags: W
LayerCount: 2
Fore
SplineSet
94.6494140625 -19 m 1
 596.771484375 770 l 1
 646.305664062 739 l 1
 143.360351562 -49 l 1
 94.6494140625 -19 l 1
515.954101562 279.900390625 m 1
 551.954101562 279.900390625 l 1
 511.892578125 52.7001953125 l 1
 570.291992188 52.7001953125 l 1
 562.534179688 8.7001953125 l 1
 504.133789062 8.7001953125 l 1
 488.334960938 -80.900390625 l 1
 435.534179688 -80.900390625 l 1
 451.474609375 9.5 l 1
 282.674804688 9.5 l 1
 288.458984375 42.2998046875 l 1
 515.954101562 279.900390625 l 1
484.013671875 189.5 m 1
 351.091796875 52.7001953125 l 1
 459.892578125 52.7001953125 l 1
 484.013671875 189.5 l 1
315.81640625 785 m 1
 253.75 433 l 1
 194.549804688 433 l 1
 243.638671875 711.400390625 l 1
 149.948242188 688.200195312 l 1
 139.826171875 717 l 1
 275.81640625 785 l 1
 315.81640625 785 l 1
EndSplineSet
EndChar

StartChar: onehalf
Encoding: 189 189 125
Width: 600
GlyphClass: 2
Flags: W
LayerCount: 2
Fore
SplineSet
94.6494140625 -19 m 1
 596.771484375 770 l 1
 646.305664062 739 l 1
 143.360351562 -49 l 1
 94.6494140625 -19 l 1
346.8359375 194.727539062 m 1
 383.188476562 243.1171875 440.279296875 271.758789062 496.49609375 271.758789062 c 0
 570.287109375 271.758789062 612.0234375 224.14453125 602.119140625 167.9765625 c 0
 594.380859375 124.087890625 558.90234375 93.931640625 543.594726562 81.794921875 c 0
 500.791992188 47.861328125 445.291015625 23.8095703125 383.291992188 -34.072265625 c 1
 552.091796875 -34.072265625 l 2
 556.319335938 -34.072265625 558.349609375 -33.4794921875 562.681640625 -30.236328125 c 0
 564.901367188 -28.5751953125 570.23828125 -24.0751953125 575.90234375 -26.072265625 c 1
 565.60546875 -84.4716796875 l 1
 306.405273438 -84.4716796875 l 1
 313.598632812 -43.671875 l 1
 377.8359375 27.748046875 453.8984375 72.9501953125 485.640625 95.5244140625 c 0
 516.39453125 117.3984375 541.237304688 139.776367188 546.154296875 167.661132812 c 0
 551.340820312 197.073242188 530.6640625 224.26171875 486.34375 224.26171875 c 0
 450.741210938 224.26171875 417.217773438 205.737304688 397.279296875 185.11328125 c 0
 391.1640625 178.7890625 391.090820312 174.651367188 384.95703125 165.927734375 c 1
 346.8359375 194.727539062 l 1
315.81640625 785 m 1
 253.75 433 l 1
 194.549804688 433 l 1
 243.638671875 711.400390625 l 1
 149.948242188 688.200195312 l 1
 139.826171875 717 l 1
 275.81640625 785 l 1
 315.81640625 785 l 1
EndSplineSet
EndChar

StartChar: threequarters
Encoding: 190 190 126
Width: 600
GlyphClass: 2
Flags: W
LayerCount: 2
Fore
SplineSet
100.649414062 -19 m 1
 602.771484375 770 l 1
 652.305664062 739 l 1
 149.360351562 -49 l 1
 100.649414062 -19 l 1
295.540039062 792.297851562 m 0
 364.610351562 792.297851562 408.708007812 746.0078125 399.299804688 692.650390625 c 0
 393.319335938 658.73046875 366.827148438 629.998046875 334.360351562 620.209960938 c 1
 372.385742188 613.272460938 395.2265625 579.748046875 388.349609375 540.745117188 c 0
 377.666992188 480.1640625 303.340820312 433.801757812 229.4140625 433.801757812 c 0
 178.850585938 433.801757812 134.646484375 455.787109375 108.072265625 493.809570312 c 1
 159.735351562 541.809570312 l 1
 166.375976562 533.1328125 160.956054688 524.407226562 168.104492188 515.981445312 c 0
 172.146484375 511.215820312 195.639648438 485.799804688 239.5234375 485.799804688 c 0
 284.971679688 485.799804688 326.188476562 512.825195312 332.004882812 545.817382812 c 0
 335.012695312 562.869140625 330.543945312 597.090820312 259.592773438 597.090820312 c 0
 249.985351562 597.090820312 240.7265625 596.50390625 231.587890625 595.41015625 c 1
 239.768554688 641.809570312 l 1
 245.774414062 641.225585938 251.853515625 640.924804688 257.991210938 640.924804688 c 0
 318.724609375 640.924804688 339.899414062 667.327148438 343.653320312 688.611328125 c 0
 348.543945312 716.34765625 325.81640625 743.440429688 284.122070312 743.440429688 c 0
 252.768554688 743.440429688 217.233398438 728.03125 190.06640625 700.209960938 c 1
 162.53125 734.610351562 l 1
 200.166992188 771.421875 248.875976562 792.297851562 295.540039062 792.297851562 c 0
515.954101562 279.900390625 m 1
 551.954101562 279.900390625 l 1
 511.892578125 52.7001953125 l 1
 570.291992188 52.7001953125 l 1
 562.534179688 8.7001953125 l 1
 504.133789062 8.7001953125 l 1
 488.334960938 -80.900390625 l 1
 435.534179688 -80.900390625 l 1
 451.474609375 9.5 l 1
 282.674804688 9.5 l 1
 288.458984375 42.2998046875 l 1
 515.954101562 279.900390625 l 1
484.013671875 189.5 m 1
 351.091796875 52.7001953125 l 1
 459.892578125 52.7001953125 l 1
 484.013671875 189.5 l 1
EndSplineSet
EndChar

StartChar: questiondown
Encoding: 191 191 127
Width: 600
GlyphClass: 2
Flags: W
LayerCount: 2
Fore
SplineSet
344.375 704.475585938 m 0
 350.80859375 740.959960938 386.557617188 771.014648438 424.668945312 771.014648438 c 0
 462.6953125 771.014648438 487.86328125 740.98828125 481.422851562 704.459960938 c 0
 474.995117188 668.005859375 439.267578125 637.966796875 401.1875 637.966796875 c 0
 363.09375 637.966796875 337.9453125 668.0078125 344.375 704.475585938 c 0
535.844726562 105.96875 m 1
 471.720703125 28.2783203125 377.861328125 -15.0908203125 291.096679688 -15.0908203125 c 0
 159.799804688 -15.0908203125 102.260742188 81.3359375 121.303710938 189.330078125 c 0
 140.501953125 298.212890625 224.870117188 342.302734375 269.10546875 376.29296875 c 0
 324.294921875 418.700195312 333.05859375 453.133789062 340.259765625 493.96875 c 2
 348.72265625 541.96875 l 1
 424.72265625 541.96875 l 1
 416.259765625 493.96875 l 2
 407.087890625 441.955078125 396.634765625 401.163085938 335.53515625 344.956054688 c 0
 293.732421875 306.500976562 225.282226562 259.172851562 211.896484375 183.259765625 c 0
 199.823242188 114.787109375 242.934570312 60.81640625 312.249023438 60.81640625 c 0
 370.836914062 60.81640625 439.224609375 99.857421875 486.54296875 160.96875 c 1
 535.844726562 105.96875 l 1
EndSplineSet
EndChar

StartChar: Agrave
Encoding: 192 192 128
Width: 600
GlyphClass: 2
Flags: W
LayerCount: 2
Fore
SplineSet
381.69140625 917 m 1
 540.354492188 813 l 1
 504.890625 765 l 1
 321.409179688 836 l 1
 381.69140625 917 l 1
26.8232421875 -1 m 1
 411.600585938 735 l 1
 420.600585938 735 l 1
 570 0 l 1
 486 0 l 1
 443.205078125 211 l 1
 214.205078125 211 l 1
 106.823242188 -1 l 1
 26.8232421875 -1 l 1
436.3125 274 m 1
 382.803710938 549 l 1
 241.313476562 274 l 1
 436.3125 274 l 1
EndSplineSet
EndChar

StartChar: Aacute
Encoding: 193 193 129
Width: 600
GlyphClass: 2
Flags: W
LayerCount: 2
Fore
SplineSet
528.69140625 917 m 1
 560.409179688 836 l 1
 351.890625 765 l 1
 333.354492188 813 l 1
 528.69140625 917 l 1
26.8232421875 -1 m 1
 411.600585938 735 l 1
 420.600585938 735 l 1
 570 0 l 1
 486 0 l 1
 443.205078125 211 l 1
 214.205078125 211 l 1
 106.823242188 -1 l 1
 26.8232421875 -1 l 1
436.3125 274 m 1
 382.803710938 549 l 1
 241.313476562 274 l 1
 436.3125 274 l 1
EndSplineSet
EndChar

StartChar: Acircumflex
Encoding: 194 194 130
Width: 600
GlyphClass: 2
Flags: W
LayerCount: 2
Fore
SplineSet
269.4140625 802 m 1
 441.692382812 917 l 1
 466.692382812 917 l 1
 589.766601562 804 l 1
 544.008789062 760 l 1
 438.467773438 842 l 1
 295.537109375 763 l 1
 269.4140625 802 l 1
26.8232421875 -1 m 1
 411.600585938 735 l 1
 420.600585938 735 l 1
 570 0 l 1
 486 0 l 1
 443.205078125 211 l 1
 214.205078125 211 l 1
 106.823242188 -1 l 1
 26.8232421875 -1 l 1
436.3125 274 m 1
 382.803710938 549 l 1
 241.313476562 274 l 1
 436.3125 274 l 1
EndSplineSet
EndChar

StartChar: Atilde
Encoding: 195 195 131
Width: 600
GlyphClass: 2
Flags: W
LayerCount: 2
Fore
SplineSet
301.650390625 792 m 1
 256.17578125 829 l 1
 310.997070312 896.836914062 359.708984375 929.267578125 404.884765625 929.267578125 c 0
 451.717773438 929.267578125 476.794921875 895.067382812 488.94921875 879.549804688 c 0
 504.279296875 859.978515625 518.672851562 842.9296875 540.290039062 842.9296875 c 0
 568.869140625 842.9296875 587.202148438 869.991210938 618.399414062 904 c 1
 653.2890625 858 l 1
 604.440429688 808.139648438 567.176757812 775.75390625 524.435546875 775.75390625 c 0
 457.05078125 775.75390625 441.130859375 863.431640625 390.090820312 863.431640625 c 0
 359.3984375 863.431640625 337.310546875 836.786132812 301.650390625 792 c 1
26.8232421875 -1 m 1
 411.600585938 735 l 1
 420.600585938 735 l 1
 570 0 l 1
 486 0 l 1
 443.205078125 211 l 1
 214.205078125 211 l 1
 106.823242188 -1 l 1
 26.8232421875 -1 l 1
436.3125 274 m 1
 382.803710938 549 l 1
 241.313476562 274 l 1
 436.3125 274 l 1
EndSplineSet
EndChar

StartChar: Adieresis
Encoding: 196 196 132
Width: 600
GlyphClass: 2
Flags: W
LayerCount: 2
Fore
SplineSet
394.8671875 855.498046875 m 0
 389.172851562 823.2109375 358.318359375 796.981445312 326.032226562 796.981445312 c 0
 293.7421875 796.981445312 272.134765625 823.208984375 277.829101562 855.499023438 c 0
 283.522460938 887.7890625 314.375976562 914.018554688 346.666015625 914.018554688 c 0
 378.956054688 914.018554688 400.560546875 887.7890625 394.8671875 855.498046875 c 0
600.852539062 855.51171875 m 0
 595.149414062 823.16796875 564.487304688 796.991210938 532.536132812 796.991210938 c 0
 500.591796875 796.991210938 479.142578125 823.155273438 484.84765625 855.513671875 c 0
 490.551757812 887.862304688 521.220703125 914.03515625 553.176757812 914.03515625 c 0
 585.10546875 914.03515625 606.559570312 887.876953125 600.852539062 855.51171875 c 0
26.8232421875 -1 m 1
 411.600585938 735 l 1
 420.600585938 735 l 1
 570 0 l 1
 486 0 l 1
 443.205078125 211 l 1
 214.205078125 211 l 1
 106.823242188 -1 l 1
 26.8232421875 -1 l 1
436.3125 274 m 1
 382.803710938 549 l 1
 241.313476562 274 l 1
 436.3125 274 l 1
EndSplineSet
EndChar

StartChar: Aring
Encoding: 197 197 133
Width: 600
GlyphClass: 2
Flags: W
LayerCount: 2
Fore
SplineSet
538.416015625 818.997070312 m 0
 528.568359375 763.14453125 473.458007812 716.958007812 414.342773438 716.958007812 c 0
 355.368164062 716.958007812 316.4765625 763.100585938 326.344726562 819.065429688 c 0
 336.181640625 874.856445312 391.2578125 921.004882812 450.30859375 921.004882812 c 0
 509.41015625 921.004882812 548.262695312 874.836914062 538.416015625 818.997070312 c 0
385.461914062 819.774414062 m 0
 380.231445312 790.110351562 397.8515625 766.896484375 424.219726562 766.896484375 c 0
 450.256835938 766.896484375 476.3046875 789.836914062 481.634765625 820.068359375 c 0
 486.8828125 849.828125 469.267578125 873.01171875 442.958007812 873.01171875 c 0
 416.935546875 873.01171875 390.8046875 850.072265625 385.461914062 819.774414062 c 0
26.8232421875 -1 m 1
 411.600585938 735 l 1
 420.600585938 735 l 1
 570 0 l 1
 486 0 l 1
 443.205078125 211 l 1
 214.205078125 211 l 1
 106.823242188 -1 l 1
 26.8232421875 -1 l 1
436.3125 274 m 1
 382.803710938 549 l 1
 241.313476562 274 l 1
 436.3125 274 l 1
EndSplineSet
EndChar

StartChar: AE
Encoding: 198 198 134
Width: 600
GlyphClass: 2
Flags: W
LayerCount: 2
Fore
SplineSet
369.484375 723 m 1
 698.484375 723 l 1
 685.7890625 651 l 1
 484.7890625 651 l 1
 444.999023438 414 l 1
 613.999023438 414 l 1
 600.951171875 340 l 1
 432.951171875 340 l 1
 387.6953125 72 l 1
 580.6953125 72 l 1
 568 0 l 1
 302 0 l 1
 336.560546875 196 l 1
 185.560546875 196 l 1
 89 0 l 1
 15 0 l 1
 369.484375 723 l 1
416.7890625 651 m 1
 403.7890625 651 l 1
 214.374023438 263 l 1
 348.374023438 263 l 1
 416.7890625 651 l 1
EndSplineSet
EndChar

StartChar: Ccedilla
Encoding: 199 199 135
Width: 600
GlyphClass: 2
Flags: W
LayerCount: 2
Fore
SplineSet
313 0 m 1
 363 0 l 1
 347.301757812 -55 l 1
 366.125976562 -56 l 2
 380.94921875 -57 395.7734375 -58 409.5390625 -65 c 0
 429.599609375 -76 438.072265625 -96 434.017578125 -119 c 0
 426.788085938 -160 377.852539062 -205 292.852539062 -205 c 0
 248.852539062 -205 201.146484375 -192 163.434570312 -162 c 1
 200.8984375 -114 l 1
 231.78515625 -143 273.668945312 -155 308.668945312 -155 c 0
 353.668945312 -155 364.842773438 -137 366.606445312 -127 c 0
 367.840820312 -120 365.250976562 -112 357.1328125 -107 c 0
 346.543945312 -99 329.543945312 -99 316.543945312 -99 c 2
 282.543945312 -99 l 1
 313 0 l 1
459.984375 728 m 0
 555.908203125 728 632.674804688 672.041992188 656.151367188 585 c 1
 572.451171875 547 l 1
 567.779296875 550.736328125 568.93359375 557.018554688 569.172851562 558.375 c 0
 569.680664062 561.256835938 570.680664062 564.141601562 571.1875 567.015625 c 0
 572.13671875 572.403320312 570.973632812 575.396484375 569.374023438 579.368164062 c 0
 549.107421875 629.69921875 502.331054688 663.16796875 445.81640625 663.16796875 c 0
 343.75 663.16796875 233.985351562 555.779296875 200.1640625 363.96875 c 0
 165.7578125 168.838867188 239.643554688 57.994140625 345.880859375 57.994140625 c 0
 402.54296875 57.994140625 465.727539062 90.884765625 508.744140625 146 c 1
 561.8671875 107 l 1
 503.508789062 32.978515625 415.100585938 -12.001953125 328.993164062 -12.001953125 c 0
 210.061523438 -12.001953125 70.693359375 77.8505859375 119.880859375 356.806640625 c 0
 170.845703125 645.837890625 347.693359375 728 459.984375 728 c 0
EndSplineSet
EndChar

StartChar: Egrave
Encoding: 200 200 136
Width: 600
GlyphClass: 2
Flags: W
LayerCount: 2
Fore
SplineSet
381.69140625 917 m 1
 540.354492188 813 l 1
 504.890625 765 l 1
 321.409179688 836 l 1
 381.69140625 917 l 1
205.484375 723 m 1
 648.484375 723 l 1
 635.7890625 651 l 1
 269.7890625 651 l 1
 227.999023438 414 l 1
 529.999023438 414 l 1
 516.951171875 340 l 1
 214.951171875 340 l 1
 167.6953125 72 l 1
 530.6953125 72 l 1
 518 0 l 1
 78 0 l 1
 205.484375 723 l 1
EndSplineSet
EndChar

StartChar: Eacute
Encoding: 201 201 137
Width: 600
GlyphClass: 2
Flags: W
LayerCount: 2
Fore
SplineSet
548.69140625 917 m 1
 580.409179688 836 l 1
 371.889648438 765 l 1
 353.354492188 813 l 1
 548.69140625 917 l 1
205.484375 723 m 1
 648.484375 723 l 1
 635.7890625 651 l 1
 269.7890625 651 l 1
 227.999023438 414 l 1
 529.999023438 414 l 1
 516.951171875 340 l 1
 214.951171875 340 l 1
 167.6953125 72 l 1
 530.6953125 72 l 1
 518 0 l 1
 78 0 l 1
 205.484375 723 l 1
EndSplineSet
EndChar

StartChar: Ecircumflex
Encoding: 202 202 138
Width: 600
GlyphClass: 2
Flags: W
LayerCount: 2
Fore
SplineSet
279.4140625 802 m 1
 451.692382812 917 l 1
 476.692382812 917 l 1
 599.766601562 804 l 1
 554.008789062 760 l 1
 448.467773438 842 l 1
 305.537109375 763 l 1
 279.4140625 802 l 1
205.484375 723 m 1
 648.484375 723 l 1
 635.7890625 651 l 1
 269.7890625 651 l 1
 227.999023438 414 l 1
 529.999023438 414 l 1
 516.951171875 340 l 1
 214.951171875 340 l 1
 167.6953125 72 l 1
 530.6953125 72 l 1
 518 0 l 1
 78 0 l 1
 205.484375 723 l 1
EndSplineSet
EndChar

StartChar: Edieresis
Encoding: 203 203 139
Width: 600
GlyphClass: 2
Flags: W
LayerCount: 2
Fore
SplineSet
402.8671875 855.498046875 m 0
 397.172851562 823.2109375 366.318359375 796.981445312 334.032226562 796.981445312 c 0
 301.7421875 796.981445312 280.134765625 823.208984375 285.829101562 855.499023438 c 0
 291.522460938 887.7890625 322.375976562 914.018554688 354.666015625 914.018554688 c 0
 386.956054688 914.018554688 408.560546875 887.7890625 402.8671875 855.498046875 c 0
608.852539062 855.51171875 m 0
 603.149414062 823.16796875 572.487304688 796.991210938 540.536132812 796.991210938 c 0
 508.591796875 796.991210938 487.142578125 823.155273438 492.84765625 855.513671875 c 0
 498.551757812 887.862304688 529.220703125 914.03515625 561.176757812 914.03515625 c 0
 593.10546875 914.03515625 614.559570312 887.876953125 608.852539062 855.51171875 c 0
205.484375 723 m 1
 648.484375 723 l 1
 635.7890625 651 l 1
 269.7890625 651 l 1
 227.999023438 414 l 1
 529.999023438 414 l 1
 516.951171875 340 l 1
 214.951171875 340 l 1
 167.6953125 72 l 1
 530.6953125 72 l 1
 518 0 l 1
 78 0 l 1
 205.484375 723 l 1
EndSplineSet
EndChar

StartChar: Igrave
Encoding: 204 204 140
Width: 600
GlyphClass: 2
Flags: W
LayerCount: 2
Fore
SplineSet
381.69140625 917 m 1
 540.354492188 813 l 1
 504.890625 765 l 1
 321.409179688 836 l 1
 381.69140625 917 l 1
239.307617188 722 m 1
 597.30859375 722 l 1
 585.318359375 654 l 1
 442.317382812 654 l 1
 338.637695312 66 l 1
 488.637695312 66 l 1
 476.823242188 -1 l 1
 103.823242188 -1 l 1
 115.813476562 67 l 1
 257.8125 67 l 1
 361.317382812 654 l 1
 227.317382812 654 l 1
 239.307617188 722 l 1
EndSplineSet
EndChar

StartChar: Iacute
Encoding: 205 205 141
Width: 600
GlyphClass: 2
Flags: W
LayerCount: 2
Fore
SplineSet
548.69140625 917 m 1
 580.409179688 836 l 1
 371.889648438 765 l 1
 353.354492188 813 l 1
 548.69140625 917 l 1
239.307617188 722 m 1
 597.30859375 722 l 1
 585.318359375 654 l 1
 442.317382812 654 l 1
 338.637695312 66 l 1
 488.637695312 66 l 1
 476.823242188 -1 l 1
 103.823242188 -1 l 1
 115.813476562 67 l 1
 257.8125 67 l 1
 361.317382812 654 l 1
 227.317382812 654 l 1
 239.307617188 722 l 1
EndSplineSet
EndChar

StartChar: Icircumflex
Encoding: 206 206 142
Width: 600
GlyphClass: 2
Flags: W
LayerCount: 2
Fore
SplineSet
268.4140625 802 m 1
 440.692382812 917 l 1
 465.692382812 917 l 1
 588.766601562 804 l 1
 543.008789062 760 l 1
 437.467773438 842 l 1
 294.537109375 763 l 1
 268.4140625 802 l 1
239.307617188 722 m 1
 597.30859375 722 l 1
 585.318359375 654 l 1
 442.317382812 654 l 1
 338.637695312 66 l 1
 488.637695312 66 l 1
 476.823242188 -1 l 1
 103.823242188 -1 l 1
 115.813476562 67 l 1
 257.8125 67 l 1
 361.317382812 654 l 1
 227.317382812 654 l 1
 239.307617188 722 l 1
EndSplineSet
EndChar

StartChar: Idieresis
Encoding: 207 207 143
Width: 600
GlyphClass: 2
Flags: W
LayerCount: 2
Fore
SplineSet
398.8671875 855.498046875 m 0
 393.172851562 823.2109375 362.318359375 796.981445312 330.032226562 796.981445312 c 0
 297.7421875 796.981445312 276.134765625 823.208984375 281.829101562 855.499023438 c 0
 287.522460938 887.7890625 318.375976562 914.018554688 350.666015625 914.018554688 c 0
 382.956054688 914.018554688 404.560546875 887.7890625 398.8671875 855.498046875 c 0
604.852539062 855.51171875 m 0
 599.149414062 823.16796875 568.487304688 796.991210938 536.536132812 796.991210938 c 0
 504.591796875 796.991210938 483.142578125 823.155273438 488.84765625 855.513671875 c 0
 494.551757812 887.862304688 525.220703125 914.03515625 557.176757812 914.03515625 c 0
 589.10546875 914.03515625 610.559570312 887.876953125 604.852539062 855.51171875 c 0
239.307617188 722 m 1
 597.30859375 722 l 1
 585.318359375 654 l 1
 442.317382812 654 l 1
 338.637695312 66 l 1
 488.637695312 66 l 1
 476.823242188 -1 l 1
 103.823242188 -1 l 1
 115.813476562 67 l 1
 257.8125 67 l 1
 361.317382812 654 l 1
 227.317382812 654 l 1
 239.307617188 722 l 1
EndSplineSet
EndChar

StartChar: Eth
Encoding: 208 208 144
Width: 600
GlyphClass: 2
Flags: W
LayerCount: 2
Fore
SplineSet
228.307617188 722 m 1
 390.306640625 722 l 2
 453.306640625 722 502.249023438 716 545.724609375 679 c 0
 621.439453125 615 636.046875 488 614.358398438 365 c 0
 587.204101562 211 503.87109375 73 383.702148438 21 c 0
 339.352539062 2 299.822265625 -1 248.822265625 -1 c 2
 100.822265625 -1 l 1
 162.537109375 349 l 1
 106.537109375 349 l 1
 118.3515625 416 l 1
 174.3515625 416 l 1
 228.307617188 722 l 1
237.537109375 349 m 1
 187.63671875 66 l 1
 256.63671875 66 l 2
 297.63671875 66 336.98828125 68 382.926757812 96 c 0
 460.213867188 143 514.494140625 241 534.594726562 355 c 0
 548.877929688 436 547.5703125 525 514.150390625 585 c 0
 476.96484375 652 418.31640625 654 373.31640625 654 c 2
 291.31640625 654 l 1
 249.3515625 416 l 1
 370.3515625 416 l 1
 358.537109375 349 l 1
 237.537109375 349 l 1
EndSplineSet
EndChar

StartChar: Ntilde
Encoding: 209 209 145
Width: 600
GlyphClass: 2
Flags: W
LayerCount: 2
Fore
SplineSet
306.650390625 792 m 1
 261.17578125 829 l 1
 315.997070312 896.836914062 364.708984375 929.267578125 409.884765625 929.267578125 c 0
 456.717773438 929.267578125 481.794921875 895.067382812 493.94921875 879.549804688 c 0
 509.279296875 859.978515625 523.672851562 842.9296875 545.290039062 842.9296875 c 0
 573.869140625 842.9296875 592.202148438 869.991210938 623.399414062 904 c 1
 658.2890625 858 l 1
 609.440429688 808.139648438 572.176757812 775.75390625 529.435546875 775.75390625 c 0
 462.05078125 775.75390625 446.130859375 863.431640625 395.090820312 863.431640625 c 0
 364.3984375 863.431640625 342.310546875 836.786132812 306.650390625 792 c 1
68 0 m 1
 195.307617188 722 l 1
 274.307617188 722 l 1
 482.97265625 187 l 1
 577.484375 723 l 1
 663.484375 723 l 1
 663.224609375 716.254882812 659.228515625 710.682617188 657.499023438 708.219726562 c 0
 653.791015625 702.9375 651.439453125 700.057617188 650.018554688 692 c 2
 527.823242188 -1 l 1
 463.823242188 -1 l 1
 246.153320312 568 l 1
 146 0 l 1
 68 0 l 1
EndSplineSet
EndChar

StartChar: Ograve
Encoding: 210 210 146
Width: 600
GlyphClass: 2
Flags: W
LayerCount: 2
Fore
SplineSet
381.69140625 917 m 1
 540.354492188 813 l 1
 504.890625 765 l 1
 321.409179688 836 l 1
 381.69140625 917 l 1
619.3984375 359.50390625 m 0
 608.217773438 296.094726562 587.799804688 206.2734375 535.752929688 128.64453125 c 0
 471.260742188 32.45703125 380.483398438 -11.0146484375 302.54296875 -11.0146484375 c 0
 192.034179688 -11.0146484375 57.8232421875 78.3984375 107.849609375 362.11328125 c 0
 157.88671875 645.883789062 324.799804688 730 432.478515625 730 c 0
 511.071289062 730 585.521484375 686.669921875 616.512695312 593.90234375 c 0
 642.2890625 516.748046875 631.30859375 427.049804688 619.3984375 359.50390625 c 0
415.680664062 654.009765625 m 0
 339.815429688 654.009765625 227.635742188 587.911132812 189.680664062 372.659179688 c 0
 149.1953125 143.052734375 235.607421875 67.9873046875 316.822265625 67.9873046875 c 0
 365.403320312 67.9873046875 426.184570312 95.4453125 471.985351562 165.716796875 c 0
 512.548828125 227.951171875 528.267578125 301.614257812 536.603515625 348.897460938 c 0
 547.380859375 410.009765625 555.874023438 479.154296875 542.173828125 539.848632812 c 0
 523.282226562 623.54296875 466.91015625 654.009765625 415.680664062 654.009765625 c 0
EndSplineSet
EndChar

StartChar: Oacute
Encoding: 211 211 147
Width: 600
GlyphClass: 2
Flags: W
LayerCount: 2
Fore
SplineSet
548.69140625 917 m 1
 580.409179688 836 l 1
 371.889648438 765 l 1
 353.354492188 813 l 1
 548.69140625 917 l 1
619.3984375 359.50390625 m 0
 608.217773438 296.094726562 587.799804688 206.2734375 535.752929688 128.64453125 c 0
 471.260742188 32.45703125 380.483398438 -11.0146484375 302.54296875 -11.0146484375 c 0
 192.034179688 -11.0146484375 57.8232421875 78.3984375 107.849609375 362.11328125 c 0
 157.88671875 645.883789062 324.799804688 730 432.478515625 730 c 0
 511.071289062 730 585.521484375 686.669921875 616.512695312 593.90234375 c 0
 642.2890625 516.748046875 631.30859375 427.049804688 619.3984375 359.50390625 c 0
415.680664062 654.009765625 m 0
 339.815429688 654.009765625 227.635742188 587.911132812 189.680664062 372.659179688 c 0
 149.1953125 143.052734375 235.607421875 67.9873046875 316.822265625 67.9873046875 c 0
 365.403320312 67.9873046875 426.184570312 95.4453125 471.985351562 165.716796875 c 0
 512.548828125 227.951171875 528.267578125 301.614257812 536.603515625 348.897460938 c 0
 547.380859375 410.009765625 555.874023438 479.154296875 542.173828125 539.848632812 c 0
 523.282226562 623.54296875 466.91015625 654.009765625 415.680664062 654.009765625 c 0
EndSplineSet
EndChar

StartChar: Ocircumflex
Encoding: 212 212 148
Width: 600
GlyphClass: 2
Flags: W
LayerCount: 2
Fore
SplineSet
282.4140625 802 m 1
 454.692382812 917 l 1
 479.692382812 917 l 1
 602.766601562 804 l 1
 557.008789062 760 l 1
 451.467773438 842 l 1
 308.537109375 763 l 1
 282.4140625 802 l 1
619.3984375 359.50390625 m 0
 608.217773438 296.094726562 587.799804688 206.2734375 535.752929688 128.64453125 c 0
 471.260742188 32.45703125 380.483398438 -11.0146484375 302.54296875 -11.0146484375 c 0
 192.034179688 -11.0146484375 57.8232421875 78.3984375 107.849609375 362.11328125 c 0
 157.88671875 645.883789062 324.799804688 730 432.478515625 730 c 0
 511.071289062 730 585.521484375 686.669921875 616.512695312 593.90234375 c 0
 642.2890625 516.748046875 631.30859375 427.049804688 619.3984375 359.50390625 c 0
415.680664062 654.009765625 m 0
 339.815429688 654.009765625 227.635742188 587.911132812 189.680664062 372.659179688 c 0
 149.1953125 143.052734375 235.607421875 67.9873046875 316.822265625 67.9873046875 c 0
 365.403320312 67.9873046875 426.184570312 95.4453125 471.985351562 165.716796875 c 0
 512.548828125 227.951171875 528.267578125 301.614257812 536.603515625 348.897460938 c 0
 547.380859375 410.009765625 555.874023438 479.154296875 542.173828125 539.848632812 c 0
 523.282226562 623.54296875 466.91015625 654.009765625 415.680664062 654.009765625 c 0
EndSplineSet
EndChar

StartChar: Otilde
Encoding: 213 213 149
Width: 600
GlyphClass: 2
Flags: W
LayerCount: 2
Fore
SplineSet
306.650390625 792 m 1
 261.17578125 829 l 1
 315.997070312 896.836914062 364.708984375 929.267578125 409.884765625 929.267578125 c 0
 456.717773438 929.267578125 481.794921875 895.067382812 493.94921875 879.549804688 c 0
 509.279296875 859.978515625 523.672851562 842.9296875 545.290039062 842.9296875 c 0
 573.869140625 842.9296875 592.202148438 869.991210938 623.399414062 904 c 1
 658.2890625 858 l 1
 609.440429688 808.139648438 572.176757812 775.75390625 529.435546875 775.75390625 c 0
 462.05078125 775.75390625 446.130859375 863.431640625 395.090820312 863.431640625 c 0
 364.3984375 863.431640625 342.310546875 836.786132812 306.650390625 792 c 1
619.3984375 359.50390625 m 0
 608.217773438 296.094726562 587.799804688 206.2734375 535.752929688 128.64453125 c 0
 471.260742188 32.45703125 380.483398438 -11.0146484375 302.54296875 -11.0146484375 c 0
 192.034179688 -11.0146484375 57.8232421875 78.3984375 107.849609375 362.11328125 c 0
 157.88671875 645.883789062 324.799804688 730 432.478515625 730 c 0
 511.071289062 730 585.521484375 686.669921875 616.512695312 593.90234375 c 0
 642.2890625 516.748046875 631.30859375 427.049804688 619.3984375 359.50390625 c 0
415.680664062 654.009765625 m 0
 339.815429688 654.009765625 227.635742188 587.911132812 189.680664062 372.659179688 c 0
 149.1953125 143.052734375 235.607421875 67.9873046875 316.822265625 67.9873046875 c 0
 365.403320312 67.9873046875 426.184570312 95.4453125 471.985351562 165.716796875 c 0
 512.548828125 227.951171875 528.267578125 301.614257812 536.603515625 348.897460938 c 0
 547.380859375 410.009765625 555.874023438 479.154296875 542.173828125 539.848632812 c 0
 523.282226562 623.54296875 466.91015625 654.009765625 415.680664062 654.009765625 c 0
EndSplineSet
EndChar

StartChar: Odieresis
Encoding: 214 214 150
Width: 600
GlyphClass: 2
Flags: W
LayerCount: 2
Fore
SplineSet
402.8671875 855.498046875 m 0
 397.172851562 823.2109375 366.318359375 796.981445312 334.032226562 796.981445312 c 0
 301.7421875 796.981445312 280.134765625 823.208984375 285.829101562 855.499023438 c 0
 291.522460938 887.7890625 322.375976562 914.018554688 354.666015625 914.018554688 c 0
 386.956054688 914.018554688 408.560546875 887.7890625 402.8671875 855.498046875 c 0
608.852539062 855.51171875 m 0
 603.149414062 823.16796875 572.487304688 796.991210938 540.536132812 796.991210938 c 0
 508.591796875 796.991210938 487.142578125 823.155273438 492.84765625 855.513671875 c 0
 498.551757812 887.862304688 529.220703125 914.03515625 561.176757812 914.03515625 c 0
 593.10546875 914.03515625 614.559570312 887.876953125 608.852539062 855.51171875 c 0
619.3984375 359.50390625 m 0
 608.217773438 296.094726562 587.799804688 206.2734375 535.752929688 128.64453125 c 0
 471.260742188 32.45703125 380.483398438 -11.0146484375 302.54296875 -11.0146484375 c 0
 192.034179688 -11.0146484375 57.8232421875 78.3984375 107.849609375 362.11328125 c 0
 157.88671875 645.883789062 324.799804688 730 432.478515625 730 c 0
 511.071289062 730 585.521484375 686.669921875 616.512695312 593.90234375 c 0
 642.2890625 516.748046875 631.30859375 427.049804688 619.3984375 359.50390625 c 0
415.680664062 654.009765625 m 0
 339.815429688 654.009765625 227.635742188 587.911132812 189.680664062 372.659179688 c 0
 149.1953125 143.052734375 235.607421875 67.9873046875 316.822265625 67.9873046875 c 0
 365.403320312 67.9873046875 426.184570312 95.4453125 471.985351562 165.716796875 c 0
 512.548828125 227.951171875 528.267578125 301.614257812 536.603515625 348.897460938 c 0
 547.380859375 410.009765625 555.874023438 479.154296875 542.173828125 539.848632812 c 0
 523.282226562 623.54296875 466.91015625 654.009765625 415.680664062 654.009765625 c 0
EndSplineSet
EndChar

StartChar: multiply
Encoding: 215 215 151
Width: 600
GlyphClass: 2
Flags: W
LayerCount: 2
Fore
SplineSet
555.798828125 583 m 1
 601.805664062 532 l 1
 424.145507812 376.931640625 l 1
 543.96875 221 l 1
 480.623046875 168 l 1
 361.598632812 322.337890625 l 1
 190.504882812 173 l 1
 147.497070312 224 l 1
 320.278320312 375.918945312 l 1
 201.453125 530 l 1
 265.798828125 583 l 1
 382.729492188 430.829101562 l 1
 555.798828125 583 l 1
EndSplineSet
EndChar

StartChar: Oslash
Encoding: 216 216 152
Width: 600
GlyphClass: 2
Flags: W
LayerCount: 2
Fore
SplineSet
415.680664062 654.009765625 m 0
 339.814453125 654.009765625 227.63671875 587.911132812 189.681640625 372.659179688 c 0
 173.658203125 281.791015625 177.510742188 215.127929688 193.05078125 167.7421875 c 1
 507.727539062 612.32421875 l 1
 482.0546875 641.994140625 447.853515625 654.009765625 415.680664062 654.009765625 c 0
619.3984375 359.50390625 m 0
 608.21875 296.094726562 587.801757812 206.272460938 535.754882812 128.64453125 c 0
 471.262695312 32.4560546875 380.484375 -11.015625 302.543945312 -11.015625 c 0
 259.892578125 -11.015625 213.7109375 2.302734375 175.953125 34.970703125 c 1
 99.12890625 -73.0009765625 l 1
 44.595703125 -42.0009765625 l 1
 134.64453125 85.2216796875 l 1
 100.541015625 143.736328125 85.03515625 232.716796875 107.850585938 362.11328125 c 0
 157.887695312 645.883789062 324.80078125 730 432.479492188 730 c 0
 478.559570312 730 523.213867188 715.10546875 558.520507812 684.0859375 c 1
 629.240234375 784.000976562 l 1
 685.421875 751.000976562 l 1
 600.296875 631.364257812 l 1
 606.545898438 619.916992188 611.9921875 607.435546875 616.512695312 593.90234375 c 0
 642.2890625 516.748046875 631.309570312 427.049804688 619.3984375 359.50390625 c 0
540.393554688 547.168945312 m 1
 227.211914062 107.010742188 l 1
 252.638671875 79.419921875 285.126953125 67.986328125 316.823242188 67.986328125 c 0
 365.404296875 67.986328125 426.185546875 95.4443359375 471.986328125 165.715820312 c 0
 512.549804688 227.950195312 528.26953125 301.61328125 536.60546875 348.896484375 c 0
 547.3828125 410.009765625 555.875976562 479.153320312 542.17578125 539.848632812 c 2
 540.393554688 547.168945312 l 1
EndSplineSet
EndChar

StartChar: Ugrave
Encoding: 217 217 153
Width: 600
GlyphClass: 2
Flags: W
LayerCount: 2
Fore
SplineSet
381.69140625 917 m 1
 540.354492188 813 l 1
 504.890625 765 l 1
 321.409179688 836 l 1
 381.69140625 917 l 1
195.307617188 722 m 1
 286.307617188 722 l 2
 286.775390625 720.163085938 286.833007812 718.171875 286.4765625 716.150390625 c 0
 285.256835938 709.235351562 279.852539062 704.498046875 276.034179688 700.1953125 c 0
 270.69921875 694.181640625 269.712890625 690.265625 268.784179688 685 c 2
 191.728515625 248 l 2
 185.40625 212.141601562 179.938476562 177.155273438 190.299804688 141.578125 c 0
 206.47265625 86.052734375 255.665039062 55.9208984375 312.927734375 55.9208984375 c 0
 369.274414062 55.9208984375 428.831054688 85.34375 465.25 140.548828125 c 0
 489.485351562 177.288085938 496.6796875 213.693359375 503.2578125 251 c 2
 586.30859375 722 l 1
 663.30859375 722 l 1
 580.610351562 253 l 2
 571.298828125 200.192382812 560.887695312 150.172851562 524.684570312 99.8134765625 c 0
 470.271484375 24.125 382.603515625 -13.0732421875 299.15625 -13.0732421875 c 0
 213.959960938 -13.0732421875 140.559570312 24.9775390625 113.635742188 99.216796875 c 0
 95.6494140625 148.814453125 102.905273438 197.959960938 111.905273438 249 c 2
 195.307617188 722 l 1
EndSplineSet
EndChar

StartChar: Uacute
Encoding: 218 218 154
Width: 600
GlyphClass: 2
Flags: W
LayerCount: 2
Fore
SplineSet
548.69140625 917 m 1
 580.409179688 836 l 1
 371.889648438 765 l 1
 353.354492188 813 l 1
 548.69140625 917 l 1
195.307617188 722 m 1
 286.307617188 722 l 2
 286.775390625 720.163085938 286.833007812 718.171875 286.4765625 716.150390625 c 0
 285.256835938 709.235351562 279.852539062 704.498046875 276.034179688 700.1953125 c 0
 270.69921875 694.181640625 269.712890625 690.265625 268.784179688 685 c 2
 191.728515625 248 l 2
 185.40625 212.141601562 179.938476562 177.155273438 190.299804688 141.578125 c 0
 206.47265625 86.052734375 255.665039062 55.9208984375 312.927734375 55.9208984375 c 0
 369.274414062 55.9208984375 428.831054688 85.34375 465.25 140.548828125 c 0
 489.485351562 177.288085938 496.6796875 213.693359375 503.2578125 251 c 2
 586.30859375 722 l 1
 663.30859375 722 l 1
 580.610351562 253 l 2
 571.298828125 200.192382812 560.887695312 150.172851562 524.684570312 99.8134765625 c 0
 470.271484375 24.125 382.603515625 -13.0732421875 299.15625 -13.0732421875 c 0
 213.959960938 -13.0732421875 140.559570312 24.9775390625 113.635742188 99.216796875 c 0
 95.6494140625 148.814453125 102.905273438 197.959960938 111.905273438 249 c 2
 195.307617188 722 l 1
EndSplineSet
EndChar

StartChar: Ucircumflex
Encoding: 219 219 155
Width: 600
GlyphClass: 2
Flags: W
LayerCount: 2
Fore
SplineSet
282.4140625 802 m 1
 454.692382812 917 l 1
 479.692382812 917 l 1
 602.766601562 804 l 1
 557.008789062 760 l 1
 451.467773438 842 l 1
 308.537109375 763 l 1
 282.4140625 802 l 1
195.307617188 722 m 1
 286.307617188 722 l 2
 286.775390625 720.163085938 286.833007812 718.171875 286.4765625 716.150390625 c 0
 285.256835938 709.235351562 279.852539062 704.498046875 276.034179688 700.1953125 c 0
 270.69921875 694.181640625 269.712890625 690.265625 268.784179688 685 c 2
 191.728515625 248 l 2
 185.40625 212.141601562 179.938476562 177.155273438 190.299804688 141.578125 c 0
 206.47265625 86.052734375 255.665039062 55.9208984375 312.927734375 55.9208984375 c 0
 369.274414062 55.9208984375 428.831054688 85.34375 465.25 140.548828125 c 0
 489.485351562 177.288085938 496.6796875 213.693359375 503.2578125 251 c 2
 586.30859375 722 l 1
 663.30859375 722 l 1
 580.610351562 253 l 2
 571.298828125 200.192382812 560.887695312 150.172851562 524.684570312 99.8134765625 c 0
 470.271484375 24.125 382.603515625 -13.0732421875 299.15625 -13.0732421875 c 0
 213.959960938 -13.0732421875 140.559570312 24.9775390625 113.635742188 99.216796875 c 0
 95.6494140625 148.814453125 102.905273438 197.959960938 111.905273438 249 c 2
 195.307617188 722 l 1
EndSplineSet
EndChar

StartChar: Udieresis
Encoding: 220 220 156
Width: 600
GlyphClass: 2
Flags: W
LayerCount: 2
Fore
SplineSet
412.8671875 855.498046875 m 0
 407.172851562 823.2109375 376.318359375 796.981445312 344.032226562 796.981445312 c 0
 311.7421875 796.981445312 290.134765625 823.208984375 295.829101562 855.499023438 c 0
 301.522460938 887.7890625 332.375976562 914.018554688 364.666015625 914.018554688 c 0
 396.956054688 914.018554688 418.560546875 887.7890625 412.8671875 855.498046875 c 0
618.852539062 855.51171875 m 0
 613.149414062 823.16796875 582.487304688 796.991210938 550.536132812 796.991210938 c 0
 518.591796875 796.991210938 497.142578125 823.155273438 502.84765625 855.513671875 c 0
 508.551757812 887.862304688 539.220703125 914.03515625 571.176757812 914.03515625 c 0
 603.10546875 914.03515625 624.559570312 887.876953125 618.852539062 855.51171875 c 0
195.307617188 722 m 1
 286.307617188 722 l 2
 286.775390625 720.163085938 286.833007812 718.171875 286.4765625 716.150390625 c 0
 285.256835938 709.235351562 279.852539062 704.498046875 276.034179688 700.1953125 c 0
 270.69921875 694.181640625 269.712890625 690.265625 268.784179688 685 c 2
 191.728515625 248 l 2
 185.40625 212.141601562 179.938476562 177.155273438 190.299804688 141.578125 c 0
 206.47265625 86.052734375 255.665039062 55.9208984375 312.927734375 55.9208984375 c 0
 369.274414062 55.9208984375 428.831054688 85.34375 465.25 140.548828125 c 0
 489.485351562 177.288085938 496.6796875 213.693359375 503.2578125 251 c 2
 586.30859375 722 l 1
 663.30859375 722 l 1
 580.610351562 253 l 2
 571.298828125 200.192382812 560.887695312 150.172851562 524.684570312 99.8134765625 c 0
 470.271484375 24.125 382.603515625 -13.0732421875 299.15625 -13.0732421875 c 0
 213.959960938 -13.0732421875 140.559570312 24.9775390625 113.635742188 99.216796875 c 0
 95.6494140625 148.814453125 102.905273438 197.959960938 111.905273438 249 c 2
 195.307617188 722 l 1
EndSplineSet
EndChar

StartChar: Yacute
Encoding: 221 221 157
Width: 600
GlyphClass: 2
Flags: W
LayerCount: 2
Fore
SplineSet
548.69140625 917 m 1
 580.409179688 836 l 1
 371.889648438 765 l 1
 353.354492188 813 l 1
 548.69140625 917 l 1
170.484375 723 m 1
 262.484375 723 l 1
 377.59375 372 l 1
 599.30859375 722 l 1
 685.30859375 722 l 1
 403.252929688 285 l 1
 353 0 l 1
 265 0 l 1
 315.252929688 285 l 1
 170.484375 723 l 1
EndSplineSet
EndChar

StartChar: Thorn
Encoding: 222 222 158
Width: 600
GlyphClass: 2
Flags: W
LayerCount: 2
Fore
SplineSet
205.307617188 722 m 1
 296.307617188 722 l 2
 296.55859375 720.465820312 296.538085938 718.849609375 296.25 717.215820312 c 0
 295.1171875 710.791992188 290.369140625 706.356445312 287.166992188 702.380859375 c 0
 283.154296875 697.3984375 282.400390625 694.170898438 281.666015625 690.000976562 c 2
 263.327148438 586.000976562 l 1
 401.327148438 586.000976562 l 2
 447.912109375 586.000976562 492.4765625 584.805664062 533.631835938 561.495117188 c 0
 595.642578125 526.372070312 618.37109375 455.71875 605.49609375 382.700195312 c 0
 592.58984375 309.50390625 545.263671875 240.352539062 472.509765625 206.409179688 c 0
 424.7265625 184.116210938 381.244140625 183 336.267578125 183 c 2
 192.267578125 183 l 1
 160 0 l 1
 78 0 l 1
 205.307617188 722 l 1
249.926757812 510 m 1
 204.788085938 254.000976562 l 1
 351.788085938 254.000976562 l 2
 380.25390625 254.000976562 407.899414062 254.678710938 438.221679688 268.763671875 c 0
 483.78125 289.926757812 513.709960938 332.944335938 521.828125 378.986328125 c 0
 530.115234375 425.985351562 514.841796875 471.920898438 473.811523438 494.5 c 0
 446.985351562 509.262695312 418.091796875 510 387.926757812 510 c 2
 249.926757812 510 l 1
EndSplineSet
EndChar

StartChar: germandbls
Encoding: 223 223 159
Width: 600
GlyphClass: 2
Flags: W
LayerCount: 2
Fore
SplineSet
74 0 m 1
 160.400390625 489.999023438 l 2
 169.712890625 542.805664062 179.799804688 596.233398438 212.771484375 649.708984375 c 0
 262.520507812 730.3984375 344.952148438 775.002929688 423.953125 775.002929688 c 0
 539.560546875 775.002929688 617.341796875 681.29296875 597.913085938 571.107421875 c 0
 586.166015625 504.486328125 540.41796875 445.29296875 478.352539062 415.999023438 c 1
 560.49609375 389.078125 601.892578125 305.599609375 584.915039062 209.319335938 c 0
 562.716796875 83.4287109375 452.069335938 -12.0302734375 333.290039062 -12.0302734375 c 0
 290.654296875 -12.0302734375 251.002929688 0.4697265625 219.229492188 23.9990234375 c 1
 271.69140625 88.9990234375 l 1
 290.756835938 71.5078125 316.563476562 61.96484375 344.96875 61.96484375 c 0
 418.826171875 61.96484375 493.258789062 125.490234375 508.053710938 209.3984375 c 0
 518.7890625 270.280273438 495.506835938 323.525390625 456.658203125 350.881835938 c 0
 427.555664062 371.375 396.697265625 374 358.9453125 374 c 2
 323.9453125 374 l 1
 335.583007812 440 l 1
 368.583007812 440 l 2
 385.884765625 440 402.501953125 440.513671875 423.403320312 449.182617188 c 0
 470.524414062 468.725585938 509.551757812 518.563476562 519.171875 573.124023438 c 0
 532.638671875 649.49609375 485.520507812 708.193359375 416.639648438 708.193359375 c 0
 378.70703125 708.193359375 335.499023438 689.798828125 301.396484375 650.3671875 c 0
 259.958007812 602.454101562 248.78125 543.204101562 239.752929688 492 c 2
 153 0 l 1
 74 0 l 1
EndSplineSet
EndChar

StartChar: agrave
Encoding: 224 224 160
Width: 600
GlyphClass: 2
Flags: W
LayerCount: 2
Fore
SplineSet
434.825195312 810 m 1
 506.849609375 640 l 1
 442.677734375 605 l 1
 353.184570312 761 l 1
 434.825195312 810 l 1
87.5869140625 145.12890625 m 0
 131.31640625 393.12890625 351.103515625 530 452.045898438 530 c 0
 601.103515625 530 551.369140625 503.76953125 614.87109375 487 c 1
 609.619140625 480.6171875 597.96484375 453.5 592.763671875 424 c 0
 570.838867188 299.659179688 568.268554688 281.319335938 546.521484375 156.978515625 c 1
 546.68359375 156.978515625 l 1
 529.403320312 58.978515625 566 0 566 0 c 1
 461.618164062 -5 l 1
 461.618164062 -5 447.80078125 68.4443359375 468.720703125 191.602539062 c 1
 391.708984375 -0.28515625 281.5859375 -11.7421875 202.841796875 -11.7421875 c 0
 118.599609375 -11.7421875 67.1328125 29.12890625 87.5869140625 145.12890625 c 0
170.581054688 157.12890625 m 0
 159.6484375 95.12890625 194.548828125 61.8095703125 220.548828125 61.8095703125 c 0
 318.548828125 61.8095703125 415.592773438 147.12890625 465.578125 249.12890625 c 0
 478.705078125 275.916015625 497.55859375 331.203125 511.435546875 405.12890625 c 2
 519.294921875 447 l 1
 519.294921875 447 510.181640625 468.0546875 456.180664062 468.0546875 c 0
 378.181640625 468.0546875 202.3203125 337.12890625 170.581054688 157.12890625 c 0
EndSplineSet
EndChar

StartChar: aacute
Encoding: 225 225 161
Width: 600
GlyphClass: 2
Flags: W
LayerCount: 2
Fore
SplineSet
490.825195312 810 m 1
 555.184570312 761 l 1
 410.677734375 605 l 1
 358.849609375 640 l 1
 490.825195312 810 l 1
87.5869140625 145.12890625 m 0
 131.31640625 393.12890625 351.103515625 530 452.045898438 530 c 0
 601.103515625 530 551.369140625 503.76953125 614.87109375 487 c 1
 609.619140625 480.6171875 597.96484375 453.5 592.763671875 424 c 0
 570.838867188 299.659179688 568.268554688 281.319335938 546.521484375 156.978515625 c 1
 546.68359375 156.978515625 l 1
 529.403320312 58.978515625 566 0 566 0 c 1
 461.618164062 -5 l 1
 461.618164062 -5 447.80078125 68.4443359375 468.720703125 191.602539062 c 1
 391.708984375 -0.28515625 281.5859375 -11.7421875 202.841796875 -11.7421875 c 0
 118.599609375 -11.7421875 67.1328125 29.12890625 87.5869140625 145.12890625 c 0
170.581054688 157.12890625 m 0
 159.6484375 95.12890625 194.548828125 61.8095703125 220.548828125 61.8095703125 c 0
 318.548828125 61.8095703125 415.592773438 147.12890625 465.578125 249.12890625 c 0
 478.705078125 275.916015625 497.55859375 331.203125 511.435546875 405.12890625 c 2
 519.294921875 447 l 1
 519.294921875 447 510.181640625 468.0546875 456.180664062 468.0546875 c 0
 378.181640625 468.0546875 202.3203125 337.12890625 170.581054688 157.12890625 c 0
EndSplineSet
EndChar

StartChar: acircumflex
Encoding: 226 226 162
Width: 600
GlyphClass: 2
Flags: W
LayerCount: 2
Fore
SplineSet
284.262695312 631 m 1
 442.00390625 794 l 1
 467.00390625 794 l 1
 566.0859375 630 l 1
 505.033203125 590 l 1
 436.015625 709 l 1
 321.208984375 591 l 1
 284.262695312 631 l 1
87.5869140625 145.12890625 m 0
 131.31640625 393.12890625 351.103515625 530 452.045898438 530 c 0
 601.103515625 530 551.369140625 503.76953125 614.87109375 487 c 1
 609.619140625 480.6171875 597.96484375 453.5 592.763671875 424 c 0
 570.838867188 299.659179688 568.268554688 281.319335938 546.521484375 156.978515625 c 1
 546.68359375 156.978515625 l 1
 529.403320312 58.978515625 566 0 566 0 c 1
 461.618164062 -5 l 1
 461.618164062 -5 447.80078125 68.4443359375 468.720703125 191.602539062 c 1
 391.708984375 -0.28515625 281.5859375 -11.7421875 202.841796875 -11.7421875 c 0
 118.599609375 -11.7421875 67.1328125 29.12890625 87.5869140625 145.12890625 c 0
170.581054688 157.12890625 m 0
 159.6484375 95.12890625 194.548828125 61.8095703125 220.548828125 61.8095703125 c 0
 318.548828125 61.8095703125 415.592773438 147.12890625 465.578125 249.12890625 c 0
 478.705078125 275.916015625 497.55859375 331.203125 511.435546875 405.12890625 c 2
 519.294921875 447 l 1
 519.294921875 447 510.181640625 468.0546875 456.180664062 468.0546875 c 0
 378.181640625 468.0546875 202.3203125 337.12890625 170.581054688 157.12890625 c 0
EndSplineSet
EndChar

StartChar: atilde
Encoding: 227 227 163
Width: 600
GlyphClass: 2
Flags: W
LayerCount: 2
Fore
SplineSet
291.907226562 646 m 1
 246.431640625 683 l 1
 301.252929688 750.836914062 349.96484375 783.267578125 395.140625 783.267578125 c 0
 441.973632812 783.267578125 467.05078125 749.067382812 479.206054688 733.549804688 c 0
 494.536132812 713.978515625 508.928710938 696.9296875 530.545898438 696.9296875 c 0
 559.125 696.9296875 577.458007812 723.991210938 608.65625 758 c 1
 643.544921875 712 l 1
 594.697265625 662.139648438 557.432617188 629.75390625 514.692382812 629.75390625 c 0
 447.306640625 629.75390625 431.38671875 717.431640625 380.346679688 717.431640625 c 0
 349.655273438 717.431640625 327.567382812 690.786132812 291.907226562 646 c 1
87.5869140625 145.12890625 m 0
 131.31640625 393.12890625 351.103515625 530 452.045898438 530 c 0
 601.103515625 530 551.369140625 503.76953125 614.87109375 487 c 1
 609.619140625 480.6171875 597.96484375 453.5 592.763671875 424 c 0
 570.838867188 299.659179688 568.268554688 281.319335938 546.521484375 156.978515625 c 1
 546.68359375 156.978515625 l 1
 529.403320312 58.978515625 566 0 566 0 c 1
 461.618164062 -5 l 1
 461.618164062 -5 447.80078125 68.4443359375 468.720703125 191.602539062 c 1
 391.708984375 -0.28515625 281.5859375 -11.7421875 202.841796875 -11.7421875 c 0
 118.599609375 -11.7421875 67.1328125 29.12890625 87.5869140625 145.12890625 c 0
170.581054688 157.12890625 m 0
 159.6484375 95.12890625 194.548828125 61.8095703125 220.548828125 61.8095703125 c 0
 318.548828125 61.8095703125 415.592773438 147.12890625 465.578125 249.12890625 c 0
 478.705078125 275.916015625 497.55859375 331.203125 511.435546875 405.12890625 c 2
 519.294921875 447 l 1
 519.294921875 447 510.181640625 468.0546875 456.180664062 468.0546875 c 0
 378.181640625 468.0546875 202.3203125 337.12890625 170.581054688 157.12890625 c 0
EndSplineSet
EndChar

StartChar: adieresis
Encoding: 228 228 164
Width: 600
GlyphClass: 2
Flags: W
LayerCount: 2
Fore
SplineSet
397.475585938 711.498046875 m 0
 391.782226562 679.2109375 360.926757812 652.981445312 328.640625 652.981445312 c 0
 296.350585938 652.981445312 274.744140625 679.208984375 280.4375 711.499023438 c 0
 286.130859375 743.7890625 316.985351562 770.018554688 349.275390625 770.018554688 c 0
 381.565429688 770.018554688 403.168945312 743.7890625 397.475585938 711.498046875 c 0
603.4609375 711.51171875 m 0
 597.7578125 679.16796875 567.095703125 652.991210938 535.14453125 652.991210938 c 0
 503.201171875 652.991210938 481.750976562 679.155273438 487.45703125 711.513671875 c 0
 493.161132812 743.862304688 523.830078125 770.03515625 555.786132812 770.03515625 c 0
 587.713867188 770.03515625 609.16796875 743.876953125 603.4609375 711.51171875 c 0
87.5869140625 145.12890625 m 0
 131.31640625 393.12890625 351.103515625 530 452.045898438 530 c 0
 601.103515625 530 551.369140625 503.76953125 614.87109375 487 c 1
 609.619140625 480.6171875 597.96484375 453.5 592.763671875 424 c 0
 570.838867188 299.659179688 568.268554688 281.319335938 546.521484375 156.978515625 c 1
 546.68359375 156.978515625 l 1
 529.403320312 58.978515625 566 0 566 0 c 1
 461.618164062 -5 l 1
 461.618164062 -5 447.80078125 68.4443359375 468.720703125 191.602539062 c 1
 391.708984375 -0.28515625 281.5859375 -11.7421875 202.841796875 -11.7421875 c 0
 118.599609375 -11.7421875 67.1328125 29.12890625 87.5869140625 145.12890625 c 0
170.581054688 157.12890625 m 0
 159.6484375 95.12890625 194.548828125 61.8095703125 220.548828125 61.8095703125 c 0
 318.548828125 61.8095703125 415.592773438 147.12890625 465.578125 249.12890625 c 0
 478.705078125 275.916015625 497.55859375 331.203125 511.435546875 405.12890625 c 2
 519.294921875 447 l 1
 519.294921875 447 510.181640625 468.0546875 456.180664062 468.0546875 c 0
 378.181640625 468.0546875 202.3203125 337.12890625 170.581054688 157.12890625 c 0
EndSplineSet
EndChar

StartChar: aring
Encoding: 229 229 165
Width: 600
GlyphClass: 2
Flags: W
LayerCount: 2
Fore
SplineSet
536.609375 700.997070312 m 0
 526.76171875 645.14453125 471.651367188 598.958007812 412.536132812 598.958007812 c 0
 353.5625 598.958007812 314.669921875 645.100585938 324.538085938 701.065429688 c 0
 334.375 756.856445312 389.451171875 803.004882812 448.501953125 803.004882812 c 0
 507.603515625 803.004882812 546.456054688 756.836914062 536.609375 700.997070312 c 0
383.655273438 701.774414062 m 0
 378.424804688 672.110351562 396.044921875 648.896484375 422.413085938 648.896484375 c 0
 448.450195312 648.896484375 474.498046875 671.836914062 479.828125 702.068359375 c 0
 485.076171875 731.828125 467.4609375 755.01171875 441.151367188 755.01171875 c 0
 415.12890625 755.01171875 388.998046875 732.072265625 383.655273438 701.774414062 c 0
87.5869140625 145.12890625 m 0
 131.31640625 393.12890625 351.103515625 530 452.045898438 530 c 0
 601.103515625 530 551.369140625 503.76953125 614.87109375 487 c 1
 609.619140625 480.6171875 597.96484375 453.5 592.763671875 424 c 0
 570.838867188 299.659179688 568.268554688 281.319335938 546.521484375 156.978515625 c 1
 546.68359375 156.978515625 l 1
 529.403320312 58.978515625 566 0 566 0 c 1
 461.618164062 -5 l 1
 461.618164062 -5 447.80078125 68.4443359375 468.720703125 191.602539062 c 1
 391.708984375 -0.28515625 281.5859375 -11.7421875 202.841796875 -11.7421875 c 0
 118.599609375 -11.7421875 67.1328125 29.12890625 87.5869140625 145.12890625 c 0
170.581054688 157.12890625 m 0
 159.6484375 95.12890625 194.548828125 61.8095703125 220.548828125 61.8095703125 c 0
 318.548828125 61.8095703125 415.592773438 147.12890625 465.578125 249.12890625 c 0
 478.705078125 275.916015625 497.55859375 331.203125 511.435546875 405.12890625 c 2
 519.294921875 447 l 1
 519.294921875 447 510.181640625 468.0546875 456.180664062 468.0546875 c 0
 378.181640625 468.0546875 202.3203125 337.12890625 170.581054688 157.12890625 c 0
EndSplineSet
EndChar

StartChar: ae
Encoding: 230 230 166
Width: 600
GlyphClass: 2
Flags: W
LayerCount: 2
Fore
SplineSet
47.21484375 143 m 0
 57.7939453125 203 102.076171875 267.000976562 180.895507812 300.000976562 c 0
 227.245117188 319.000976562 268.59765625 321.000976562 296.7734375 322.000976562 c 2
 322.94921875 323.000976562 l 1
 328.239257812 353.000976562 l 2
 331.942382812 374.000976562 334.469726562 394.000976562 330.819335938 413.000976562 c 0
 323.696289062 452.000976562 294.928710938 476.000976562 257.928710938 476.000976562 c 0
 225.928710938 476.000976562 188.578125 457.000976562 162.112304688 426.000976562 c 1
 130.10546875 477.000976562 l 1
 170.334960938 518.000976562 224.390625 541.000976562 275.390625 541.000976562 c 0
 330.388671875 541.000976562 372.91015625 513.994140625 390.745117188 471.345703125 c 1
 424.77734375 514.322265625 476.266601562 541 528.216796875 541 c 0
 611.216796875 541 655.33984375 472 639.999023438 385 c 0
 629.419921875 325 617.999023438 294 549.999023438 274 c 0
 502.66796875 260.079101562 439.083007812 259 410.90625 258 c 2
 382.28125 256.8046875 l 1
 372.79296875 203 l 2
 367.85546875 175 364.80078125 152 371.392578125 127 c 0
 383.458007812 82 421.697265625 55 466.697265625 55 c 0
 500.697265625 55 534.341796875 70 559.102539062 97 c 1
 591.638671875 49 l 1
 551.762695312 10 499.70703125 -13 448.70703125 -13 c 0
 389.70703125 -13 339.997070312 17 316.8125 67 c 1
 283.173828125 18 227.708007812 -13 171.708007812 -13 c 0
 88.7080078125 -13 31.8740234375 56 47.21484375 143 c 0
122.09375 148.000976562 m 0
 113.276367188 98.0009765625 145.223632812 58.0009765625 192.223632812 58.0009765625 c 0
 224.223632812 58.0009765625 259.396484375 76.0009765625 278.745117188 112.000976562 c 0
 287.7421875 129.000976562 291.916015625 147.000976562 295.794921875 169.000976562 c 0
 297.911132812 181.000976562 300.379882812 195.000976562 303.0234375 210.000976562 c 2
 310.782226562 254.000976562 l 1
 285.60546875 253.000976562 l 2
 255.430664062 252.000976562 225.25390625 251.000976562 192.609375 236.000976562 c 0
 152.259765625 217.000976562 127.912109375 181.000976562 122.09375 148.000976562 c 0
393.950195312 323.000976562 m 1
 419.126953125 324.000976562 l 2
 498.497070312 327.500976562 505.372070312 327.965820312 526.859375 334.000976562 c 0
 542.879882812 338.500976562 573.497070312 357.000976562 577.826171875 380.000976562 c 0
 587.216796875 429.895507812 554.6953125 470.000976562 507.6953125 470.000976562 c 0
 475.6953125 470.000976562 440.521484375 452.000976562 421.173828125 416.000976562 c 0
 412.176757812 399.000976562 404.875976562 381.500976562 400.997070312 359.500976562 c 0
 398.880859375 347.500976562 396.594726562 338.000976562 393.950195312 323.000976562 c 1
EndSplineSet
EndChar

StartChar: ccedilla
Encoding: 231 231 167
Width: 600
GlyphClass: 2
Flags: W
LayerCount: 2
Fore
SplineSet
313 0 m 1
 363 0 l 1
 347.301757812 -55 l 1
 366.125976562 -56 l 2
 380.94921875 -57 395.7734375 -58 409.5390625 -65 c 0
 429.599609375 -76 438.072265625 -96 434.017578125 -119 c 0
 426.788085938 -160 377.852539062 -205 292.852539062 -205 c 0
 248.852539062 -205 201.146484375 -192 163.434570312 -162 c 1
 200.8984375 -114 l 1
 231.78515625 -143 273.668945312 -155 308.668945312 -155 c 0
 353.668945312 -155 364.842773438 -137 366.606445312 -127 c 0
 367.840820312 -120 365.250976562 -112 357.1328125 -107 c 0
 346.543945312 -99 329.543945312 -99 316.543945312 -99 c 2
 282.543945312 -99 l 1
 313 0 l 1
121.639648438 264.508789062 m 0
 149.653320312 423.379882812 280.697265625 540.028320312 436.272460938 540.028320312 c 0
 521.401367188 540.028320312 586.025390625 503.102539062 616.9375 442 c 1
 545.76953125 373 l 1
 537.815429688 379.923828125 546.036132812 390.80859375 543.190429688 399.752929688 c 0
 541.215820312 405.959960938 508.874023438 469.07421875 418.490234375 469.07421875 c 0
 321.21484375 469.07421875 230.401367188 393.767578125 209.12890625 273.125976562 c 0
 187.315429688 149.419921875 250.705078125 62.978515625 353.861328125 62.978515625 c 0
 406.916015625 62.978515625 492.451171875 86.443359375 535.39453125 127 c 1
 573.51953125 71 l 1
 513.439453125 16.5810546875 407.39453125 -13.0009765625 333.48828125 -13.0009765625 c 0
 183.755859375 -13.0009765625 93.4951171875 104.891601562 121.639648438 264.508789062 c 0
EndSplineSet
EndChar

StartChar: egrave
Encoding: 232 232 168
Width: 600
GlyphClass: 2
Flags: W
LayerCount: 2
Fore
SplineSet
434.825195312 810 m 1
 506.849609375 640 l 1
 442.677734375 605 l 1
 353.184570312 761 l 1
 434.825195312 810 l 1
111.668945312 259 m 0
 145.700195312 452 278.569335938 542 385.319335938 542 c 0
 492.069335938 542 520.646484375 526.1015625 546.607421875 502.516601562 c 0
 577.71484375 474.25390625 590.44140625 433.518554688 582.943359375 391 c 0
 572.541015625 332 528.721679688 299 440.255859375 268 c 0
 373.2109375 244.8515625 297.237304688 244 224.431640625 244 c 2
 207.0234375 244 l 1
 192.411132812 244 l 1
 181.331054688 86.2255859375 270.573242188 55 336.698242188 55 c 0
 389.698242188 55 472.400390625 76 514.27734375 115 c 1
 552.342773438 70 l 1
 497.821289062 16 393.883789062 -12 317.883789062 -12 c 0
 174.883789062 -12 80.458984375 82 111.668945312 259 c 0
204.30859375 308 m 1
 217.30859375 308 l 2
 236.720703125 308 258.060546875 307.625976562 279.743164062 307.625976562 c 0
 319.49609375 307.625976562 360.405273438 308.881835938 392.719726562 316 c 0
 461.541015625 332 491.185546875 347 498.0625 386 c 0
 506.349609375 433 474.784179688 478 403.034179688 478 c 0
 331.284179688 478 226.529296875 434.01953125 204.30859375 308 c 1
EndSplineSet
EndChar

StartChar: eacute
Encoding: 233 233 169
Width: 600
GlyphClass: 2
Flags: W
LayerCount: 2
Fore
SplineSet
490.825195312 810 m 1
 555.184570312 761 l 1
 410.677734375 605 l 1
 358.849609375 640 l 1
 490.825195312 810 l 1
111.668945312 259 m 0
 145.700195312 452 278.569335938 542 385.319335938 542 c 0
 492.069335938 542 520.646484375 526.1015625 546.607421875 502.516601562 c 0
 577.71484375 474.25390625 590.44140625 433.518554688 582.943359375 391 c 0
 572.541015625 332 528.721679688 299 440.255859375 268 c 0
 373.2109375 244.8515625 297.237304688 244 224.431640625 244 c 2
 207.0234375 244 l 1
 192.411132812 244 l 1
 181.331054688 86.2255859375 270.573242188 55 336.698242188 55 c 0
 389.698242188 55 472.400390625 76 514.27734375 115 c 1
 552.342773438 70 l 1
 497.821289062 16 393.883789062 -12 317.883789062 -12 c 0
 174.883789062 -12 80.458984375 82 111.668945312 259 c 0
204.30859375 308 m 1
 217.30859375 308 l 2
 236.720703125 308 258.060546875 307.625976562 279.743164062 307.625976562 c 0
 319.49609375 307.625976562 360.405273438 308.881835938 392.719726562 316 c 0
 461.541015625 332 491.185546875 347 498.0625 386 c 0
 506.349609375 433 474.784179688 478 403.034179688 478 c 0
 331.284179688 478 226.529296875 434.01953125 204.30859375 308 c 1
EndSplineSet
EndChar

StartChar: ecircumflex
Encoding: 234 234 170
Width: 600
GlyphClass: 2
Flags: W
LayerCount: 2
Fore
SplineSet
276.262695312 631 m 1
 434.00390625 794 l 1
 459.00390625 794 l 1
 558.0859375 630 l 1
 497.033203125 590 l 1
 428.015625 709 l 1
 313.208984375 591 l 1
 276.262695312 631 l 1
111.668945312 259 m 0
 145.700195312 452 278.569335938 542 385.319335938 542 c 0
 492.069335938 542 520.646484375 526.1015625 546.607421875 502.516601562 c 0
 577.71484375 474.25390625 590.44140625 433.518554688 582.943359375 391 c 0
 572.541015625 332 528.721679688 299 440.255859375 268 c 0
 373.2109375 244.8515625 297.237304688 244 224.431640625 244 c 2
 207.0234375 244 l 1
 192.411132812 244 l 1
 181.331054688 86.2255859375 270.573242188 55 336.698242188 55 c 0
 389.698242188 55 472.400390625 76 514.27734375 115 c 1
 552.342773438 70 l 1
 497.821289062 16 393.883789062 -12 317.883789062 -12 c 0
 174.883789062 -12 80.458984375 82 111.668945312 259 c 0
204.30859375 308 m 1
 217.30859375 308 l 2
 236.720703125 308 258.060546875 307.625976562 279.743164062 307.625976562 c 0
 319.49609375 307.625976562 360.405273438 308.881835938 392.719726562 316 c 0
 461.541015625 332 491.185546875 347 498.0625 386 c 0
 506.349609375 433 474.784179688 478 403.034179688 478 c 0
 331.284179688 478 226.529296875 434.01953125 204.30859375 308 c 1
EndSplineSet
EndChar

StartChar: edieresis
Encoding: 235 235 171
Width: 600
GlyphClass: 2
Flags: W
LayerCount: 2
Fore
SplineSet
384.475585938 711.498046875 m 0
 378.782226562 679.2109375 347.926757812 652.981445312 315.640625 652.981445312 c 0
 283.350585938 652.981445312 261.744140625 679.208984375 267.4375 711.499023438 c 0
 273.130859375 743.7890625 303.985351562 770.018554688 336.275390625 770.018554688 c 0
 368.565429688 770.018554688 390.168945312 743.7890625 384.475585938 711.498046875 c 0
590.4609375 711.51171875 m 0
 584.7578125 679.16796875 554.095703125 652.991210938 522.14453125 652.991210938 c 0
 490.201171875 652.991210938 468.750976562 679.155273438 474.45703125 711.513671875 c 0
 480.161132812 743.862304688 510.830078125 770.03515625 542.786132812 770.03515625 c 0
 574.713867188 770.03515625 596.16796875 743.876953125 590.4609375 711.51171875 c 0
111.668945312 259 m 0
 145.700195312 452 278.569335938 542 385.319335938 542 c 0
 492.069335938 542 520.646484375 526.1015625 546.607421875 502.516601562 c 0
 577.71484375 474.25390625 590.44140625 433.518554688 582.943359375 391 c 0
 572.541015625 332 528.721679688 299 440.255859375 268 c 0
 373.2109375 244.8515625 297.237304688 244 224.431640625 244 c 2
 207.0234375 244 l 1
 192.411132812 244 l 1
 181.331054688 86.2255859375 270.573242188 55 336.698242188 55 c 0
 389.698242188 55 472.400390625 76 514.27734375 115 c 1
 552.342773438 70 l 1
 497.821289062 16 393.883789062 -12 317.883789062 -12 c 0
 174.883789062 -12 80.458984375 82 111.668945312 259 c 0
204.30859375 308 m 1
 217.30859375 308 l 2
 236.720703125 308 258.060546875 307.625976562 279.743164062 307.625976562 c 0
 319.49609375 307.625976562 360.405273438 308.881835938 392.719726562 316 c 0
 461.541015625 332 491.185546875 347 498.0625 386 c 0
 506.349609375 433 474.784179688 478 403.034179688 478 c 0
 331.284179688 478 226.529296875 434.01953125 204.30859375 308 c 1
EndSplineSet
EndChar

StartChar: igrave
Encoding: 236 236 172
Width: 600
GlyphClass: 2
Flags: W
LayerCount: 2
Fore
SplineSet
384.825195312 810 m 1
 456.849609375 640 l 1
 392.677734375 605 l 1
 303.184570312 761 l 1
 384.825195312 810 l 1
214.462890625 462 m 1
 226.453125 530 l 1
 438.455078125 530 l 1
 373.213867188 160 l 2
 367.161132812 120 361.805664062 73 407.805664062 73 c 0
 432.805664062 73 453.68359375 77 483.358398438 79 c 1
 467.84375 0 l 1
 449.616210938 0 l 1
 413.954101562 0 l 2
 376.70703125 0 341.396484375 2 318.857421875 18 c 0
 282.848632812 43 277.047851562 91 288.333007812 155 c 0
 288.685546875 157 288.861328125 158 289.213867188 160 c 2
 342.46484375 462 l 1
 214.462890625 462 l 1
EndSplineSet
EndChar

StartChar: iacute
Encoding: 237 237 173
Width: 600
GlyphClass: 2
Flags: W
LayerCount: 2
Fore
SplineSet
490.825195312 810 m 1
 555.184570312 761 l 1
 410.677734375 605 l 1
 358.849609375 640 l 1
 490.825195312 810 l 1
214.462890625 462 m 1
 226.453125 530 l 1
 438.455078125 530 l 1
 373.213867188 160 l 2
 367.161132812 120 361.805664062 73 407.805664062 73 c 0
 432.805664062 73 453.68359375 77 483.358398438 79 c 1
 467.84375 0 l 1
 449.616210938 0 l 1
 413.954101562 0 l 2
 376.70703125 0 341.396484375 2 318.857421875 18 c 0
 282.848632812 43 277.047851562 91 288.333007812 155 c 0
 288.685546875 157 288.861328125 158 289.213867188 160 c 2
 342.46484375 462 l 1
 214.462890625 462 l 1
EndSplineSet
EndChar

StartChar: icircumflex
Encoding: 238 238 174
Width: 600
GlyphClass: 2
Flags: W
LayerCount: 2
Fore
SplineSet
262.262695312 631 m 1
 420.00390625 794 l 1
 445.00390625 794 l 1
 544.0859375 630 l 1
 483.033203125 590 l 1
 414.015625 709 l 1
 299.208984375 591 l 1
 262.262695312 631 l 1
214.462890625 462 m 1
 226.453125 530 l 1
 438.455078125 530 l 1
 373.213867188 160 l 2
 367.161132812 120 361.805664062 73 407.805664062 73 c 0
 432.805664062 73 453.68359375 77 483.358398438 79 c 1
 467.84375 0 l 1
 449.616210938 0 l 1
 413.954101562 0 l 2
 376.70703125 0 341.396484375 2 318.857421875 18 c 0
 282.848632812 43 277.047851562 91 288.333007812 155 c 0
 288.685546875 157 288.861328125 158 289.213867188 160 c 2
 342.46484375 462 l 1
 214.462890625 462 l 1
EndSplineSet
EndChar

StartChar: idieresis
Encoding: 239 239 175
Width: 600
GlyphClass: 2
Flags: W
LayerCount: 2
Fore
SplineSet
380.475585938 711.498046875 m 0
 374.782226562 679.2109375 343.926757812 652.981445312 311.640625 652.981445312 c 0
 279.350585938 652.981445312 257.744140625 679.208984375 263.4375 711.499023438 c 0
 269.130859375 743.7890625 299.985351562 770.018554688 332.275390625 770.018554688 c 0
 364.565429688 770.018554688 386.168945312 743.7890625 380.475585938 711.498046875 c 0
586.4609375 711.51171875 m 0
 580.7578125 679.16796875 550.095703125 652.991210938 518.14453125 652.991210938 c 0
 486.201171875 652.991210938 464.750976562 679.155273438 470.45703125 711.513671875 c 0
 476.161132812 743.862304688 506.830078125 770.03515625 538.786132812 770.03515625 c 0
 570.713867188 770.03515625 592.16796875 743.876953125 586.4609375 711.51171875 c 0
214.462890625 462 m 1
 226.453125 530 l 1
 438.455078125 530 l 1
 373.213867188 160 l 2
 367.161132812 120 361.805664062 73 407.805664062 73 c 0
 432.805664062 73 453.68359375 77 483.358398438 79 c 1
 467.84375 0 l 1
 449.616210938 0 l 1
 413.954101562 0 l 2
 376.70703125 0 341.396484375 2 318.857421875 18 c 0
 282.848632812 43 277.047851562 91 288.333007812 155 c 0
 288.685546875 157 288.861328125 158 289.213867188 160 c 2
 342.46484375 462 l 1
 214.462890625 462 l 1
EndSplineSet
EndChar

StartChar: eth
Encoding: 240 240 176
Width: 600
GlyphClass: 2
Flags: W
LayerCount: 2
Fore
SplineSet
388.103515625 470.010742188 m 0
 309.83203125 470.010742188 216.504882812 405.54296875 192.46875 269.223632812 c 0
 168.708984375 134.475585938 233.1796875 57.9970703125 316.323242188 57.9970703125 c 0
 381.583984375 57.9970703125 478.014648438 107.826171875 506.391601562 268.7578125 c 0
 534.756835938 429.626953125 448.268554688 470.010742188 388.103515625 470.010742188 c 0
528.384765625 660.891601562 m 1
 585.146484375 580.387695312 624.828125 462.26953125 595.038085938 293.321289062 c 0
 584.032226562 230.904296875 563.770507812 156.905273438 515.157226562 94.525390625 c 0
 460.155273438 23.947265625 381.208007812 -14.005859375 304.21484375 -14.005859375 c 0
 170.266601562 -14.005859375 74.193359375 98.759765625 102.275390625 258.01953125 c 0
 130.315429688 417.045898438 264.883789062 541.309570312 393.467773438 541.309570312 c 0
 447.393554688 541.309570312 493.475585938 518.881835938 521.814453125 481 c 1
 508.924804688 540.162109375 484.5 593.873046875 450.3359375 639.819335938 c 1
 295.4453125 598 l 1
 284.14453125 653 l 1
 410.1953125 685.865234375 l 1
 379.892578125 715.612304688 344.5859375 740.637695312 305.01171875 760.000976562 c 1
 402.360351562 779.000976562 l 1
 429.209960938 762.216796875 460.696289062 738.68359375 490.747070312 706.8671875 c 1
 621.66015625 741 l 1
 632.491210938 689 l 1
 528.384765625 660.891601562 l 1
EndSplineSet
EndChar

StartChar: ntilde
Encoding: 241 241 177
Width: 600
GlyphClass: 2
Flags: W
LayerCount: 2
Fore
SplineSet
274.907226562 646 m 1
 229.431640625 683 l 1
 284.252929688 750.836914062 332.96484375 783.267578125 378.140625 783.267578125 c 0
 424.973632812 783.267578125 450.05078125 749.067382812 462.206054688 733.549804688 c 0
 477.536132812 713.978515625 491.928710938 696.9296875 513.545898438 696.9296875 c 0
 542.125 696.9296875 560.458007812 723.991210938 591.65625 758 c 1
 626.544921875 712 l 1
 577.697265625 662.139648438 540.432617188 629.75390625 497.692382812 629.75390625 c 0
 430.306640625 629.75390625 414.38671875 717.431640625 363.346679688 717.431640625 c 0
 332.655273438 717.431640625 310.567382812 690.786132812 274.907226562 646 c 1
89 0 m 1
 154.59375 372 l 2
 167.90625 447.5 161.369140625 504 148.27734375 529 c 1
 246.5703125 541 l 1
 248.525390625 534.958007812 253.866210938 500.59765625 247.375976562 432.673828125 c 1
 296.047851562 487.137695312 363.750976562 541.083007812 445.525390625 542.002929688 c 0
 505.966796875 542.682617188 554.140625 508.12890625 569.994140625 448.568359375 c 0
 581.3203125 406.013671875 573.890625 362.333984375 566.600585938 321 c 2
 566.600585938 321 555.5625 258.400390625 537.684570312 157 c 0
 520.403320312 59 549 0 549 0 c 1
 444.618164062 -5 l 1
 444.618164062 -5 438.93359375 62 453.744140625 146 c 2
 484.248046875 319 l 2
 490.841796875 356.392578125 498.614257812 401.823242188 475.998046875 436.060546875 c 0
 460.9921875 458.78125 436.708007812 469.580078125 410.141601562 469.580078125 c 0
 354.162109375 469.580078125 295.0390625 422.787109375 270.114257812 395.892578125 c 0
 242.919921875 366.549804688 234.06640625 340.651367188 227.778320312 305 c 2
 174 0 l 1
 89 0 l 1
EndSplineSet
EndChar

StartChar: ograve
Encoding: 242 242 178
Width: 600
GlyphClass: 2
Flags: W
LayerCount: 2
Fore
SplineSet
434.825195312 810 m 1
 506.849609375 640 l 1
 442.677734375 605 l 1
 353.184570312 761 l 1
 434.825195312 810 l 1
589.364257812 262.303710938 m 0
 558.418945312 86.8046875 427.857421875 -14 302.5 -14 c 0
 169.079101562 -14 74.41796875 99.5322265625 102.814453125 260.578125 c 0
 131.655273438 424.139648438 267.923828125 541.004882812 402.833984375 541.004882812 c 0
 523.14453125 541.004882812 621.59375 445.083984375 589.364257812 262.303710938 c 0
384.649414062 470.102539062 m 0
 303.6875 470.102539062 215.087890625 397.575195312 192.206054688 267.805664062 c 0
 169.181640625 137.224609375 231.474609375 57.9931640625 315.83984375 57.9931640625 c 0
 393.109375 57.9931640625 481.3125 125.599609375 504.80859375 258.84375 c 0
 530.4375 404.202148438 461.01953125 470.102539062 384.649414062 470.102539062 c 0
EndSplineSet
EndChar

StartChar: oacute
Encoding: 243 243 179
Width: 600
GlyphClass: 2
Flags: W
LayerCount: 2
Fore
SplineSet
490.825195312 810 m 1
 555.184570312 761 l 1
 410.677734375 605 l 1
 358.849609375 640 l 1
 490.825195312 810 l 1
589.364257812 262.303710938 m 0
 558.418945312 86.8046875 427.857421875 -14 302.5 -14 c 0
 169.079101562 -14 74.41796875 99.5322265625 102.814453125 260.578125 c 0
 131.655273438 424.139648438 267.923828125 541.004882812 402.833984375 541.004882812 c 0
 523.14453125 541.004882812 621.59375 445.083984375 589.364257812 262.303710938 c 0
384.649414062 470.102539062 m 0
 303.6875 470.102539062 215.087890625 397.575195312 192.206054688 267.805664062 c 0
 169.181640625 137.224609375 231.474609375 57.9931640625 315.83984375 57.9931640625 c 0
 393.109375 57.9931640625 481.3125 125.599609375 504.80859375 258.84375 c 0
 530.4375 404.202148438 461.01953125 470.102539062 384.649414062 470.102539062 c 0
EndSplineSet
EndChar

StartChar: ocircumflex
Encoding: 244 244 180
Width: 600
GlyphClass: 2
Flags: W
LayerCount: 2
Fore
SplineSet
276.262695312 631 m 1
 434.00390625 794 l 1
 459.00390625 794 l 1
 558.0859375 630 l 1
 497.033203125 590 l 1
 428.015625 709 l 1
 313.208984375 591 l 1
 276.262695312 631 l 1
589.364257812 262.303710938 m 0
 558.418945312 86.8046875 427.857421875 -14 302.5 -14 c 0
 169.079101562 -14 74.41796875 99.5322265625 102.814453125 260.578125 c 0
 131.655273438 424.139648438 267.923828125 541.004882812 402.833984375 541.004882812 c 0
 523.14453125 541.004882812 621.59375 445.083984375 589.364257812 262.303710938 c 0
384.649414062 470.102539062 m 0
 303.6875 470.102539062 215.087890625 397.575195312 192.206054688 267.805664062 c 0
 169.181640625 137.224609375 231.474609375 57.9931640625 315.83984375 57.9931640625 c 0
 393.109375 57.9931640625 481.3125 125.599609375 504.80859375 258.84375 c 0
 530.4375 404.202148438 461.01953125 470.102539062 384.649414062 470.102539062 c 0
EndSplineSet
EndChar

StartChar: otilde
Encoding: 245 245 181
Width: 600
GlyphClass: 2
Flags: W
LayerCount: 2
Fore
SplineSet
280.907226562 646 m 1
 235.431640625 683 l 1
 290.252929688 750.836914062 338.96484375 783.267578125 384.140625 783.267578125 c 0
 430.973632812 783.267578125 456.05078125 749.067382812 468.206054688 733.549804688 c 0
 483.536132812 713.978515625 497.928710938 696.9296875 519.545898438 696.9296875 c 0
 548.125 696.9296875 566.458007812 723.991210938 597.65625 758 c 1
 632.544921875 712 l 1
 583.697265625 662.139648438 546.432617188 629.75390625 503.692382812 629.75390625 c 0
 436.306640625 629.75390625 420.38671875 717.431640625 369.346679688 717.431640625 c 0
 338.655273438 717.431640625 316.567382812 690.786132812 280.907226562 646 c 1
589.364257812 262.303710938 m 0
 558.418945312 86.8046875 427.857421875 -14 302.5 -14 c 0
 169.079101562 -14 74.41796875 99.5322265625 102.814453125 260.578125 c 0
 131.655273438 424.139648438 267.923828125 541.004882812 402.833984375 541.004882812 c 0
 523.14453125 541.004882812 621.59375 445.083984375 589.364257812 262.303710938 c 0
384.649414062 470.102539062 m 0
 303.6875 470.102539062 215.087890625 397.575195312 192.206054688 267.805664062 c 0
 169.181640625 137.224609375 231.474609375 57.9931640625 315.83984375 57.9931640625 c 0
 393.109375 57.9931640625 481.3125 125.599609375 504.80859375 258.84375 c 0
 530.4375 404.202148438 461.01953125 470.102539062 384.649414062 470.102539062 c 0
EndSplineSet
EndChar

StartChar: odieresis
Encoding: 246 246 182
Width: 600
GlyphClass: 2
Flags: W
LayerCount: 2
Fore
SplineSet
382.475585938 711.498046875 m 0
 376.782226562 679.2109375 345.926757812 652.981445312 313.640625 652.981445312 c 0
 281.350585938 652.981445312 259.744140625 679.208984375 265.4375 711.499023438 c 0
 271.130859375 743.7890625 301.985351562 770.018554688 334.275390625 770.018554688 c 0
 366.565429688 770.018554688 388.168945312 743.7890625 382.475585938 711.498046875 c 0
588.4609375 711.51171875 m 0
 582.7578125 679.16796875 552.095703125 652.991210938 520.14453125 652.991210938 c 0
 488.201171875 652.991210938 466.750976562 679.155273438 472.45703125 711.513671875 c 0
 478.161132812 743.862304688 508.830078125 770.03515625 540.786132812 770.03515625 c 0
 572.713867188 770.03515625 594.16796875 743.876953125 588.4609375 711.51171875 c 0
589.364257812 262.303710938 m 0
 558.418945312 86.8046875 427.857421875 -14 302.5 -14 c 0
 169.079101562 -14 74.41796875 99.5322265625 102.814453125 260.578125 c 0
 131.655273438 424.139648438 267.923828125 541.004882812 402.833984375 541.004882812 c 0
 523.14453125 541.004882812 621.59375 445.083984375 589.364257812 262.303710938 c 0
384.649414062 470.102539062 m 0
 303.6875 470.102539062 215.087890625 397.575195312 192.206054688 267.805664062 c 0
 169.181640625 137.224609375 231.474609375 57.9931640625 315.83984375 57.9931640625 c 0
 393.109375 57.9931640625 481.3125 125.599609375 504.80859375 258.84375 c 0
 530.4375 404.202148438 461.01953125 470.102539062 384.649414062 470.102539062 c 0
EndSplineSet
EndChar

StartChar: divide
Encoding: 247 247 183
Width: 600
GlyphClass: 2
Flags: W
LayerCount: 2
Fore
SplineSet
163.059570312 403 m 1
 580.059570312 403 l 1
 566.481445312 326 l 1
 149.481445312 326 l 1
 163.059570312 403 l 1
453.391601562 540.9921875 m 0
 448.33203125 512.296875 420.913085938 488.971679688 392.198242188 488.971679688 c 0
 363.497070312 488.971679688 344.291015625 512.2890625 349.353515625 540.990234375 c 0
 354.413085938 569.692382812 381.83984375 593.010742188 410.54296875 593.010742188 c 0
 439.255859375 593.010742188 458.450195312 569.686523438 453.391601562 540.9921875 c 0
390.451171875 183.993164062 m 0
 385.387695312 155.275390625 357.944335938 131.943359375 329.2265625 131.943359375 c 0
 300.505859375 131.943359375 281.2890625 155.271484375 286.353515625 183.9921875 c 0
 291.418945312 212.711914062 318.861328125 236.040039062 347.58203125 236.040039062 c 0
 376.298828125 236.040039062 395.515625 212.709960938 390.451171875 183.993164062 c 0
EndSplineSet
EndChar

StartChar: oslash
Encoding: 248 248 184
Width: 600
GlyphClass: 2
Flags: W
LayerCount: 2
Fore
SplineSet
384.649414062 470.102539062 m 0
 303.6875 470.102539062 215.088867188 397.57421875 192.20703125 267.805664062 c 0
 182.055664062 210.231445312 188.489257812 162.639648438 206.087890625 127.419921875 c 1
 442.48828125 455.84375 l 1
 424.809570312 465.434570312 404.975585938 470.102539062 384.649414062 470.102539062 c 0
589.364257812 262.303710938 m 0
 558.418945312 86.8046875 427.859375 -14 302.501953125 -14 c 0
 264.642578125 -14 229.901367188 -4.8583984375 200.208984375 11.9169921875 c 1
 137.953125 -74 l 1
 83.4189453125 -43 l 1
 151.385742188 51.423828125 l 1
 108.092773438 100.283203125 87.4580078125 173.482421875 102.815429688 260.578125 c 0
 131.65625 424.139648438 267.924804688 541.004882812 402.834960938 541.004882812 c 0
 433.989257812 541.004882812 463.6796875 534.573242188 490.012695312 521.866210938 c 1
 546.974609375 601 l 1
 603.154296875 568 l 1
 542.006835938 483.61328125 l 1
 585.270507812 437.145507812 607.09765625 362.872070312 589.364257812 262.303710938 c 0
488.630859375 409.94921875 m 1
 248.231445312 78.1884765625 l 1
 267.725585938 64.9677734375 290.8125 57.994140625 315.842773438 57.994140625 c 0
 393.111328125 57.994140625 481.315429688 125.600585938 504.811523438 258.844726562 c 0
 516.559570312 325.471679688 508.337890625 375.404296875 488.630859375 409.94921875 c 1
EndSplineSet
EndChar

StartChar: ugrave
Encoding: 249 249 185
Width: 600
GlyphClass: 2
Flags: W
LayerCount: 2
Fore
SplineSet
434.825195312 810 m 1
 506.849609375 640 l 1
 442.677734375 605 l 1
 353.184570312 761 l 1
 434.825195312 810 l 1
119.750976562 95 m 0
 106.862304688 141 115.01171875 187.998046875 123.260742188 234 c 2
 153.171875 400.80078125 l 2
 164.134765625 461.931640625 153.967773438 507.291015625 142.599609375 529 c 1
 240.634765625 541 l 1
 242.2109375 536.12890625 254.724609375 497.51171875 244.37890625 438.8359375 c 2
 208.260742188 234 l 2
 201.912109375 197.998046875 194.684570312 157 207.159179688 120 c 0
 220.75390625 78 254.698242188 55 296.698242188 55 c 0
 347.698242188 55 400.693359375 89 432.451171875 133 c 0
 456.271484375 166 464.736328125 197 471.965820312 238 c 2
 523.27734375 529 l 1
 607.27734375 529 l 1
 541.684570312 157 l 2
 524.403320312 59 561 0 561 0 c 1
 456.618164062 -5 l 1
 456.618164062 -5 449.5 21.5 451.422851562 79.318359375 c 1
 404.482421875 28.1201171875 325.86328125 -13 265.708007812 -13 c 0
 196.708007812 -13 138.408203125 25 119.750976562 95 c 0
EndSplineSet
EndChar

StartChar: uacute
Encoding: 250 250 186
Width: 600
GlyphClass: 2
Flags: W
LayerCount: 2
Fore
SplineSet
490.825195312 810 m 1
 555.184570312 761 l 1
 410.677734375 605 l 1
 358.849609375 640 l 1
 490.825195312 810 l 1
119.750976562 95 m 0
 106.862304688 141 115.01171875 187.998046875 123.260742188 234 c 2
 153.171875 400.80078125 l 2
 164.134765625 461.931640625 153.967773438 507.291015625 142.599609375 529 c 1
 240.634765625 541 l 1
 242.2109375 536.12890625 254.724609375 497.51171875 244.37890625 438.8359375 c 2
 208.260742188 234 l 2
 201.912109375 197.998046875 194.684570312 157 207.159179688 120 c 0
 220.75390625 78 254.698242188 55 296.698242188 55 c 0
 347.698242188 55 400.693359375 89 432.451171875 133 c 0
 456.271484375 166 464.736328125 197 471.965820312 238 c 2
 523.27734375 529 l 1
 607.27734375 529 l 1
 541.684570312 157 l 2
 524.403320312 59 561 0 561 0 c 1
 456.618164062 -5 l 1
 456.618164062 -5 449.5 21.5 451.422851562 79.318359375 c 1
 404.482421875 28.1201171875 325.86328125 -13 265.708007812 -13 c 0
 196.708007812 -13 138.408203125 25 119.750976562 95 c 0
EndSplineSet
EndChar

StartChar: ucircumflex
Encoding: 251 251 187
Width: 600
GlyphClass: 2
Flags: W
LayerCount: 2
Fore
SplineSet
276.262695312 631 m 1
 434.00390625 794 l 1
 459.00390625 794 l 1
 558.0859375 630 l 1
 497.033203125 590 l 1
 428.015625 709 l 1
 313.208984375 591 l 1
 276.262695312 631 l 1
119.750976562 95 m 0
 106.862304688 141 115.01171875 187.998046875 123.260742188 234 c 2
 153.171875 400.80078125 l 2
 164.134765625 461.931640625 153.967773438 507.291015625 142.599609375 529 c 1
 240.634765625 541 l 1
 242.2109375 536.12890625 254.724609375 497.51171875 244.37890625 438.8359375 c 2
 208.260742188 234 l 2
 201.912109375 197.998046875 194.684570312 157 207.159179688 120 c 0
 220.75390625 78 254.698242188 55 296.698242188 55 c 0
 347.698242188 55 400.693359375 89 432.451171875 133 c 0
 456.271484375 166 464.736328125 197 471.965820312 238 c 2
 523.27734375 529 l 1
 607.27734375 529 l 1
 541.684570312 157 l 2
 524.403320312 59 561 0 561 0 c 1
 456.618164062 -5 l 1
 456.618164062 -5 449.5 21.5 451.422851562 79.318359375 c 1
 404.482421875 28.1201171875 325.86328125 -13 265.708007812 -13 c 0
 196.708007812 -13 138.408203125 25 119.750976562 95 c 0
EndSplineSet
EndChar

StartChar: udieresis
Encoding: 252 252 188
Width: 600
GlyphClass: 2
Flags: W
LayerCount: 2
Fore
SplineSet
382.475585938 711.498046875 m 0
 376.782226562 679.2109375 345.926757812 652.981445312 313.640625 652.981445312 c 0
 281.350585938 652.981445312 259.744140625 679.208984375 265.4375 711.499023438 c 0
 271.130859375 743.7890625 301.985351562 770.018554688 334.275390625 770.018554688 c 0
 366.565429688 770.018554688 388.168945312 743.7890625 382.475585938 711.498046875 c 0
588.4609375 711.51171875 m 0
 582.7578125 679.16796875 552.095703125 652.991210938 520.14453125 652.991210938 c 0
 488.201171875 652.991210938 466.750976562 679.155273438 472.45703125 711.513671875 c 0
 478.161132812 743.862304688 508.830078125 770.03515625 540.786132812 770.03515625 c 0
 572.713867188 770.03515625 594.16796875 743.876953125 588.4609375 711.51171875 c 0
119.750976562 95 m 0
 106.862304688 141 115.01171875 187.998046875 123.260742188 234 c 2
 153.171875 400.80078125 l 2
 164.134765625 461.931640625 153.967773438 507.291015625 142.599609375 529 c 1
 240.634765625 541 l 1
 242.2109375 536.12890625 254.724609375 497.51171875 244.37890625 438.8359375 c 2
 208.260742188 234 l 2
 201.912109375 197.998046875 194.684570312 157 207.159179688 120 c 0
 220.75390625 78 254.698242188 55 296.698242188 55 c 0
 347.698242188 55 400.693359375 89 432.451171875 133 c 0
 456.271484375 166 464.736328125 197 471.965820312 238 c 2
 523.27734375 529 l 1
 607.27734375 529 l 1
 541.684570312 157 l 2
 524.403320312 59 561 0 561 0 c 1
 456.618164062 -5 l 1
 456.618164062 -5 449.5 21.5 451.422851562 79.318359375 c 1
 404.482421875 28.1201171875 325.86328125 -13 265.708007812 -13 c 0
 196.708007812 -13 138.408203125 25 119.750976562 95 c 0
EndSplineSet
EndChar

StartChar: yacute
Encoding: 253 253 189
Width: 600
GlyphClass: 2
Flags: W
LayerCount: 2
Fore
SplineSet
490.825195312 810 m 1
 555.184570312 761 l 1
 410.677734375 605 l 1
 358.849609375 640 l 1
 490.825195312 810 l 1
156.27734375 529 m 1
 260.27734375 529 l 1
 259.090820312 518.579101562 252.245117188 512.754882812 250.741210938 504.225585938 c 0
 250.146484375 500.852539062 250.555664062 498.287109375 251.282226562 495 c 2
 337.514648438 105 l 1
 488.590820312 389 l 2
 512.836914062 434.578125 536.162109375 481.532226562 553.453125 530 c 1
 640.453125 530 l 1
 615.760742188 478.243164062 588.399414062 427.412109375 560.475585938 377 c 2
 318.419921875 -60 l 2
 301.821289062 -89.966796875 285.71875 -117.88671875 258.006835938 -143.905273438 c 0
 215.734375 -183.592773438 163.034179688 -201.1796875 115.22265625 -201.1796875 c 0
 71.6982421875 -201.1796875 33.7080078125 -186.250976562 8.31640625 -157 c 1
 64.541015625 -82 l 1
 70.43359375 -87.3564453125 68.4814453125 -95.083984375 70.4638671875 -100.819335938 c 0
 72.4150390625 -106.46484375 87.798828125 -132.772460938 127.036132812 -132.772460938 c 0
 151.830078125 -132.772460938 180.932617188 -121.950195312 207.109375 -98.482421875 c 0
 227.03125 -80.62109375 241.584960938 -58.0556640625 254.475585938 -37 c 2
 278.352539062 2 l 1
 156.27734375 529 l 1
EndSplineSet
EndChar

StartChar: thorn
Encoding: 254 254 190
Width: 600
GlyphClass: 2
Flags: W
LayerCount: 2
Fore
SplineSet
215.771484375 770 m 1
 307.771484375 770 l 1
 307.419921875 768 l 2
 304.951171875 754 296.24609375 750 293.072265625 732 c 2
 242.995117188 448 l 1
 289.22265625 506 358.393554688 541 426.393554688 541 c 0
 530.393554688 541 626.758789062 458 593.78515625 271 c 0
 559.578125 77 429.532226562 -14 321.532226562 -14 c 0
 257.532226562 -14 203.174804688 18 177.34375 70 c 1
 130.969726562 -193 l 1
 45.9697265625 -193 l 1
 215.771484375 770 l 1
383.874023438 470 m 0
 329.874023438 470 275.758789062 441 247.295898438 393 c 0
 230.53515625 366 222.893554688 334 214.958984375 289 c 0
 201.380859375 212 193.798828125 169 202.451171875 133 c 0
 214.98828125 85 260.580078125 60 310.580078125 60 c 0
 360.580078125 60 474.340820312 87 503.609375 253 c 0
 537.641601562 446 429.874023438 470 383.874023438 470 c 0
EndSplineSet
EndChar

StartChar: ydieresis
Encoding: 255 255 191
Width: 600
GlyphClass: 2
Flags: W
LayerCount: 2
Fore
SplineSet
382.475585938 711.498046875 m 0
 376.782226562 679.2109375 345.926757812 652.981445312 313.640625 652.981445312 c 0
 281.350585938 652.981445312 259.744140625 679.208984375 265.4375 711.499023438 c 0
 271.130859375 743.7890625 301.985351562 770.018554688 334.275390625 770.018554688 c 0
 366.565429688 770.018554688 388.168945312 743.7890625 382.475585938 711.498046875 c 0
588.4609375 711.51171875 m 0
 582.7578125 679.16796875 552.095703125 652.991210938 520.14453125 652.991210938 c 0
 488.201171875 652.991210938 466.750976562 679.155273438 472.45703125 711.513671875 c 0
 478.161132812 743.862304688 508.830078125 770.03515625 540.786132812 770.03515625 c 0
 572.713867188 770.03515625 594.16796875 743.876953125 588.4609375 711.51171875 c 0
156.27734375 529 m 1
 260.27734375 529 l 1
 259.090820312 518.579101562 252.245117188 512.754882812 250.741210938 504.225585938 c 0
 250.146484375 500.852539062 250.555664062 498.287109375 251.282226562 495 c 2
 337.514648438 105 l 1
 488.590820312 389 l 2
 512.836914062 434.578125 536.162109375 481.532226562 553.453125 530 c 1
 640.453125 530 l 1
 615.760742188 478.243164062 588.399414062 427.412109375 560.475585938 377 c 2
 318.419921875 -60 l 2
 301.821289062 -89.966796875 285.71875 -117.88671875 258.006835938 -143.905273438 c 0
 215.734375 -183.592773438 163.034179688 -201.1796875 115.22265625 -201.1796875 c 0
 71.6982421875 -201.1796875 33.7080078125 -186.250976562 8.31640625 -157 c 1
 64.541015625 -82 l 1
 70.43359375 -87.3564453125 68.4814453125 -95.083984375 70.4638671875 -100.819335938 c 0
 72.4150390625 -106.46484375 87.798828125 -132.772460938 127.036132812 -132.772460938 c 0
 151.830078125 -132.772460938 180.932617188 -121.950195312 207.109375 -98.482421875 c 0
 227.03125 -80.62109375 241.584960938 -58.0556640625 254.475585938 -37 c 2
 278.352539062 2 l 1
 156.27734375 529 l 1
EndSplineSet
EndChar

StartChar: Amacron
Encoding: 256 256 192
Width: 600
GlyphClass: 2
Flags: W
LayerCount: 2
Fore
SplineSet
314.955078125 917 m 1
 608.955078125 917 l 1
 597.494140625 852 l 1
 303.494140625 852 l 1
 314.955078125 917 l 1
26.8232421875 -1 m 1
 411.600585938 735 l 1
 420.600585938 735 l 1
 570 0 l 1
 486 0 l 1
 443.205078125 211 l 1
 214.205078125 211 l 1
 106.823242188 -1 l 1
 26.8232421875 -1 l 1
436.3125 274 m 1
 382.803710938 549 l 1
 241.313476562 274 l 1
 436.3125 274 l 1
EndSplineSet
EndChar

StartChar: amacron
Encoding: 257 257 193
Width: 600
GlyphClass: 2
Flags: W
LayerCount: 2
Fore
SplineSet
87.5869140625 145.12890625 m 0
 131.31640625 393.12890625 351.103515625 530 452.045898438 530 c 0
 601.103515625 530 551.369140625 503.76953125 614.87109375 487 c 1
 609.619140625 480.6171875 597.96484375 453.5 592.763671875 424 c 0
 570.838867188 299.659179688 568.268554688 281.319335938 546.521484375 156.978515625 c 1
 546.68359375 156.978515625 l 1
 529.403320312 58.978515625 566 0 566 0 c 1
 461.618164062 -5 l 1
 461.618164062 -5 447.80078125 68.4443359375 468.720703125 191.602539062 c 1
 391.708984375 -0.28515625 281.5859375 -11.7421875 202.841796875 -11.7421875 c 0
 118.599609375 -11.7421875 67.1328125 29.12890625 87.5869140625 145.12890625 c 0
170.581054688 157.12890625 m 0
 159.6484375 95.12890625 194.548828125 61.8095703125 220.548828125 61.8095703125 c 0
 318.548828125 61.8095703125 415.592773438 147.12890625 465.578125 249.12890625 c 0
 478.705078125 275.916015625 497.55859375 331.203125 511.435546875 405.12890625 c 2
 519.294921875 447 l 1
 519.294921875 447 510.181640625 468.0546875 456.180664062 468.0546875 c 0
 378.181640625 468.0546875 202.3203125 337.12890625 170.581054688 157.12890625 c 0
279.955078125 720 m 1
 573.955078125 720 l 1
 562.494140625 655 l 1
 268.494140625 655 l 1
 279.955078125 720 l 1
EndSplineSet
EndChar

StartChar: Abreve
Encoding: 258 258 194
Width: 600
GlyphClass: 2
Flags: W
LayerCount: 2
Fore
SplineSet
318.28125 909 m 1
 337.341796875 867.211914062 376.905273438 826.993164062 434.141601562 826.993164062 c 0
 482.458984375 826.993164062 537.5546875 856.856445312 586.10546875 908 c 1
 610.641601562 860 l 1
 562.05078125 806.837890625 493.754882812 766.983398438 423.737304688 766.983398438 c 0
 360.444335938 766.983398438 303.145507812 800.672851562 266.936523438 856 c 1
 318.28125 909 l 1
26.8232421875 -1 m 1
 411.600585938 735 l 1
 420.600585938 735 l 1
 570 0 l 1
 486 0 l 1
 443.205078125 211 l 1
 214.205078125 211 l 1
 106.823242188 -1 l 1
 26.8232421875 -1 l 1
436.3125 274 m 1
 382.803710938 549 l 1
 241.313476562 274 l 1
 436.3125 274 l 1
EndSplineSet
EndChar

StartChar: abreve
Encoding: 259 259 195
Width: 600
GlyphClass: 2
Flags: W
LayerCount: 2
Fore
SplineSet
311.069335938 749 m 1
 330.12890625 707.211914062 369.693359375 666.993164062 426.928710938 666.993164062 c 0
 475.247070312 666.993164062 530.341796875 696.856445312 578.892578125 748 c 1
 603.428710938 700 l 1
 554.838867188 646.837890625 486.54296875 606.983398438 416.525390625 606.983398438 c 0
 353.232421875 606.983398438 295.932617188 640.672851562 259.723632812 696 c 1
 311.069335938 749 l 1
87.5869140625 145.12890625 m 0
 131.31640625 393.12890625 351.103515625 530 452.045898438 530 c 0
 601.103515625 530 551.369140625 503.76953125 614.87109375 487 c 1
 609.619140625 480.6171875 597.96484375 453.5 592.763671875 424 c 0
 570.838867188 299.659179688 568.268554688 281.319335938 546.521484375 156.978515625 c 1
 546.68359375 156.978515625 l 1
 529.403320312 58.978515625 566 0 566 0 c 1
 461.618164062 -5 l 1
 461.618164062 -5 447.80078125 68.4443359375 468.720703125 191.602539062 c 1
 391.708984375 -0.28515625 281.5859375 -11.7421875 202.841796875 -11.7421875 c 0
 118.599609375 -11.7421875 67.1328125 29.12890625 87.5869140625 145.12890625 c 0
170.581054688 157.12890625 m 0
 159.6484375 95.12890625 194.548828125 61.8095703125 220.548828125 61.8095703125 c 0
 318.548828125 61.8095703125 415.592773438 147.12890625 465.578125 249.12890625 c 0
 478.705078125 275.916015625 497.55859375 331.203125 511.435546875 405.12890625 c 2
 519.294921875 447 l 1
 519.294921875 447 510.181640625 468.0546875 456.180664062 468.0546875 c 0
 378.181640625 468.0546875 202.3203125 337.12890625 170.581054688 157.12890625 c 0
EndSplineSet
EndChar

StartChar: Aogonek
Encoding: 260 260 196
Width: 600
GlyphClass: 2
Flags: W
LayerCount: 2
Fore
SplineSet
494 0 m 1
 571 0 l 1
 525.872070312 -34.9921875 491.653320312 -66.5966796875 479.848632812 -77.740234375 c 0
 470.078125 -86.96484375 456.291015625 -100.705078125 453.26953125 -117.841796875 c 0
 450.130859375 -135.639648438 460.259765625 -150.796875 481.357421875 -150.796875 c 0
 488.548828125 -150.796875 497.383789062 -149.114257812 510.345703125 -144.678710938 c 0
 529.608398438 -138.086914062 542.692382812 -130.111328125 551.135742188 -124 c 1
 541.790039062 -177 l 1
 515.598632812 -196.689453125 485.728515625 -204.001953125 456.928710938 -204.001953125 c 0
 396.88671875 -204.001953125 371.767578125 -171.745117188 378.583007812 -133.09375 c 0
 385.166015625 -95.76171875 425.228515625 -49.529296875 494 0 c 1
26.8232421875 -1 m 1
 411.600585938 735 l 1
 420.600585938 735 l 1
 570 0 l 1
 486 0 l 1
 443.205078125 211 l 1
 214.205078125 211 l 1
 106.823242188 -1 l 1
 26.8232421875 -1 l 1
436.3125 274 m 1
 382.803710938 549 l 1
 241.313476562 274 l 1
 436.3125 274 l 1
EndSplineSet
EndChar

